<?xml version="1.0" standalone="no"?>
<!DOCTYPE svg PUBLIC "-//W3C//DTD SVG 1.1//EN" "http://www.w3.org/Graphics/SVG/1.1/DTD/svg11.dtd" >
<svg>
<metadata>
Created by FontForge 20090622 at Wed May 11 07:58:47 2016
 By deploy user
Typeface &#194;&#169; The scict.ir Corporation plc. Data &#194;&#169; The scict.ir Corporation plc/Type Solutions Inc. 2007-2008. All Rights Reserved.Design by Hossein Zahedi.
</metadata>
<defs>
<font id="IranNastaliq" horiz-adv-x="0" >
  <font-face 
    font-family="IranNastaliq"
    font-weight="400"
    font-stretch="normal"
    units-per-em="2048"
    panose-1="2 2 5 5 0 0 0 2 0 3"
    ascent="1638"
    descent="-410"
    x-height="1160"
    cap-height="1489"
    bbox="-1226 -1870.86 4099.05 2596"
    underline-thickness="60"
    underline-position="-40"
    unicode-range="U+0009-U+FFFC"
  />
<missing-glyph horiz-adv-x="2048" 
d="M256 0v1536h1536v-1536h-1536zM384 128h1280v1280h-1280v-1280z" />
    <glyph glyph-name="afii64184" unicode="&#xfedf;&#xfee0;&#xfeea;" horiz-adv-x="958" arabic-form="isolated" 
d="M359 309q8 0 18 -20q5 -8 9 -17q16 -26 43.5 -43.5t79.5 -17.5q38 0 63 20q16 13 48 79.5t42 66.5t17.5 -21.5t15.5 -37t27.5 -27.5t52.5 -12q37 0 61.5 24.5t24.5 61.5q0 20 -4 55t-4 49q0 20 30 86q25 49 49 90q9 6 12 -5t3 -52q0 -82 -13.5 -166t-44 -161t-80 -127
t-106.5 -50q-41 0 -63 16q-23 21 -37 41q-43 -53 -92.5 -97t-110.5 -44q-41 0 -70.5 12.5t-43 27.5t-33.5 46l-9 12q-10 0 -57 -43q-39 -35 -45 -41q-49 -39 -78 -59q-47 -33 -59 -18q-6 8 171 190t183 182z" />
    <glyph glyph-name="afii62834" unicode="&#xfedf;&#xfe82;" horiz-adv-x="523" arabic-form="isolated" 
d="M466 659q-1 -39 -3 -95.5t-3 -79.5q-2 -79 -16.5 -132t-24.5 -83t-23 -63q-19 -49 -41 -83q-37 -56 -68 -84q-46 -40 -98 -39q-28 1 -49 14t-40 34q-15 12 -19 16q-15 14 -14 28q0 10 10 23l22 29q6 8 16 24t18 42.5t12 69.5t5 74t1.5 62t-0.5 67q3 92 33 200
q20 73 66 197q2 6 5 10t5 4q7 0 6 -37q0 -18 -15 -218t-24.5 -259t-28.5 -114q-26 -81 -66 -139q2 -4 16 -4.5t24 -0.5q55 -2 110 42.5t73.5 101.5t18.5 88v62q2 48 1 125.5t1.5 140.5t27.5 146t81 181q7 10 12 7.5t0 -33.5q-3 -28 -8 -54q-16 -117 -23 -270zM405 1271
q74 0 137 27q37 16 68 37t41.5 27.5t17.5 6.5q6 0 5.5 -10.5t-9.5 -24.5q-18 -33 -52.5 -70.5t-81.5 -68.5q-73 -47 -131 -67t-145 -17q-35 3 -61.5 11t-65 13.5t-68 -3.5t-50 -23t-38 -28.5t-26.5 -8.5q-5 7 8.5 31t35.5 49q48 58 109 97q70 45 121 45q17 0 101 -16
q41 -7 84 -7z" />
    <glyph glyph-name="afii62835" unicode="&#xfee0;&#xfe82;" horiz-adv-x="610" arabic-form="final" 
d="M614 660q-1 -39 -4 -95.5t-4 -79.5q-3 -79 -16 -132t-24 -84q-9 -30 -25.5 -70.5t-46 -85.5t-59.5 -73q-47 -40 -99 -39q-27 1 -49 14q-21 14 -39 34q-16 13 -20 17q-14 13 -14 27q0 10 10 23l23 29q6 8 16 24t17.5 42.5t12.5 69.5q4 43 5 74l2 62q1 32 0 67q2 92 32 200
q21 73 67 197q3 8 6 11t5 3q7 -1 6 -38q-1 -18 -4 -58q-3 -41 -4 -52l-22 -260q-2 -47 -11 -107q-10 -58 -29 -113q-26 -81 -67 -139q2 -4 16 -4l25 -1q55 -2 110 41.5t70 92t16 97.5q7 113 11 196.5t12.5 135.5t27.5 113t60 158q6 10 11 8t-4.5 -78.5t-19.5 -226.5z
M505 1228q74 0 137 27q37 16 68 37t41.5 27.5t17.5 6.5q6 0 5.5 -10.5t-9.5 -24.5q-18 -33 -52.5 -70.5t-81.5 -68.5q-73 -47 -131 -67t-145 -17q-35 3 -61.5 11t-65 13.5t-68 -3.5t-50 -23t-38 -28.5t-26.5 -8.5q-5 7 8.5 31t35.5 49q48 58 109 97q70 45 121 45
q17 0 101 -16q41 -7 84 -7z" />
    <glyph glyph-name="afii62836" unicode="&#xfedf;&#xfe84;" horiz-adv-x="461" arabic-form="isolated" 
d="M410 659q-1 -39 -3 -95.5t-3 -79.5q-2 -79 -16.5 -132t-24.5 -83t-23 -63q-19 -49 -41 -83q-37 -56 -68 -84q-46 -40 -98 -39q-28 1 -49 14t-40 34q-15 12 -19 16q-15 14 -14 28q0 10 10 23l22 29q6 8 16 24t18 42.5t12 69.5t5 74t1.5 62t-0.5 67q3 92 33 200
q20 73 66 197q2 6 5 10t5 4q7 0 6 -37q0 -18 -15 -218t-24.5 -259t-28.5 -114q-26 -81 -66 -139q2 -4 16 -4.5t24 -0.5q55 -2 110 42.5t73.5 101.5t18.5 88v62q2 48 1 125.5t1.5 140.5t27.5 146t81 181q7 10 12 7.5t0 -33.5q-3 -28 -8 -54q-16 -117 -23 -270zM92 958
q-15 -11 -19.5 -10.5t-0.5 10t17 24.5l28 32l6 6v2q-15 6 -31 15.5t-15 15.5q1 16 51 65q27 30 28 30q22 17 42 15q11 -1 20 -9t8 -20q-1 -8 -7.5 -14.5t-14.5 -5.5q-2 0 -10 5.5t-19 6.5q-10 1 -23 -7.5t-13 -13.5q-1 -13 13.5 -21.5t33.5 -10.5q12 -2 38 8q17 6 39 18
q4 3 7 1t3 -5q-1 -8 -52.5 -39t-88.5 -64.5t-40 -33.5z" />
    <glyph glyph-name="afii62837" unicode="&#xfee0;&#xfe84;" horiz-adv-x="426" arabic-form="final" 
d="M432 660q-1 -39 -4 -95.5t-4 -79.5q-3 -79 -16 -132t-24 -84q-9 -30 -25.5 -70.5t-46 -85.5t-59.5 -73q-47 -40 -99 -39q-27 1 -49 14q-21 14 -39 34q-16 13 -20 17q-14 13 -14 27q0 10 10 23l23 29q6 8 16 24t17.5 42.5t12.5 69.5q4 43 5 74l2 62q1 32 0 67q2 92 32 200
q21 73 67 197q3 8 6 11t5 3q7 -1 6 -38q-1 -18 -4 -58q-3 -41 -4 -52l-22 -260q-2 -47 -11 -107q-10 -58 -29 -113q-26 -81 -67 -139q2 -4 16 -4l25 -1q55 -2 110 41.5t70 92t16 97.5q7 113 11 196.5t12.5 135.5t27.5 113t60 158q6 10 11 8t-4.5 -78.5t-19.5 -226.5z
M112 968q-15 -11 -19.5 -10.5t-0.5 10t17 24.5l28 32l6 6v2q-15 6 -31 15.5t-15 15.5q1 16 51 65q27 30 28 30q22 17 42 15q11 -1 20 -9t8 -20q-1 -8 -7.5 -14.5t-14.5 -5.5q-2 0 -10 5.5t-19 6.5q-10 1 -23 -7.5t-13 -13.5q-1 -13 13.5 -21.5t33.5 -10.5q12 -2 38 8
q17 6 39 18q4 3 7 1t3 -5q-1 -8 -52.5 -39t-88.5 -64.5t-40 -33.5z" />
    <glyph glyph-name="afii62838" unicode="&#xfedf;&#xfe88;" horiz-adv-x="430" arabic-form="isolated" 
d="M401 659q-1 -39 -3 -95.5t-3 -79.5q-2 -79 -16.5 -132t-24.5 -83t-23 -63q-19 -49 -41 -83q-37 -56 -68 -84q-46 -40 -98 -39q-28 1 -49 14t-40 34q-15 12 -19 16q-15 14 -14 28q0 10 10 23l22 29q6 8 16 24t18 42.5t12 69.5t5 74t1.5 62t-0.5 67q3 92 33 200
q20 73 66 197q2 6 5 10t5 4q7 0 6 -37q0 -18 -15 -218t-24.5 -259t-28.5 -114q-26 -81 -66 -139q2 -4 16 -4.5t24 -0.5q55 -2 110 42.5t73.5 101.5t18.5 88v62q2 48 1 125.5t1.5 140.5t27.5 146t81 181q7 10 12 7.5t0 -33.5q-3 -28 -8 -54q-16 -117 -23 -270zM-6 -294
q-15 -11 -19.5 -10.5t-0.5 10t17 24.5l28 32l6 6v2q-15 6 -31 15.5t-15 15.5q1 16 51 65q27 30 28 30q22 17 42 15q11 -1 20 -9t8 -20q-1 -8 -7.5 -14.5t-14.5 -5.5q-2 0 -10 5.5t-19 6.5q-10 1 -23 -7.5t-13 -13.5q-1 -13 13.5 -21.5t33.5 -10.5q12 -2 38 8q17 6 39 18
q4 3 7 1t3 -5q-1 -8 -52.5 -39t-88.5 -64.5t-40 -33.5z" />
    <glyph glyph-name="afii62839" unicode="&#xfee0;&#xfe88;" horiz-adv-x="578" arabic-form="final" 
d="M583 660q-1 -39 -4 -95.5t-4 -79.5q-3 -79 -16 -132t-24 -84q-9 -30 -25.5 -70.5t-46 -85.5t-59.5 -73q-47 -40 -99 -39q-27 1 -49 14q-21 14 -39 34q-16 13 -20 17q-14 13 -14 27q0 10 10 23l23 29q6 8 16 24t17.5 42.5t12.5 69.5q4 43 5 74l2 62q1 32 0 67q2 92 32 200
q21 73 67 197q3 8 6 11t5 3q7 -1 6 -38q-1 -18 -4 -58q-3 -41 -4 -52l-22 -260q-2 -47 -11 -107q-10 -58 -29 -113q-26 -81 -67 -139q2 -4 16 -4l25 -1q55 -2 110 41.5t70 92t16 97.5q7 113 11 196.5t12.5 135.5t27.5 113t60 158q6 10 11 8t-4.5 -78.5t-19.5 -226.5z
M158 -336q-15 -11 -19.5 -10.5t-0.5 10t17 24.5l28 32l6 6v2q-15 6 -31 15.5t-15 15.5q1 16 51 65q27 30 28 30q22 17 42 15q11 -1 20 -9t8 -20q-1 -8 -7.5 -14.5t-14.5 -5.5q-2 0 -10 5.5t-19 6.5q-10 1 -23 -7.5t-13 -13.5q-1 -13 13.5 -21.5t33.5 -10.5q12 -2 38 8
q17 6 39 18q4 3 7 1t3 -5q-1 -8 -52.5 -39t-88.5 -64.5t-40 -33.5z" />
    <glyph glyph-name="afii62840" unicode="&#xfedf;&#xfe8e;" horiz-adv-x="442" arabic-form="isolated" 
d="M398 659q-1 -39 -3 -95.5t-3 -79.5q-2 -79 -16.5 -132t-24.5 -83t-23 -63q-19 -49 -41 -83q-37 -56 -68 -84q-46 -40 -98 -39q-28 1 -49 14t-40 34q-15 12 -19 16q-15 14 -14 28q0 10 10 23l22 29q6 8 16 24t18 42.5t12 69.5t5 74t1.5 62t-0.5 67q3 92 33 200
q20 73 66 197q2 6 5 10t5 4q7 0 6 -37q0 -18 -15 -218t-24.5 -259t-28.5 -114q-26 -81 -66 -139q2 -4 16 -4.5t24 -0.5q55 -2 110 42.5t73.5 101.5t18.5 88v62q2 48 1 125.5t1.5 140.5t27.5 146t81 181q7 10 12 7.5t0 -33.5q-3 -28 -8 -54q-16 -117 -23 -270z" />
    <glyph glyph-name="afii62841" unicode="&#xfee0;&#xfe8e;" horiz-adv-x="481" arabic-form="final" 
d="M486 660q-1 -39 -4 -95.5t-4 -79.5q-3 -79 -16 -132t-24 -84q-9 -30 -25.5 -70.5t-46 -85.5t-59.5 -73q-47 -40 -99 -39q-27 1 -49 14q-21 14 -39 34q-16 13 -20 17q-14 13 -14 27q0 10 10 23l23 29q6 8 16 24t17.5 42.5t12.5 69.5q4 43 5 74l2 62q1 32 0 67q2 92 32 200
q21 73 67 197q3 8 6 11t5 3q7 -1 6 -38q-1 -18 -4 -58q-3 -41 -4 -52l-22 -260q-2 -47 -11 -107q-10 -58 -29 -113q-26 -81 -67 -139q2 -4 16 -4l25 -1q55 -2 110 41.5t70 92t16 97.5q7 113 11 196.5t12.5 135.5t27.5 113t60 158q6 10 11 8t-4.5 -78.5t-19.5 -226.5z" />
    <glyph glyph-name="Komak" unicode="&#xfb90;&#xfee4;&#xfb8f;" horiz-adv-x="1934" 
d="M1953 908l178.5 143l209.5 183q125 113 137 117q30 2 -57 -134q-31 -39 -138.5 -133t-372.5 -299l-280 -216q143 -27 182 -42q36 -15 36 -36q0 -15 -16 -39q-20 -29 -28 -38q-14 -14 -30 -24q-15 -10 -27 -16q-10 -7 -74 -26q-23 -7 -60 -23q-60 -26 -66 -38q-2 -9 4 -15
q12 -11 40 -12h41q20 -2 20 -23q0 -15 -16 -63q-28 -84 -73 -129q-47 -47 -103 -47q-53 0 -83 53q-30 54 -30 131q2 94 8.5 150.5t12.5 99.5q0 7 -2 8q-4 1 -8 -3l-27 -37l-56 -78q-60 -76 -154 -145q-92 -68 -196 -107q-105 -39 -237 -66q-129 -28 -274 -28h-30
q-82 0 -144 10q-88 16 -119 55q-32 38 -34 115q1 66 9 140t28 65q6 0 9 -40t30 -71q56 -61 268 -61q114 0 185 6q334 28 548 162q99 58 157 141q41 59 67 151l28 117q5 21 47 104q12 27 21 45l13 26q5 13 14 14t7 -17q-10 -41 -15 -70q-50 -256 -60 -351q28 18 510 391z
M1604 1118q50 49 192 168q65 51 278.5 230.5t343 308.5t137.5 135q12 8 7 -15l-49 -89q-26 -46 -58 -86q-36 -46 -71 -85q-50 -54 -118.5 -117.5t-271.5 -229.5l-336.5 -268.5t-137.5 -96.5q-18 3 32 81q23 35 52 64zM1545 465q-59 -20 -107 -60q-2 -13 -2 -25
q0 -135 30 -145q2 2 5 11t13 34q16 33 44 59q28 25 63 40l104 42q17 9 17 14q1 11 -54 28.5t-113 1.5z" />
    <glyph glyph-name="SadHa" unicode="&#xfebb;&#xfeea;" horiz-adv-x="1051" 
d="M895 480q-25 0 -59 -31q-15 -12 -90 -112q0 -5 22 -5q23 0 55 5q25 2 54 16q39 17 68 46q27 25 32 48q1 10 -29 21q-30 12 -53 12zM121 148q48 51 74 70q56 41 111 41q28 0 49 -8q55 -25 71 -25q42 0 69 16q28 17 52 47q34 42 39 45q27 27 47 27q11 0 35 -11
q20 -11 39 -11l69 96q54 72 66 84q63 71 110 71q42 0 68 -26q18 -21 18 -47q0 -76 -56 -168q-57 -92 -118 -131q-70 -49 -145 -49q-60 0 -100 20q-30 14 -43 23q-22 0 -53 -49q-38 -54 -66 -84q-58 -68 -141 -68q-34 0 -70 21q-36 20 -63 20q-37 0 -86 -30q-38 -22 -100 -62
q-15 10 20 65q41 57 104 123z" />
    <glyph glyph-name="EinHa" unicode="&#xfecb;&#xfeea;" horiz-adv-x="728" 
d="M549 115q-129 -109 -225 -109q-39 0 -82 21q-45 20 -80 20q-49 0 -103 -31q-57 -30 -61 -26q-10 10 15 41q38 49 133 131q25 24 73 53q57 33 96 33q32 0 61 -12q28 -11 32 -11q6 16 13.5 32.5t14.5 33.5q11 23 23.5 46.5l25.5 47.5q42 70 75 94t71 24q34 0 55 -16
q20 -17 20 -35q0 -43 -34 -43q-5 0 -23 9q-18 10 -45 10q-40 0 -69 -26q-27 -26 -27 -58q-5 -29 20 -44q26 -16 51 -20q46 -6 93 55q43 59 51 58q17 -9 -29 -92q-75 -129 -145 -186z" />
    <glyph glyph-name="FeHa" unicode="&#xfed3;&#xfeea;" horiz-adv-x="629" 
d="M128 137q36 42 74 68q53 35 104 35q27 0 55 -7q25 -6 31 -6q50 0 96 29q45 28 45 51q0 10 -26 33l-15 12q-13 -8 -16 -8q-22 -10 -39 -10q-37 0 -59 18q-23 18 -23 57q0 4 53 129q13 31 34 59q18 21 38 21q52 0 101 -50q48 -51 48 -132q0 -65 -38 -156q-35 -78 -71 -130
q-43 -60 -89 -99q-63 -51 -127 -51q-25 0 -59 12q-34 13 -60 13q-36 0 -69 -19q-23 -13 -49 -38q-29 -26 -41 -17q-11 6 -11 16q0 14 17 39q19 30 46 66q37 51 50 65zM422 1049q0 22 37.5 95.5t48.5 73.5q22 9 64 -33.5t45 -66.5q0 -32 -35 -92t-51 -60q-6 3 -41.5 26.5
l-52.5 35.5q-15 10 -15 21z" />
    <glyph glyph-name="KafHa" unicode="&#xfb90;&#xfeea;" horiz-adv-x="591" 
d="M646 1146q42 45 192 167l131 104.5l131 106.5q90 74 180 158q62 56 161 155q154 146 154 152q0 -11 -4 -19q-5 -27 -39 -86q-32 -56 -55 -86t-71 -85q-50 -54 -60 -64q-15 -15 -41 -39l-64 -57q-42 -39 -165 -143q-74 -63 -139 -113l-81.5 -63.5l-82.5 -61.5l-141 -110
q-34 -29 -59 -46q-28 -22 -31 -15q20 50 37 81q19 35 47 64zM561 958l-8 -154q-3 -69 -6 -153q0 -42 -1 -83.5t-1 -82.5q0 -69 -18 -144q-19 -75 -45 -132q-37 -82 -80 -133q-66 -78 -141 -78q-18 0 -47 10q-28 11 -45 11q-31 0 -64 -17q-10 -6 -39 -26l-27 -24
q-13 -11 -24 -5q-10 5 2 33q3 6 7.5 12.5t8.5 15.5q22 40 54 80q17 20 28.5 35.5l18.5 25.5q23 29 61 52q39 20 66 20q17 0 43 -7q27 -7 36 -7q49 4 76 27q28 24 39 55q7 14 8 32q2 13 2 43v20.5v22.5q-2 12 -2 19l-2 190q0 61 3 114q3 50 11 71q9 19 30 81q21 59 42 106
q9 10 13 9q6 -3 6 -17q0 -4 -5 -22z" />
    <glyph glyph-name="MimHa" unicode="&#xfee3;&#xfeea;" horiz-adv-x="900" 
d="M159 147q35 32 79 60q64 37 101 37q20 0 41 -9q45 -18 77 -18q69 0 111 37q26 22 69 92q23 33 50.5 61t50.5 41q9 8 35 45l14.5 22t13.5 23q14 0 50 -56t36 -105q0 -46 -32 -85q-31 -40 -64 -40q-25 0 -51 6q-27 6 -39 6q-31 0 -78 -51q-6 -7 -65 -82t-84 -92
q-54 -39 -131 -39q-40 0 -80 19q-40 18 -68 18q-43 0 -89 -31q-93 -61 -99 -59q-18 11 39 80q54 67 113 120z" />
    <glyph glyph-name="LamHa" unicode="&#xfedf;&#xfeea;" horiz-adv-x="584" 
d="M566 958l-9 -154q-3 -69 -6 -153q-1 -42 -1.5 -83.5t-0.5 -82.5q0 -69 -18 -144q-20 -75 -45 -132q-38 -82 -80 -133q-66 -78 -141 -78q-19 0 -47 10q-29 11 -45 11q-32 0 -64 -17q-11 -6 -39 -26l-27 -24q-14 -11 -24 -5q-11 5 2 33q3 6 17 28q19 38 53 80l27.5 35.5
l19.5 25.5q22 29 61 52q38 20 66 20q16 0 43 -7q26 -7 37 -7q48 4 75 27q27 24 39 55q6 14 8 32q2 13 2 43v20.5v22.5q-2 12 -2 19l-2 190q0 61 3 114q2 50 11 71q9 19 30 81q27 74 42 106q8 10 13 9q6 -3 6 -17z" />
    <glyph glyph-name="TaHa" unicode="&#xfec3;&#xfeea;" horiz-adv-x="818" 
d="M750 371q0 12 -31 20q-34 8 -63 8q-24 0 -47 -11q-23 -12 -45 -42l-86 -123q119 0 209 74q27 23 63 74zM564 411q56 72 72 86q49 45 104 45q33 0 56 -21q22 -22 22 -67q0 -59 -37 -133q-35 -70 -100 -156q-64 -84 -139 -124q-78 -41 -150 -41q-11 0 -59 10q-46 11 -86 11
q-42 0 -88 -25q-3 -3 -57 -35q-21 -14 -34 -20q-9 -5 -15 0q-9 5 -1 23q7 18 27 42q65 82 95 113q43 46 80 74q35 28 68 36q28 8 46 8q14 0 37 -4q32 -4 30 -4q8 10 19 27q3 7 7.5 15l9.5 17q10 19 20 41q8 18 19 55q9 31 12 75q3 45 3 83q0 126 25 195l82 194q5 7 8 7
q4 1 6 3q6 0 6 -16q0 -19 -4 -35l-9 -41t-6 -34q-6 -28 -10 -84l-6 -55l-6 -58q-7 -68 -11 -86t-25 -86q-11 -32 -11 -35z" />
    <glyph glyph-name="SinHa" unicode="&#xfeb3;&#xfeea;" horiz-adv-x="897" 
d="M883 369q-14 -42 -30 -75q-16 -34 -38 -57q-23 -23 -43 -30q-17 -8 -40 -13l-29 -20.5t-18 -13.5q-28 -21 -51 -19l-39 4q-32 0 -62 -20q3 2 -53 -45q-60 -52 -63 -53q-41 -27 -92 -27q-36 0 -76 19q-41 18 -67 18q-39 0 -82 -21q-89 -43 -90 -40q-12 9 34 63
q47 56 105 102q39 29 92 54q53 26 82 26q28 0 63 -16q38 -17 64 -17q39 0 66 11q25 10 48 30q15 18 33 31q24 18 41 18q6 0 25 -7q21 -7 24 -7q37 0 63 39q20 32 27 41q13 -4 27 -4q12 0 23 6q10 5 31 44q19 38 25 38q11 0 11 -15q0 -13 -11 -44z" />
    <glyph glyph-name="HeHa" unicode="&#xfea3;&#xfeea;" horiz-adv-x="755" 
d="M739 424q0 -21 -14 -47q-11 -26 -22 -36q-9 -8 -21 -15q-31 -24 -51 -41q-36 -39 -57 -64l-35 -47q-58 -77 -96 -110q-72 -64 -152 -64q-19 0 -57 13q-35 14 -47 14q-29 3 -58 -11q-28 -13 -70 -45q-40 -30 -50 -30q-9 0 -6 14q2 12 25 49l24 33.5l23 32.5q28 35 58 65
q34 35 82 64q48 28 84 28q12 0 48 -12q18 -6 38 -6q68 0 125 50q58 50 58 69q-21 11 -37.5 18.5t-28.5 13.5q-23 11 -43 11q-23 0 -47 -17q-8 -6 -30 -31q-18 -24 -29 -18q-6 1 -2 15q3 12 12 28q30 50 45 65q39 41 80 41q21 0 77 -23q60 -24 82 -24q21 0 32 5q6 3 26 15
q14 9 22 9q12 0 12 -12z" />
    <glyph glyph-name="BeHa" unicode="&#xfe91;&#xfeea;" horiz-adv-x="456" 
d="M146 164q19 17 47 30q23 12 47 11q38 -7 64 -7q32 -2 56 10q23 10 37 34l12.5 18.5l17 24t17.5 14.5q9 0 9 -16q0 -38 -45 -125q-24 -51 -52 -84q-41 -47 -94 -66q-14 -6 -43 -6q-6 0 -38 4q-23 4 -37 4q-43 0 -83 -34q-8 -8 -29 -24q-13 -11 -22 -9q-10 4 1 35
q11 28 31 61q28 41 54 73q23 30 50 52zM167 -641q0 -11 15 -21l52.5 -35.5t41.5 -26.5q16 0 51 60t35 92q-3 24 -45 66.5t-64 33.5q-11 0 -48.5 -73.5t-37.5 -95.5z" />
    <glyph glyph-name="ZadHa" unicode="&#xfebf;&#xfeea;" horiz-adv-x="1053" 
d="M897 480q-25 0 -59 -31q-15 -12 -90 -112q0 -5 22 -5q23 0 55 5q25 2 54 16q39 17 68 46q27 25 32 48q1 10 -29 21q-30 12 -53 12zM123 148q48 51 74 70q56 41 111 41q28 0 49 -8q55 -25 71 -25q42 0 69 16q28 17 52 47q34 42 39 45q27 27 47 27q11 0 35 -11
q20 -11 39 -11l69 96q54 72 66 84q63 71 110 71q42 0 68 -26q18 -21 18 -47q0 -76 -56 -168q-57 -92 -118 -131q-70 -49 -145 -49q-60 0 -100 20q-30 14 -43 23q-22 0 -53 -49q-38 -54 -66 -84q-58 -68 -141 -68q-34 0 -70 21q-36 20 -63 20q-37 0 -86 -30q-38 -22 -100 -62
q-15 10 20 65q41 57 104 123zM725 955q0 22 37.5 95.5t48.5 73.5q22 9 64 -33.5t45 -66.5q0 -32 -35 -92t-51 -60q-6 3 -41.5 26.5l-52.5 35.5q-15 10 -15 21z" />
    <glyph glyph-name="GheinHa" unicode="&#xfecf;&#xfeea;" horiz-adv-x="758" 
d="M579 115q-129 -109 -225 -109q-39 0 -82 21q-45 20 -80 20q-49 0 -103 -31q-57 -30 -61 -26q-10 10 15 41q38 49 133 131q25 24 73 53q57 33 96 33q32 0 61 -12q28 -11 32 -11q6 16 13.5 32.5t14.5 33.5q11 23 23.5 46.5l25.5 47.5q42 70 75 94t71 24q34 0 55 -16
q20 -17 20 -35q0 -43 -34 -43q-5 0 -23 9q-18 10 -45 10q-40 0 -69 -26q-27 -26 -27 -58q-5 -29 20 -44q26 -16 51 -20q46 -6 93 55q43 59 51 58q17 -9 -29 -92q-75 -129 -145 -186zM475 912q0 22 37.5 95.5t48.5 73.5q22 9 64 -33.5t45 -66.5q0 -32 -35 -92t-51 -60
q-6 3 -41.5 26.5l-52.5 35.5q-15 10 -15 21z" />
    <glyph glyph-name="ShinHa" unicode="&#xfeb7;&#xfeea;" horiz-adv-x="897" 
d="M883 369q-14 -42 -30 -75q-16 -34 -38 -57q-23 -23 -43 -30q-17 -8 -40 -13l-29 -20.5t-18 -13.5q-28 -21 -51 -19l-39 4q-32 0 -62 -20q3 2 -53 -45q-60 -52 -63 -53q-41 -27 -92 -27q-36 0 -76 19q-41 18 -67 18q-39 0 -82 -21q-89 -43 -90 -40q-12 9 34 63
q47 56 105 102q39 29 92 54q53 26 82 26q28 0 63 -16q38 -17 64 -17q39 0 66 11q25 10 48 30q15 18 33 31q24 18 41 18q6 0 25 -7q21 -7 24 -7q37 0 63 39q20 32 27 41q13 -4 27 -4q12 0 23 6q10 5 31 44q19 38 25 38q11 0 11 -15q0 -13 -11 -44zM460 828q0 12 42.5 91
t52.5 79q16 0 50.5 -29t46.5 -55l42 70q29 48 36 48q24 0 61 -34q36 -38 36 -70q0 -37 -36 -92q-37 -53 -53 -53q-13 0 -37 25q-33 35 -55 51q-55 -112 -86 -112q-7 0 -53.5 37t-46.5 44zM551 1076q0 10 37.5 88.5t48.5 78.5q28 0 62 -34q34 -38 34 -73q0 -33 -31.5 -91
t-46.5 -58q-9 0 -40 27.5t-47.5 39.5t-16.5 22z" />
    <glyph glyph-name="ZaHa" unicode="&#xfec7;&#xfeea;" horiz-adv-x="774" 
d="M706 371q0 12 -31 20q-34 8 -63 8q-24 0 -47 -11q-23 -12 -45 -42l-86 -123q119 0 209 74q27 23 63 74zM520 411q56 72 72 86q49 45 104 45q33 0 56 -21q22 -22 22 -67q0 -59 -37 -133q-35 -70 -100 -156q-64 -84 -139 -124q-78 -41 -150 -41q-11 0 -59 10q-46 11 -86 11
q-42 0 -88 -25q-3 -3 -57 -35q-21 -14 -34 -20q-9 -5 -15 0q-9 5 -1 23q7 18 27 42q65 82 95 113q43 46 80 74q35 28 68 36q28 8 46 8q14 0 37 -4q32 -4 30 -4q8 10 19 27q3 7 7.5 15l9.5 17q10 19 20 41q8 18 19 55q9 31 12 75q3 45 3 83q0 126 25 195l82 194q5 7 8 7
q4 1 6 3q6 0 6 -16q0 -19 -4 -35l-9 -41t-6 -34q-6 -28 -10 -84l-6 -55l-6 -58q-7 -68 -11 -86t-25 -86q-11 -32 -11 -35zM662 1016q0 22 37.5 95.5t48.5 73.5q22 9 64 -33.5t45 -66.5q0 -32 -35 -92t-51 -60q-6 3 -41.5 26.5l-52.5 35.5q-15 10 -15 21z" />
    <glyph glyph-name="GhafHa" unicode="&#xfed7;&#xfeea;" horiz-adv-x="629" 
d="M128 137q36 42 74 68q53 35 104 35q27 0 55 -7q25 -6 31 -6q50 0 96 29q45 28 45 51q0 10 -26 33l-15 12q-13 -8 -16 -8q-22 -10 -39 -10q-37 0 -59 18q-23 18 -23 57q0 4 53 129q13 31 34 59q18 21 38 21q52 0 101 -50q48 -51 48 -132q0 -65 -38 -156q-35 -78 -71 -130
q-43 -60 -89 -99q-63 -51 -127 -51q-25 0 -59 12q-34 13 -60 13q-36 0 -69 -19q-23 -13 -49 -38q-29 -26 -41 -17q-11 6 -11 16q0 14 17 39q19 30 46 66q37 51 50 65zM326 1014q0 13 41 90t50 77q17 7 49.5 -24.5t49.5 -55.5l44.5 74t32.5 41q25 0 59.5 -36.5t36.5 -68.5
q0 -38 -37 -90q-36 -51 -53 -51q-11 0 -40 29t-51 45q-54 -109 -86 -109q-8 0 -23 13l-43.5 36t-29.5 30z" />
    <glyph glyph-name="TeHa" unicode="&#xfe97;&#xfeea;" horiz-adv-x="456" 
d="M146 164q19 17 47 30q23 12 47 11q38 -7 64 -7q32 -2 56 10q23 10 37 34l12.5 18.5l17 24t17.5 14.5q9 0 9 -16q0 -38 -45 -125q-24 -51 -52 -84q-41 -47 -94 -66q-14 -6 -43 -6q-6 0 -38 4q-23 4 -37 4q-43 0 -83 -34q-8 -8 -29 -24q-13 -11 -22 -9q-10 4 1 35
q11 28 31 61q28 41 54 73q23 30 50 52zM132 733q0 13 41 90t50 77q17 7 49.5 -24.5t49.5 -55.5l44.5 74t32.5 41q25 0 59.5 -36.5t36.5 -68.5q0 -38 -37 -90q-36 -51 -53 -51q-11 0 -40 29t-51 45q-54 -109 -86 -109q-8 0 -23 13l-43.5 36t-29.5 30z" />
    <glyph glyph-name="SeHa" unicode="&#xfe9b;&#xfeea;" horiz-adv-x="456" 
d="M146 164q19 17 47 30q23 12 47 11q38 -7 64 -7q32 -2 56 10q23 10 37 34l12.5 18.5l17 24t17.5 14.5q9 0 9 -16q0 -38 -45 -125q-24 -51 -52 -84q-41 -47 -94 -66q-14 -6 -43 -6q-6 0 -38 4q-23 4 -37 4q-43 0 -83 -34q-8 -8 -29 -24q-13 -11 -22 -9q-10 4 1 35
q11 28 31 61q28 41 54 73q23 30 50 52zM150 756q0 12 42.5 91t52.5 79q16 0 50.5 -29t46.5 -55l42 70q29 48 36 48q24 0 61 -34q36 -38 36 -70q0 -37 -36 -92q-37 -53 -53 -53q-13 0 -37 25q-33 35 -55 51q-55 -112 -86 -112q-7 0 -53.5 37t-46.5 44zM241 1004
q0 10 37.5 88.5t48.5 78.5q28 0 62 -34q34 -38 34 -73q0 -33 -31.5 -91t-46.5 -58q-9 0 -40 27.5t-47.5 39.5t-16.5 22z" />
    <glyph glyph-name="PeHa" unicode="&#xfb58;&#xfeea;" horiz-adv-x="456" 
d="M146 164q19 17 47 30q23 12 47 11q38 -7 64 -7q32 -2 56 10q23 10 37 34l12.5 18.5l17 24t17.5 14.5q9 0 9 -16q0 -38 -45 -125q-24 -51 -52 -84q-41 -47 -94 -66q-14 -6 -43 -6q-6 0 -38 4q-23 4 -37 4q-43 0 -83 -34q-8 -8 -29 -24q-13 -11 -22 -9q-10 4 1 35
q11 28 31 61q28 41 54 73q23 30 50 52zM53 -710q0 -7 44 -44t51 -37q30 0 82 112q21 -16 53 -51q23 -25 35 -25q16 0 50 53q35 55 35 92q0 32 -35 71q-34 34 -57 34q-7 0 -35 -49l-40 -69q-11 25 -44 54.5t-49 29.5q-9 0 -49.5 -79.5t-40.5 -91.5zM147 -897q0 -9 13.5 -21
l26.5 -23l31 -32q11 -14 19 -15q12 0 44 49q31 51 33 86q2 32 -26.5 67t-52.5 37q-9 1 -48 -68.5t-40 -79.5z" />
    <glyph glyph-name="NeHa" unicode="&#xfee7;&#xfeea;" horiz-adv-x="456" 
d="M146 164q19 17 47 30q23 12 47 11q38 -7 64 -7q32 -2 56 10q23 10 37 34l12.5 18.5l17 24t17.5 14.5q9 0 9 -16q0 -38 -45 -125q-24 -51 -52 -84q-41 -47 -94 -66q-14 -6 -43 -6q-6 0 -38 4q-23 4 -37 4q-43 0 -83 -34q-8 -8 -29 -24q-13 -11 -22 -9q-10 4 1 35
q11 28 31 61q28 41 54 73q23 30 50 52zM240 672q0 22 37.5 95.5t48.5 73.5q22 9 64 -33.5t45 -66.5q0 -32 -35 -92t-51 -60q-6 3 -41.5 26.5l-52.5 35.5q-15 10 -15 21z" />
    <glyph glyph-name="YeHa" unicode="&#xfbfe;&#xfeea;" horiz-adv-x="456" 
d="M146 164q19 17 47 30q23 12 47 11q38 -7 64 -7q32 -2 56 10q23 10 37 34l12.5 18.5l17 24t17.5 14.5q9 0 9 -16q0 -38 -45 -125q-24 -51 -52 -84q-41 -47 -94 -66q-14 -6 -43 -6q-6 0 -38 4q-23 4 -37 4q-43 0 -83 -34q-8 -8 -29 -24q-13 -11 -22 -9q-10 4 1 35
q11 28 31 61q28 41 54 73q23 30 50 52zM53 -726q0 -6 29.5 -30l43.5 -36q15 -13 23 -13q32 0 86 109q22 -16 51 -45t40 -29q17 0 53 51q37 52 37 90q-2 32 -36.5 68.5t-59.5 36.5q-8 0 -32.5 -41l-44.5 -74q-17 24 -49.5 55.5t-49.5 24.5q-9 0 -50 -77t-41 -90z" />
    <glyph glyph-name="EeHa" unicode="&#xfe8b;&#xfeea;" horiz-adv-x="456" 
d="M146 164q19 17 47 30q23 12 47 11q38 -7 64 -7q32 -2 56 10q23 10 37 34l12.5 18.5l17 24t17.5 14.5q9 0 9 -16q0 -38 -45 -125q-24 -51 -52 -84q-41 -47 -94 -66q-14 -6 -43 -6q-6 0 -38 4q-23 4 -37 4q-43 0 -83 -34q-8 -8 -29 -24q-13 -11 -22 -9q-10 4 1 35
q11 28 31 61q28 41 54 73q23 30 50 52zM262 649q-15 -11 -19.5 -10.5t-0.5 10t17 24.5l28 32l6 6v2q-15 6 -31 15.5t-15 15.5q1 16 51 65q27 30 28 30q22 17 42 15q11 -1 20 -9t8 -20q-1 -8 -7.5 -14.5t-14.5 -5.5q-2 0 -10 5.5t-19 6.5q-10 1 -23 -7.5t-13 -13.5
q-1 -13 13.5 -21.5t33.5 -10.5q12 -2 38 8q17 6 39 18q4 3 7 1t3 -5q-1 -8 -52.5 -39t-88.5 -64.5t-40 -33.5z" />
    <glyph glyph-name="KheHa" unicode="&#xfea7;&#xfeea;" horiz-adv-x="755" 
d="M739 424q0 -21 -14 -47q-11 -26 -22 -36q-9 -8 -21 -15q-31 -24 -51 -41q-36 -39 -57 -64l-35 -47q-58 -77 -96 -110q-72 -64 -152 -64q-19 0 -57 13q-35 14 -47 14q-29 3 -58 -11q-28 -13 -70 -45q-40 -30 -50 -30q-9 0 -6 14q2 12 25 49l24 33.5l23 32.5q28 35 58 65
q34 35 82 64q48 28 84 28q12 0 48 -12q18 -6 38 -6q68 0 125 50q58 50 58 69q-21 11 -37.5 18.5t-28.5 13.5q-23 11 -43 11q-23 0 -47 -17q-8 -6 -30 -31q-18 -24 -29 -18q-6 1 -2 15q3 12 12 28q30 50 45 65q39 41 80 41q21 0 77 -23q60 -24 82 -24q21 0 32 5q6 3 26 15
q14 9 22 9q12 0 12 -12zM464 924q0 22 37.5 95.5t48.5 73.5q22 9 64 -33.5t45 -66.5q0 -32 -35 -92t-51 -60q-6 3 -41.5 26.5l-52.5 35.5q-15 10 -15 21z" />
    <glyph glyph-name="JimHa" unicode="&#xfe9f;&#xfeea;" horiz-adv-x="755" 
d="M739 424q0 -21 -14 -47q-11 -26 -22 -36q-9 -8 -21 -15q-31 -24 -51 -41q-36 -39 -57 -64l-35 -47q-58 -77 -96 -110q-72 -64 -152 -64q-19 0 -57 13q-35 14 -47 14q-29 3 -58 -11q-28 -13 -70 -45q-40 -30 -50 -30q-9 0 -6 14q2 12 25 49l24 33.5l23 32.5q28 35 58 65
q34 35 82 64q48 28 84 28q12 0 48 -12q18 -6 38 -6q68 0 125 50q58 50 58 69q-21 11 -37.5 18.5t-28.5 13.5q-23 11 -43 11q-23 0 -47 -17q-8 -6 -30 -31q-18 -24 -29 -18q-6 1 -2 15q3 12 12 28q30 50 45 65q39 41 80 41q21 0 77 -23q60 -24 82 -24q21 0 32 5q6 3 26 15
q14 9 22 9q12 0 12 -12zM258 -677q0 -11 15 -21l52.5 -35.5t41.5 -26.5q16 0 51 60t35 92q-3 24 -45 66.5t-64 33.5q-11 0 -48.5 -73.5t-37.5 -95.5z" />
    <glyph glyph-name="CheHa" unicode="&#xfb7c;&#xfeea;" horiz-adv-x="755" 
d="M739 424q0 -21 -14 -47q-11 -26 -22 -36q-9 -8 -21 -15q-31 -24 -51 -41q-36 -39 -57 -64l-35 -47q-58 -77 -96 -110q-72 -64 -152 -64q-19 0 -57 13q-35 14 -47 14q-29 3 -58 -11q-28 -13 -70 -45q-40 -30 -50 -30q-9 0 -6 14q2 12 25 49l24 33.5l23 32.5q28 35 58 65
q34 35 82 64q48 28 84 28q12 0 48 -12q18 -6 38 -6q68 0 125 50q58 50 58 69q-21 11 -37.5 18.5t-28.5 13.5q-23 11 -43 11q-23 0 -47 -17q-8 -6 -30 -31q-18 -24 -29 -18q-6 1 -2 15q3 12 12 28q30 50 45 65q39 41 80 41q21 0 77 -23q60 -24 82 -24q21 0 32 5q6 3 26 15
q14 9 22 9q12 0 12 -12zM210 -680q0 -7 44 -44t51 -37q30 0 82 112q21 -16 53 -51q23 -25 35 -25q16 0 50 53q35 55 35 92q0 32 -35 71q-34 34 -57 34q-7 0 -35 -49l-40 -69q-11 25 -44 54.5t-49 29.5q-9 0 -49.5 -79.5t-40.5 -91.5zM304 -867q0 -9 13.5 -21l26.5 -23
l31 -32q11 -14 19 -15q12 0 44 49q31 51 33 86q2 32 -26.5 67t-52.5 37q-9 1 -48 -68.5t-40 -79.5z" />
    <glyph glyph-name="GafHa" unicode="&#xfb94;&#xfeea;" horiz-adv-x="591" 
d="M646 1146q42 45 192 167l131 104.5l131 106.5q90 74 180 158q62 56 161 155q154 146 154 152q0 -11 -4 -19q-5 -27 -39 -86q-32 -56 -55 -86t-71 -85q-50 -54 -60 -64q-15 -15 -41 -39l-64 -57q-42 -39 -165 -143q-74 -63 -139 -113l-81.5 -63.5l-82.5 -61.5l-141 -110
q-34 -29 -59 -46q-28 -22 -31 -15q20 50 37 81q19 35 47 64zM561 958l-8 -154q-3 -69 -6 -153q0 -42 -1 -83.5t-1 -82.5q0 -69 -18 -144q-19 -75 -45 -132q-37 -82 -80 -133q-66 -78 -141 -78q-18 0 -47 10q-28 11 -45 11q-31 0 -64 -17q-10 -6 -39 -26l-27 -24
q-13 -11 -24 -5q-10 5 2 33q3 6 7.5 12.5t8.5 15.5q22 40 54 80q17 20 28.5 35.5l18.5 25.5q23 29 61 52q39 20 66 20q17 0 43 -7q27 -7 36 -7q49 4 76 27q28 24 39 55q7 14 8 32q2 13 2 43v20.5v22.5q-2 12 -2 19l-2 190q0 61 3 114q3 50 11 71q9 19 30 81q21 59 42 106
q9 10 13 9q6 -3 6 -17q0 -4 -5 -22zM1502 1999q7 1 5 -5t-8.5 -17t-17.5 -25.5l-22 -29.5q-105 -106 -222 -199q-10 -1 11 34q24 34 122 128t132 114z" />
    <glyph glyph-name="HaHa" unicode="&#x6be;&#xfeea;" horiz-adv-x="867" 
d="M696 8l-41 -83q-59 -102 -59 -160q0 -6 32 -21q32 -14 32 -55q0 -29 -18 -54q-17 -25 -42 -25q-26 0 -38 24q-11 26 -11 55q0 73 61 198q62 125 84 121zM867 422q0 -37 -26 -82q-32 -55 -80 -55q-14 0 -25 6q-28 18 -47 18q-41 0 -74 -61q-15 -31 -31.5 -61l-31.5 -60
q-83 -127 -192 -127q-21 0 -45 8q-51 19 -72 19q-40 0 -78 -19q-39 -19 -65 -42q-29 -25 -39 -28q-11 -6 -23 -1q-9 10 37 73q41 55 104 119q34 34 74 65q66 48 109 48q17 0 49 -7q35 -6 49 -6q69 0 110 58l31.5 56.5t18.5 36.5q13 26 34 48q34 35 62 35q17 0 35 -15
q23 -16 28 -20q10 15 22 43q11 24 15 24q23 0 37 -22q14 -24 14 -51z" />
    <glyph glyph-name="Ein_Re" unicode="&#xfecb;&#xfeae;" horiz-adv-x="757" 
d="M754 645q-4 -16 -19.5 -33.5t-29.5 -31.5q-6 -7 -18.5 -16t-26.5 -17l-119 -78l-71 -43q-48 -29 -64 -46.5t-32.5 -43t-26.5 -55.5q-41 -101 -76 -154q-43 -64 -96 -90q-31 -17 -82.5 -28t-106.5 -11q-16 0 -31.5 3t-15.5 15q0 25 98 84q148 88 168 105q43 33 60 61
q2 4 35 78q18 43 34 70q25 37 62 65q14 10 12 15q-20 10 -41.5 23t-21.5 36q0 20 41 78q18 26 57 74q43 57 74.5 82.5t60.5 25.5t49.5 -22.5t20.5 -42.5q0 -33 -14.5 -43.5t-32.5 -4.5q-15 7 -25 11q-23 10 -37 10q-26 0 -50 -25.5t-24 -38.5q0 -16 39 -30.5t72 -14.5
q47 0 85 14.5t75 30.5q10 2 16 0t2 -12z" />
    <glyph glyph-name="Ein_Ze" unicode="&#xfecb;&#xfeb0;" horiz-adv-x="693" 
d="M745 645q-4 -16 -19.5 -33.5t-29.5 -31.5q-6 -7 -18.5 -16t-26.5 -17l-119 -78l-71 -43q-48 -29 -64 -46.5t-32.5 -43t-26.5 -55.5q-41 -101 -76 -154q-43 -64 -96 -90q-31 -17 -82.5 -28t-106.5 -11q-16 0 -31.5 3t-15.5 15q0 25 98 84q148 88 168 105q43 33 60 61
q2 4 35 78q18 43 34 70q25 37 62 65q14 10 12 15q-20 10 -41.5 23t-21.5 36q0 20 41 78q18 26 57 74q43 57 74.5 82.5t60.5 25.5t49.5 -22.5t20.5 -42.5q0 -33 -14.5 -43.5t-32.5 -4.5q-15 7 -25 11q-23 10 -37 10q-26 0 -50 -25.5t-24 -38.5q0 -16 39 -30.5t72 -14.5
q47 0 85 14.5t75 30.5q10 2 16 0t2 -12zM110 1097q0 22 37.5 95.5t48.5 73.5q22 9 64 -33.5t45 -66.5q0 -32 -35 -92t-51 -60q-6 3 -41.5 26.5l-52.5 35.5q-15 10 -15 21z" />
    <glyph glyph-name="Ghein_Re" unicode="&#xfecf;&#xfeae;" horiz-adv-x="651" 
d="M748 645q-4 -16 -19.5 -33.5t-29.5 -31.5q-6 -7 -18.5 -16t-26.5 -17l-119 -78l-71 -43q-48 -29 -64 -46.5t-32.5 -43t-26.5 -55.5q-41 -101 -76 -154q-43 -64 -96 -90q-31 -17 -82.5 -28t-106.5 -11q-16 0 -31.5 3t-15.5 15q0 25 98 84q148 88 168 105q43 33 60 61
q2 4 35 78q18 43 34 70q25 37 62 65q14 10 12 15q-20 10 -41.5 23t-21.5 36q0 20 41 78q18 26 57 74q43 57 74.5 82.5t60.5 25.5t49.5 -22.5t20.5 -42.5q0 -33 -14.5 -43.5t-32.5 -4.5q-15 7 -25 11q-23 10 -37 10q-26 0 -50 -25.5t-24 -38.5q0 -16 39 -30.5t72 -14.5
q47 0 85 14.5t75 30.5q10 2 16 0t2 -12zM437 1238q0 22 37.5 95.5t48.5 73.5q22 9 64 -33.5t45 -66.5q0 -32 -35 -92t-51 -60q-6 3 -41.5 26.5l-52.5 35.5q-15 10 -15 21z" />
    <glyph glyph-name="Ghein_Ze" unicode="&#xfecf;&#xfeb0;" horiz-adv-x="660" 
d="M743 645q-4 -16 -19.5 -33.5t-29.5 -31.5q-6 -7 -18.5 -16t-26.5 -17l-119 -78l-71 -43q-48 -29 -64 -46.5t-32.5 -43t-26.5 -55.5q-41 -101 -76 -154q-43 -64 -96 -90q-31 -17 -82.5 -28t-106.5 -11q-16 0 -31.5 3t-15.5 15q0 25 98 84q148 88 168 105q43 33 60 61
q2 4 35 78q18 43 34 70q25 37 62 65q14 10 12 15q-20 10 -41.5 23t-21.5 36q0 20 41 78q18 26 57 74q43 57 74.5 82.5t60.5 25.5t49.5 -22.5t20.5 -42.5q0 -33 -14.5 -43.5t-32.5 -4.5q-15 7 -25 11q-23 10 -37 10q-26 0 -50 -25.5t-24 -38.5q0 -16 39 -30.5t72 -14.5
q47 0 85 14.5t75 30.5q10 2 16 0t2 -12zM192 1116q0 22 37.5 95.5t48.5 73.5q22 9 64 -33.5t45 -66.5q0 -32 -35 -92t-51 -60q-6 3 -41.5 26.5l-52.5 35.5q-15 10 -15 21zM521 1390q0 22 37.5 95.5t48.5 73.5q22 9 64 -33.5t45 -66.5q0 -32 -35 -92t-51 -60q-6 3 -41.5 26.5
l-52.5 35.5q-15 10 -15 21z" />
    <glyph glyph-name="Ein_Zh" unicode="&#xfecb;&#xfb8b;" horiz-adv-x="691" 
d="M762 645q-4 -16 -19.5 -33.5t-29.5 -31.5q-6 -7 -18.5 -16t-26.5 -17l-119 -78l-71 -43q-48 -29 -64 -46.5t-32.5 -43t-26.5 -55.5q-41 -101 -76 -154q-43 -64 -96 -90q-31 -17 -82.5 -28t-106.5 -11q-16 0 -31.5 3t-15.5 15q0 25 98 84q148 88 168 105q43 33 60 61
q2 4 35 78q18 43 34 70q25 37 62 65q14 10 12 15q-20 10 -41.5 23t-21.5 36q0 20 41 78q18 26 57 74q43 57 74.5 82.5t60.5 25.5t49.5 -22.5t20.5 -42.5q0 -33 -14.5 -43.5t-32.5 -4.5q-15 7 -25 11q-23 10 -37 10q-26 0 -50 -25.5t-24 -38.5q0 -16 39 -30.5t72 -14.5
q47 0 85 14.5t75 30.5q10 2 16 0t2 -12zM175 1148q0 12 42.5 91t52.5 79q16 0 50.5 -29t46.5 -55l42 70q29 48 36 48q24 0 61 -34q36 -38 36 -70q0 -37 -36 -92q-37 -53 -53 -53q-13 0 -37 25q-33 35 -55 51q-55 -112 -86 -112q-7 0 -53.5 37t-46.5 44zM266 1396
q0 10 37.5 88.5t48.5 78.5q28 0 62 -34q34 -38 34 -73q0 -33 -31.5 -91t-46.5 -58q-9 0 -40 27.5t-47.5 39.5t-16.5 22z" />
    <glyph glyph-name="Ghein_Zh" unicode="&#xfecf;&#xfb8b;" horiz-adv-x="783" 
d="M831 645q-4 -16 -19.5 -33.5t-29.5 -31.5q-6 -7 -18.5 -16t-26.5 -17l-119 -78l-71 -43q-48 -29 -64 -46.5t-32.5 -43t-26.5 -55.5q-41 -101 -76 -154q-43 -64 -96 -90q-31 -17 -82.5 -28t-106.5 -11q-16 0 -31.5 3t-15.5 15q0 25 98 84q148 88 168 105q43 33 60 61
q2 4 35 78q18 43 34 70q25 37 62 65q14 10 12 15q-20 10 -41.5 23t-21.5 36q0 20 41 78q18 26 57 74q43 57 74.5 82.5t60.5 25.5t49.5 -22.5t20.5 -42.5q0 -33 -14.5 -43.5t-32.5 -4.5q-15 7 -25 11q-23 10 -37 10q-26 0 -50 -25.5t-24 -38.5q0 -16 39 -30.5t72 -14.5
q47 0 85 14.5t75 30.5q10 2 16 0t2 -12zM160 1064q0 12 42.5 91t52.5 79q16 0 50.5 -29t46.5 -55l42 70q29 48 36 48q24 0 61 -34q36 -38 36 -70q0 -37 -36 -92q-37 -53 -53 -53q-13 0 -37 25q-33 35 -55 51q-55 -112 -86 -112q-7 0 -53.5 37t-46.5 44zM251 1312
q0 10 37.5 88.5t48.5 78.5q28 0 62 -34q34 -38 34 -73q0 -33 -31.5 -91t-46.5 -58q-9 0 -40 27.5t-47.5 39.5t-16.5 22zM629 1371q0 22 37.5 95.5t48.5 73.5q22 9 64 -33.5t45 -66.5q0 -32 -35 -92t-51 -60q-6 3 -41.5 26.5l-52.5 35.5q-15 10 -15 21z" />
    <glyph glyph-name="He_Re" unicode="&#x6be;&#xfeae;" horiz-adv-x="736" 
d="M750 578q0 16 -27 33.5t-59 17.5q-15 0 -23 -13.5t-8 -25.5q0 -10 1 -19.5t5 -15.5l68 -4q18 -2 30.5 5t12.5 22zM600 594q0 18 -25.5 35.5t-52.5 17.5q-18 0 -42.5 -22.5t-24.5 -44.5q0 -21 9 -33t40 -12q47 0 71.5 21.5t24.5 37.5zM64 121q36 16 75 41.5t70 53.5
t60.5 89.5t48.5 87.5q28 41 112 84q-16 12 -16 49q0 21 16.5 65t44.5 95q13 39 19 64q14 49 24 49q25 -21 66 -46.5t106.5 -38t88 -35t22.5 -58.5q0 -54 -34 -96t-71 -42l-41 2q-49 0 -61 -11t-32.5 -33.5t-34 -31t-36 -20.5t-36.5 -18q-76 -33 -115 -72q-27 -27 -50.5 -73
l-49 -94t-37.5 -64q-23 -23 -88.5 -44.5t-143.5 -21.5q-12 -2 -23 0t-22 6q0 17 39 47.5t99 65.5z" />
    <glyph glyph-name="He_Ze" unicode="&#x6be;&#xfeb0;" horiz-adv-x="775" 
d="M797 578q0 16 -27 33.5t-59 17.5q-15 0 -23 -13.5t-8 -25.5q0 -10 1 -19.5t5 -15.5l68 -4q18 -2 30.5 5t12.5 22zM647 594q0 18 -25.5 35.5t-52.5 17.5q-18 0 -42.5 -22.5t-24.5 -44.5q0 -21 9 -33t40 -12q47 0 71.5 21.5t24.5 37.5zM111 121q36 16 75 41.5t70 53.5
t60.5 89.5t48.5 87.5q28 41 112 84q-16 12 -16 49q0 21 16.5 65t44.5 95q13 39 19 64q14 49 24 49q25 -21 66 -46.5t106.5 -38t88 -35t22.5 -58.5q0 -54 -34 -96t-71 -42l-41 2q-49 0 -61 -11t-32.5 -33.5t-34 -31t-36 -20.5t-36.5 -18q-76 -33 -115 -72q-27 -27 -50.5 -73
l-49 -94t-37.5 -64q-23 -23 -88.5 -44.5t-143.5 -21.5q-12 -2 -23 0t-22 6q0 17 39 47.5t99 65.5zM310 1048q0 22 37.5 95.5t48.5 73.5q22 9 64 -33.5t45 -66.5q0 -32 -35 -92t-51 -60q-6 3 -41.5 26.5l-52.5 35.5q-15 10 -15 21z" />
    <glyph glyph-name="He_Zh" unicode="&#x6be;&#xfb8b;" horiz-adv-x="790" 
d="M811 578q0 16 -27 33.5t-59 17.5q-15 0 -23 -13.5t-8 -25.5q0 -10 1 -19.5t5 -15.5l68 -4q18 -2 30.5 5t12.5 22zM661 594q0 18 -25.5 35.5t-52.5 17.5q-18 0 -42.5 -22.5t-24.5 -44.5q0 -21 9 -33t40 -12q47 0 71.5 21.5t24.5 37.5zM125 121q36 16 75 41.5t70 53.5
t60.5 89.5t48.5 87.5q28 41 112 84q-16 12 -16 49q0 21 16.5 65t44.5 95q13 39 19 64q14 49 24 49q25 -21 66 -46.5t106.5 -38t88 -35t22.5 -58.5q0 -54 -34 -96t-71 -42l-41 2q-49 0 -61 -11t-32.5 -33.5t-34 -31t-36 -20.5t-36.5 -18q-76 -33 -115 -72q-27 -27 -50.5 -73
l-49 -94t-37.5 -64q-23 -23 -88.5 -44.5t-143.5 -21.5q-12 -2 -23 0t-22 6q0 17 39 47.5t99 65.5zM226 1104q0 12 42.5 91t52.5 79q16 0 50.5 -29t46.5 -55l42 70q29 48 36 48q24 0 61 -34q36 -38 36 -70q0 -37 -36 -92q-37 -53 -53 -53q-13 0 -37 25q-33 35 -55 51
q-55 -112 -86 -112q-7 0 -53.5 37t-46.5 44zM317 1352q0 10 37.5 88.5t48.5 78.5q28 0 62 -34q34 -38 34 -73q0 -33 -31.5 -91t-46.5 -58q-9 0 -40 27.5t-47.5 39.5t-16.5 22z" />
    <glyph glyph-name="Be_Re" unicode="&#xfe91;&#xfeae;" horiz-adv-x="536" 
d="M594 620q-50 -178 -112 -209q-87 -42 -106 -56q-19 -15 -25 -23q-20 -28 -39 -72q-33 -84 -53 -129q-33 -69 -98 -98q-31 -12 -82 -21q-53 -11 -83 -11q-26 -3 -33 12q-2 9 20 25l55 40q5 5 72 47q52 35 49 33q58 46 80 72q7 9 47 100q41 91 62 118q21 28 66 57l59 31
q37 18 52 31q14 12 36 52q22 39 31 38q9 -3 2 -37zM313 -644q0 -11 15 -21l52.5 -35.5t41.5 -26.5q16 0 51 60t35 92q-3 24 -45 66.5t-64 33.5q-11 0 -48.5 -73.5t-37.5 -95.5z" />
    <glyph glyph-name="Be_Ze" unicode="&#xfe91;&#xfeb0;" horiz-adv-x="538" 
d="M572 615q-50 -178 -112 -209q-87 -42 -106 -56q-19 -15 -25 -23q-20 -28 -39 -72q-33 -84 -53 -129q-33 -69 -98 -98q-31 -12 -82 -21q-53 -11 -83 -11q-26 -3 -33 12q-2 9 20 25l55 40q5 5 72 47q52 35 49 33q58 46 80 72q7 9 47 100q41 91 62 118q21 28 66 57l59 31
q37 18 52 31q14 12 36 52q22 39 31 38q9 -3 2 -37zM254 938q0 22 37.5 95.5t48.5 73.5q22 9 64 -33.5t45 -66.5q0 -32 -35 -92t-51 -60q-6 3 -41.5 26.5l-52.5 35.5q-15 10 -15 21zM323 -576q0 22 37.5 95.5t48.5 73.5q22 9 64 -33.5t45 -66.5q0 -32 -35 -92t-51 -60
q-6 3 -41.5 26.5l-52.5 35.5q-15 10 -15 21z" />
    <glyph glyph-name="Be_Zh" unicode="&#xfe91;&#xfb8b;" horiz-adv-x="592" 
d="M625 612q-50 -178 -112 -209q-87 -42 -106 -56q-19 -15 -25 -23q-20 -28 -39 -72q-33 -84 -53 -129q-33 -69 -98 -98q-31 -12 -82 -21q-53 -11 -83 -11q-26 -3 -33 12q-2 9 20 25l55 40q5 5 72 47q52 35 49 33q58 46 80 72q7 9 47 100q41 91 62 118q21 28 66 57l59 31
q37 18 52 31q14 12 36 52q22 39 31 38q9 -3 2 -37zM159 886q0 12 42.5 91t52.5 79q16 0 50.5 -29t46.5 -55l42 70q29 48 36 48q24 0 61 -34q36 -38 36 -70q0 -37 -36 -92q-37 -53 -53 -53q-13 0 -37 25q-33 35 -55 51q-55 -112 -86 -112q-7 0 -53.5 37t-46.5 44zM250 1134
q0 10 37.5 88.5t48.5 78.5q28 0 62 -34q34 -38 34 -73q0 -33 -31.5 -91t-46.5 -58q-9 0 -40 27.5t-47.5 39.5t-16.5 22zM345 -643q0 22 37.5 95.5t48.5 73.5q22 9 64 -33.5t45 -66.5q0 -32 -35 -92t-51 -60q-6 3 -41.5 26.5l-52.5 35.5q-15 10 -15 21z" />
    <glyph glyph-name="Te_Re" unicode="&#xfe97;&#xfeae;" horiz-adv-x="603" 
d="M614 616q-50 -178 -112 -209q-87 -42 -106 -56q-19 -15 -25 -23q-20 -28 -39 -72q-33 -84 -53 -129q-33 -69 -98 -98q-31 -12 -82 -21q-53 -11 -83 -11q-26 -3 -33 12q-2 9 20 25l55 40q5 5 72 47q52 35 49 33q58 46 80 72q7 9 47 100q41 91 62 118q21 28 66 57l59 31
q37 18 52 31q14 12 36 52q22 39 31 38q9 -3 2 -37zM422 1080q0 13 41 90t50 77q17 7 49.5 -24.5t49.5 -55.5l44.5 74t32.5 41q25 0 59.5 -36.5t36.5 -68.5q0 -38 -37 -90q-36 -51 -53 -51q-11 0 -40 29t-51 45q-54 -109 -86 -109q-8 0 -23 13l-43.5 36t-29.5 30z" />
    <glyph glyph-name="Te_Ze" unicode="&#xfe97;&#xfeb0;" horiz-adv-x="667" 
d="M630 621q-50 -178 -112 -209q-87 -42 -106 -56q-19 -15 -25 -23q-20 -28 -39 -72q-33 -84 -53 -129q-33 -69 -98 -98q-31 -12 -82 -21q-53 -11 -83 -11q-26 -3 -33 12q-2 9 20 25l55 40q5 5 72 47q52 35 49 33q58 46 80 72q7 9 47 100q41 91 62 118q21 28 66 57l59 31
q37 18 52 31q14 12 36 52q22 39 31 38q9 -3 2 -37zM324 984q0 22 37.5 95.5t48.5 73.5q22 9 64 -33.5t45 -66.5q0 -32 -35 -92t-51 -60q-6 3 -41.5 26.5l-52.5 35.5q-15 10 -15 21zM544 1309q0 13 41 90t50 77q17 7 49.5 -24.5t49.5 -55.5l44.5 74t32.5 41q25 0 59.5 -36.5
t36.5 -68.5q0 -38 -37 -90q-36 -51 -53 -51q-11 0 -40 29t-51 45q-54 -109 -86 -109q-8 0 -23 13l-43.5 36t-29.5 30z" />
    <glyph glyph-name="Te_Zh" unicode="&#xfe97;&#xfb8b;" horiz-adv-x="701" 
d="M641 609q-50 -178 -112 -209q-87 -42 -106 -56q-19 -15 -25 -23q-20 -28 -39 -72q-33 -84 -53 -129q-33 -69 -98 -98q-31 -12 -82 -21q-53 -11 -83 -11q-26 -3 -33 12q-2 9 20 25l55 40q5 5 72 47q52 35 49 33q58 46 80 72q7 9 47 100q41 91 62 118q21 28 66 57l59 31
q37 18 52 31q14 12 36 52q22 39 31 38q9 -3 2 -37zM199 875q0 12 39.5 89.5t48.5 77.5q15 0 47 -28.5t43 -54.5l39 69q27 48 33 48q23 0 57 -34q33 -37 33 -69q0 -36 -33 -90q-34 -52 -49 -52q-12 0 -35 24q-30 35 -51 50q-50 -110 -79 -110q-7 0 -50 36.5t-43 43.5z
M283 1119q0 10 35 87t45 77q26 0 58 -33q31 -38 31 -72q0 -33 -29 -90t-43 -57q-9 0 -37.5 27t-44 39t-15.5 22zM559 1301q0 12 38.5 81t46.5 69q16 6 46 -22t46 -50l41.5 66.5t30.5 36.5q23 0 55 -32.5t34 -61.5q0 -34 -34 -81q-34 -45 -50 -45q-10 0 -37 26t-47 40
q-51 -98 -80 -98q-8 0 -22 12q-13 11 -40.5 32.5t-27.5 26.5z" />
    <glyph glyph-name="Ne_Re" unicode="&#xfee7;&#xfeae;" horiz-adv-x="574" 
d="M580 618q-50 -178 -112 -209q-87 -42 -106 -56q-19 -15 -25 -23q-20 -28 -39 -72q-33 -84 -53 -129q-33 -69 -98 -98q-31 -12 -82 -21q-53 -11 -83 -11q-26 -3 -33 12q-2 9 20 25l55 40q5 5 72 47q52 35 49 33q58 46 80 72q7 9 47 100q41 91 62 118q21 28 66 57l59 31
q37 18 52 31q14 12 36 52q22 39 31 38q9 -3 2 -37zM457 1101q0 22 37.5 95.5t48.5 73.5q22 9 64 -33.5t45 -66.5q0 -32 -35 -92t-51 -60q-6 3 -41.5 26.5l-52.5 35.5q-15 10 -15 21z" />
    <glyph glyph-name="Ne_Ze" unicode="&#xfee7;&#xfeb0;" horiz-adv-x="620" 
d="M604 621q-50 -178 -112 -209q-87 -42 -106 -56q-19 -15 -25 -23q-20 -28 -39 -72q-33 -84 -53 -129q-33 -69 -98 -98q-31 -12 -82 -21q-53 -11 -83 -11q-26 -3 -33 12q-2 9 20 25l55 40q5 5 72 47q52 35 49 33q58 46 80 72q7 9 47 100q41 91 62 118q21 28 66 57l59 31
q37 18 52 31q14 12 36 52q22 39 31 38q9 -3 2 -37zM283 948q0 22 37.5 95.5t48.5 73.5q22 9 64 -33.5t45 -66.5q0 -32 -35 -92t-51 -60q-6 3 -41.5 26.5l-52.5 35.5q-15 10 -15 21zM521 1211q0 22 37.5 95.5t48.5 73.5q22 9 64 -33.5t45 -66.5q0 -32 -35 -92t-51 -60
q-6 3 -41.5 26.5l-52.5 35.5q-15 10 -15 21z" />
    <glyph glyph-name="Ne_Zh" unicode="&#xfee7;&#xfb8b;" horiz-adv-x="575" 
d="M602 613q-50 -178 -112 -209q-87 -42 -106 -56q-19 -15 -25 -23q-20 -28 -39 -72q-33 -84 -53 -129q-33 -69 -98 -98q-31 -12 -82 -21q-53 -11 -83 -11q-26 -3 -33 12q-2 9 20 25l55 40q5 5 72 47q52 35 49 33q58 46 80 72q7 9 47 100q41 91 62 118q21 28 66 57l59 31
q37 18 52 31q14 12 36 52q22 39 31 38q9 -3 2 -37zM94 1024q0 12 42.5 91t52.5 79q16 0 50.5 -29t46.5 -55l42 70q29 48 36 48q24 0 61 -34q36 -38 36 -70q0 -37 -36 -92q-37 -53 -53 -53q-13 0 -37 25q-33 35 -55 51q-55 -112 -86 -112q-7 0 -53.5 37t-46.5 44zM185 1272
q0 10 37.5 88.5t48.5 78.5q28 0 62 -34q34 -38 34 -73q0 -33 -31.5 -91t-46.5 -58q-9 0 -40 27.5t-47.5 39.5t-16.5 22zM577 1334q0 22 37.5 95.5t48.5 73.5q22 9 64 -33.5t45 -66.5q0 -32 -35 -92t-51 -60q-6 3 -41.5 26.5l-52.5 35.5q-15 10 -15 21z" />
    <glyph glyph-name="Se_Re" unicode="&#xfe9b;&#xfeae;" horiz-adv-x="572" 
d="M589 621q-50 -178 -112 -209q-87 -42 -106 -56q-19 -15 -25 -23q-20 -28 -39 -72q-33 -84 -53 -129q-33 -69 -98 -98q-31 -12 -82 -21q-53 -11 -83 -11q-26 -3 -33 12q-2 9 20 25l55 40q5 5 72 47q52 35 49 33q58 46 80 72q7 9 47 100q41 91 62 118q21 28 66 57l59 31
q37 18 52 31q14 12 36 52q22 39 31 38q9 -3 2 -37zM269 996q0 12 42.5 91t52.5 79q16 0 50.5 -29t46.5 -55l42 70q29 48 36 48q24 0 61 -34q36 -38 36 -70q0 -37 -36 -92q-37 -53 -53 -53q-13 0 -37 25q-33 35 -55 51q-55 -112 -86 -112q-7 0 -53.5 37t-46.5 44zM360 1244
q0 10 37.5 88.5t48.5 78.5q28 0 62 -34q34 -38 34 -73q0 -33 -31.5 -91t-46.5 -58q-9 0 -40 27.5t-47.5 39.5t-16.5 22z" />
    <glyph glyph-name="Se_Ze" unicode="&#xfe9b;&#xfeb0;" horiz-adv-x="662" 
d="M645 619q-50 -178 -112 -209q-87 -42 -106 -56q-19 -15 -25 -23q-20 -28 -39 -72q-33 -84 -53 -129q-33 -69 -98 -98q-31 -12 -82 -21q-53 -11 -83 -11q-26 -3 -33 12q-2 9 20 25l55 40q5 5 72 47q52 35 49 33q58 46 80 72q7 9 47 100q41 91 62 118q21 28 66 57l59 31
q37 18 52 31q14 12 36 52q22 39 31 38q9 -3 2 -37zM478 1120q0 12 42.5 91t52.5 79q16 0 50.5 -29t46.5 -55l42 70q29 48 36 48q24 0 61 -34q36 -38 36 -70q0 -37 -36 -92q-37 -53 -53 -53q-13 0 -37 25q-33 35 -55 51q-55 -112 -86 -112q-7 0 -53.5 37t-46.5 44zM569 1368
q0 10 37.5 88.5t48.5 78.5q28 0 62 -34q34 -38 34 -73q0 -33 -31.5 -91t-46.5 -58q-9 0 -40 27.5t-47.5 39.5t-16.5 22zM224 893q0 22 37.5 95.5t48.5 73.5q22 9 64 -33.5t45 -66.5q0 -32 -35 -92t-51 -60q-6 3 -41.5 26.5l-52.5 35.5q-15 10 -15 21z" />
    <glyph glyph-name="Se_Zh" unicode="&#xfe9b;&#xfb8b;" horiz-adv-x="660" 
d="M623 622q-50 -178 -112 -209q-87 -42 -106 -56q-19 -15 -25 -23q-20 -28 -39 -72q-33 -84 -53 -129q-33 -69 -98 -98q-31 -12 -82 -21q-53 -11 -83 -11q-26 -3 -33 12q-2 9 20 25l55 40q5 5 72 47q52 35 49 33q58 46 80 72q7 9 47 100q41 91 62 118q21 28 66 57l59 31
q37 18 52 31q14 12 36 52q22 39 31 38q9 -3 2 -37zM130 886q0 12 42.5 91t52.5 79q16 0 50.5 -29t46.5 -55l42 70q29 48 36 48q24 0 61 -34q36 -38 36 -70q0 -37 -36 -92q-37 -53 -53 -53q-13 0 -37 25q-33 35 -55 51q-55 -112 -86 -112q-7 0 -53.5 37t-46.5 44zM221 1134
q0 10 37.5 88.5t48.5 78.5q28 0 62 -34q34 -38 34 -73q0 -33 -31.5 -91t-46.5 -58q-9 0 -40 27.5t-47.5 39.5t-16.5 22zM500 1306q0 12 42.5 91t52.5 79q16 0 50.5 -29t46.5 -55l42 70q29 48 36 48q24 0 61 -34q36 -38 36 -70q0 -37 -36 -92q-37 -53 -53 -53q-13 0 -37 25
q-33 35 -55 51q-55 -112 -86 -112q-7 0 -53.5 37t-46.5 44zM591 1554q0 10 37.5 88.5t48.5 78.5q28 0 62 -34q34 -38 34 -73q0 -33 -31.5 -91t-46.5 -58q-9 0 -40 27.5t-47.5 39.5t-16.5 22z" />
    <glyph glyph-name="Ye_Re" unicode="&#xfef3;&#xfeae;" horiz-adv-x="535" 
d="M573 620q-50 -178 -112 -209q-87 -42 -106 -56q-19 -15 -25 -23q-20 -28 -39 -72q-33 -84 -53 -129q-33 -69 -98 -98q-31 -12 -82 -21q-53 -11 -83 -11q-26 -3 -33 12q-2 9 20 25l34 25.5t93 61.5q52 35 49 33q58 42 80 72q7 9 47 100q41 91 62 118q21 28 66 57l59 31
q37 18 52 31q14 12 36 52q22 39 31 38q9 -3 2 -37zM227 -674q0 -6 29.5 -30l43.5 -36q15 -13 23 -13q32 0 86 109q22 -16 51 -45t40 -29q17 0 53 51q37 52 37 90q-2 32 -36.5 68.5t-59.5 36.5q-8 0 -32.5 -41l-44.5 -74q-17 24 -49.5 55.5t-49.5 24.5q-9 0 -50 -77t-41 -90z
" />
    <glyph glyph-name="Ye_Ze" unicode="&#xfef3;&#xfeb0;" horiz-adv-x="559" 
d="M599 619q-50 -178 -112 -209q-87 -42 -106 -56q-19 -15 -25 -23q-20 -28 -39 -72q-33 -84 -53 -129q-33 -69 -98 -98q-31 -12 -82 -21q-53 -11 -83 -11q-26 -3 -33 12q-2 9 20 25l55 40q5 5 72 47q52 35 49 33q58 46 80 72q7 9 47 100q41 91 62 118q21 28 66 57l59 31
q37 18 52 31q14 12 36 52q22 39 31 38q9 -3 2 -37zM303 1005q0 22 37.5 95.5t48.5 73.5q22 9 64 -33.5t45 -66.5q0 -32 -35 -92t-51 -60q-6 3 -41.5 26.5l-52.5 35.5q-15 10 -15 21zM244 -611q0 13 41 90t50 77q17 7 49.5 -24.5t49.5 -55.5l44.5 74t32.5 41q25 0 59.5 -36.5
t36.5 -68.5q0 -38 -37 -90q-36 -51 -53 -51q-11 0 -40 29t-51 45q-54 -109 -86 -109q-8 0 -23 13l-43.5 36t-29.5 30z" />
    <glyph glyph-name="Ye_Zh" unicode="&#xfef3;&#xfb8b;" horiz-adv-x="596" 
d="M628 619q-50 -178 -112 -209q-87 -42 -106 -56q-19 -15 -25 -23q-20 -28 -39 -72q-33 -84 -53 -129q-33 -69 -98 -98q-31 -12 -82 -21q-53 -11 -83 -11q-26 -3 -33 12q-2 9 20 25l55 40q5 5 72 47q52 35 49 33q58 46 80 72q7 9 47 100q41 91 62 118q21 28 66 57l59 31
q37 18 52 31q14 12 36 52q22 39 31 38q9 -3 2 -37zM178 900q0 12 42.5 91t52.5 79q16 0 50.5 -29t46.5 -55l42 70q29 48 36 48q24 0 61 -34q36 -38 36 -70q0 -37 -36 -92q-37 -53 -53 -53q-13 0 -37 25q-33 35 -55 51q-55 -112 -86 -112q-7 0 -53.5 37t-46.5 44zM269 1148
q0 10 37.5 88.5t48.5 78.5q28 0 62 -34q34 -38 34 -73q0 -33 -31.5 -91t-46.5 -58q-9 0 -40 27.5t-47.5 39.5t-16.5 22zM238 -561q0 13 41 90t50 77q17 7 49.5 -24.5t49.5 -55.5l44.5 74t32.5 41q25 0 59.5 -36.5t36.5 -68.5q0 -38 -37 -90q-36 -51 -53 -51q-11 0 -40 29
t-51 45q-54 -109 -86 -109q-8 0 -23 13l-43.5 36t-29.5 30z" />
    <glyph glyph-name="Pe_Re" unicode="&#xfb58;&#xfeae;" horiz-adv-x="517" 
d="M573 620q-50 -178 -112 -209q-87 -42 -106 -56q-19 -15 -25 -23q-20 -28 -39 -72q-33 -84 -53 -129q-33 -69 -98 -98q-31 -12 -82 -21q-53 -11 -83 -11q-26 -3 -33 12q-2 9 20 25l34 25.5t93 61.5q52 35 49 33q58 42 80 72q7 9 47 100q41 91 62 118q21 28 66 57l59 31
q37 18 52 31q14 12 36 52q22 39 31 38q9 -3 2 -37zM166 -669q0 -7 44 -44t51 -37q30 0 82 112q21 -16 53 -51q23 -25 35 -25q16 0 50 53q35 55 35 92q0 32 -35 71q-34 34 -57 34q-7 0 -35 -49l-40 -69q-11 25 -44 54.5t-49 29.5q-9 0 -49.5 -79.5t-40.5 -91.5zM260 -856
q0 -9 13.5 -21l26.5 -23l31 -32q11 -14 19 -15q12 0 44 49q31 51 33 86q2 32 -26.5 67t-52.5 37q-9 1 -48 -68.5t-40 -79.5z" />
    <glyph glyph-name="Pe_Ze" unicode="&#xfb58;&#xfeb0;" horiz-adv-x="554" 
d="M585 608q-50 -178 -112 -209q-87 -42 -106 -56q-19 -15 -25 -23q-20 -28 -39 -72q-33 -84 -53 -129q-33 -69 -98 -98q-31 -12 -82 -21q-53 -11 -83 -11q-26 -3 -33 12q-2 9 20 25l55 40q5 5 72 47q52 35 49 33q58 46 80 72q7 9 47 100q41 91 62 118q21 28 66 57l59 31
q37 18 52 31q14 12 36 52q22 39 31 38q9 -3 2 -37zM210 -663q0 12 40.5 91.5t49.5 79.5q16 0 49 -29.5t44 -54.5l40 69q28 49 35 49q23 0 57 -34q35 -39 35 -71q0 -37 -35 -92q-34 -53 -50 -53q-12 0 -35 25q-32 35 -53 51q-52 -112 -82 -112q-7 0 -51 37t-44 44zM304 -850
q1 10 40 79.5t48 68.5q24 -2 52.5 -37t26.5 -67q-2 -35 -33 -86q-32 -49 -44 -49q-8 1 -19 15l-31 32l-26.5 23t-13.5 21zM268 1030q0 22 37.5 95.5t48.5 73.5q22 9 64 -33.5t45 -66.5q0 -32 -35 -92t-51 -60q-6 3 -41.5 26.5l-52.5 35.5q-15 10 -15 21z" />
    <glyph glyph-name="Pe_Zh" unicode="&#xfb58;&#xfb8b;" horiz-adv-x="572" 
d="M619 613q-50 -178 -112 -209q-87 -42 -106 -56q-19 -15 -25 -23q-20 -28 -39 -72q-33 -84 -53 -129q-33 -69 -98 -98q-31 -12 -82 -21q-53 -11 -83 -11q-26 -3 -33 12q-2 9 20 25l55 40q5 5 72 47q52 35 49 33q58 46 80 72q7 9 47 100q41 91 62 118q21 28 66 57l59 31
q37 18 52 31q14 12 36 52q22 39 31 38q9 -3 2 -37zM68 896q0 12 42.5 91t52.5 79q16 0 50.5 -29t46.5 -55l42 70q29 48 36 48q24 0 61 -34q36 -38 36 -70q0 -37 -36 -92q-37 -53 -53 -53q-13 0 -37 25q-33 35 -55 51q-55 -112 -86 -112q-7 0 -53.5 37t-46.5 44zM159 1144
q0 10 37.5 88.5t48.5 78.5q28 0 62 -34q34 -38 34 -73q0 -33 -31.5 -91t-46.5 -58q-9 0 -40 27.5t-47.5 39.5t-16.5 22zM215 -678q0 12 40.5 91.5t49.5 79.5q16 0 49 -29.5t44 -54.5l40 69q28 49 35 49q23 0 57 -34q35 -39 35 -71q0 -37 -35 -92q-34 -53 -50 -53
q-12 0 -35 25q-32 35 -53 51q-52 -112 -82 -112q-7 0 -51 37t-44 44zM309 -865q1 10 40 79.5t48 68.5q24 -2 52.5 -37t26.5 -67q-2 -35 -33 -86q-32 -49 -44 -49q-8 1 -19 15l-31 32l-26.5 23t-13.5 21z" />
    <glyph glyph-name="Yaa" unicode="&#xfbfe;&#xfeca;" horiz-adv-x="899" 
d="M605 492q-25 -25 -58 -37q-17 -6 -24 -6q-21 0 -54 11.5t-42 18.5q-17 0 -49 -20q-95 -56 -168 -190q-13 -22 -29 -64q-43 -107 -43 -186q0 -127 86 -202q84 -76 239 -76q121 0 244 66q121 66 209 171l59 79q29 40 41 32q10 -7 -23 -67t-84 -132q-26 -35 -77 -92
q-59 -66 -91 -94q-106 -95 -181 -133q-96 -49 -203 -49q-58 0 -100 12q-100 28 -160 113q-30 46 -44.5 102t-14.5 113q0 67 26 165q26 95 68 184q28 56 53 96q33 55 54 84q22 28 42 51q33 39 96 95q13 13 13 18q0 21 -16 36q-15 15 -39 15q-13 0 -25.5 -4.5t-24.5 -7.5
q-6 4 0 21q8 20 17 30q29 31 70.5 53t84.5 22q45 0 84.5 -22t32.5 -55q-5 -21 -14 -36t-29 -38q-8 -11 4 -14q12 -2 28 1.5t42 19.5q24 17 41 42q18 25 18 50v66q0 24 8 53q14 40 29 73l41 99q1 7 10 16q4 0 4 -21l-2 -71l-4 -86q0 -45 -18 -102q-17 -57 -44 -101
q-41 -63 -83 -102zM432 57q0 -6 29.5 -30l43.5 -36q15 -13 23 -13q32 0 86 109q22 -16 51 -45t40 -29q17 0 53 51q37 52 37 90q-2 32 -36.5 68.5t-59.5 36.5q-8 0 -32.5 -41l-44.5 -74q-17 24 -49.5 55.5t-49.5 24.5q-9 0 -50 -77t-41 -90z" />
    <glyph glyph-name="Ha" unicode="&#x6be;&#xfe8e;" horiz-adv-x="342" 
d="M218 475q-72 -102 -72 -176q0 -33 11.5 -54.5t21.5 -21.5t29 47q10 25 12 25q20 0 39 -33q12 -22 12 -47q0 -68 -43 -135q-49 -80 -113 -80q-41 0 -68.5 38t-27.5 85q0 76 51 178q41 82 117 182q-41 17 -73.5 54.5t-32.5 107.5q0 51 20 139q15 58 21 78q24 76 69 178.5
t60 102.5q11 -1 2 -31q-17 -51 -31 -100l-18.5 -78t-14.5 -103q-1 -47 18 -80.5t87 -39.5h22t10 -13q0 -20 -9 -45.5t-42 -87.5q-24 -41 -47 -76q-4 -6 -10 -14z" />
    <glyph glyph-name="Fik" unicode="&#xfed3;&#xfbff;&#xfb8f;" horiz-adv-x="1939" 
d="M1722 210q-30 5 -45 0q-52 -17 -107 -113q-59 -96 -132 -96q-74 6 -112 67t-39 150q1 51 7 108t12 100q0 7 -2 8q-4 1 -8 -3l-27 -37l-56 -78q-60 -76 -154 -145q-92 -68 -196 -107q-105 -39 -237 -66q-129 -28 -274 -28h-30q-82 0 -144 10q-88 16 -119 55
q-32 38 -34 115q1 66 9 140t28 65q6 0 9 -40t30 -71q56 -61 268 -61q114 0 185 6q334 28 548 162q99 58 157 141q41 59 67 151l28 117q5 21 47 104q12 27 21 45l13 26q5 13 14 14t7 -17q-10 -41 -15 -70q-57 -292 -62 -375q-5 -74 -5 -110q0 -100 49 -145q37 -33 86 -33
q68 0 112 60q33 44 57 63q23 19 44 19q40 -14 59 -12t33 12q15 10 15 35q0 17 -14 36q-14 17 -29 17l-16 -8q-6 -4 -31 -4q-30 0 -59 11q-27 12 -27 38q0 19 10 45q11 29 37 82q17 39 38 71q19 31 35 31q44 0 86 -43q56 -53 56 -135q0 -40 -10 -81q-10 -47 -31 -89
q-31 -59 -66 -101q-35 -40 -61 -40zM1542 1112q50 49 192 168q65 51 278.5 230.5t343 308.5t137.5 135q12 5 7 -15l-49 -89q-26 -46 -58 -86q-36 -46 -71 -85q-50 -54 -118.5 -117.5t-271.5 -229.5l-336.5 -268.5t-137.5 -96.5q-18 3 32 81q23 35 52 64zM1795 983
q0 -11 15 -21l52.5 -35.5t41.5 -26.5q16 0 51 60t35 92q-3 24 -45 66.5t-64 33.5q-11 0 -48.5 -73.5t-37.5 -95.5zM1298 -577q0 -6 29.5 -30l43.5 -36q15 -13 23 -13q32 0 86 109q22 -16 51 -45t40 -29q17 0 53 51q37 52 37 90q-2 32 -36.5 68.5t-59.5 36.5q-8 0 -32.5 -41
l-44.5 -74q-17 24 -49.5 55.5t-49.5 24.5q-9 0 -50 -77t-41 -90z" />
    <glyph glyph-name="Ajab_Keshide" unicode="&#xfecb;&#xfea0;&#x640;&#xfe90;" horiz-adv-x="3221" 
d="M2992 923q-24 -16 -51.5 -31.5t-39.5 -42.5q15 -5 38 -5q36 -2 53 -2q42 0 96 5q41 2 69 10q20 1 25 0q5 -3 -2 -24q-5 -11 -8 -19.5t-6 -14.5q-4 -11 -11 -21q-8 -12 -10 -13q-2 -2 -26 -19q-15 -8 -29 -20l-84 -72l-92 -92v0l-41 -43q-29 -32 -44 -44q-16 -11 -28 -11
q-4 0 -71 31q-33 13 -54 12q-8 -2 -24 -18q-4 -7 -23 -27l-36 -45q-38 -44 -52 -55q-47 -41 -120 -80q-110 -60 -363 -125q-180 -46 -349 -75q-229 -42 -470 -61q-233 -19 -464 -19q-217 0 -372 16q-159 16 -222 51q-50 33 -65 69q-17 37 -23 109q0 47 1 68q2 30 9 28
q103 -62 322 -95q213 -31 586 -31q181 0 395 14q212 15 466 55q155 23 270 53q102 26 236 74q68 23 127 55q72 38 114 80q27 27 43 41q33 27 53 27q5 0 43 -13q16 -6 31 -6q53 0 125 66v-1l116 105l-96 6l-98 4q-24 4 -20 14q1 7 15 32q13 24 15 28q13 21 32 45
q16 19 35 33.5l40 30.5l23.5 17.5l39.5 29.5l54 43q-18 9 -27 19q-16 16 -16 43q0 21 41 73q7 10 38 48q25 31 65 58q36 25 58 25q20 0 40 -15q20 -16 20 -42q0 -49 -37 -41q-7 0 -22 15q-15 16 -32 16q-20 0 -41 -19q-24 -18 -28 -36q0 -17 26 -38q25 -24 72 -24q12 0 39 7
q27 9 57 22l66 35q15 3 0 -21q-17 -32 -43 -63q-17 -19 -43 -31l-154 -70zM873 -563q0 -11 15 -21l52.5 -35.5t41.5 -26.5q16 0 51 60t35 92q-3 24 -45 66.5t-64 33.5q-11 0 -48.5 -73.5t-37.5 -95.5zM2624 -311q0 -11 15 -21l52.5 -35.5t41.5 -26.5q16 0 51 60t35 92
q-3 24 -45 66.5t-64 33.5q-11 0 -48.5 -73.5t-37.5 -95.5z" />
    <glyph glyph-name="Ajam_Keshide" unicode="&#xfecb;&#xfea0;&#x640;&#xfee2;" horiz-adv-x="2873" 
d="M2679 1163q28 -6 61.5 -8t83 -1.5t101.5 7.5q55 6 63 6q35 0 31 -19q-3 -9 -12.5 -32.5t-14.5 -28.5q-42 -25 -51 -33l-149 -117l-53 -42l-67 -54q-90 -71 -142 -106q-172 -125 -270 -184q-136 -85 -256 -137q-235 -103 -464 -160q-190 -49 -387 -65q-14 -2 -83.5 -5
t-222 1t-241.5 26q-7 3 -41 -35l-16 -18t-17 -18q-6 -7 -12 -2q-20 23 -47 49q-44 40 -104 40q-31 0 -47 -4q-55 -14 -107 -65q-36 -37 -56 -111q-18 -72 -34 -212q-23 -207 -34 -454q-9 -242 -9 -433v-87.5t-2 -98.5q-1 -105 -20 -105q-10 0 -14 71q-3 71 -3 214v492
q0 127 8 273q9 136 39 300q17 86 50 153q43 91 112 160q21 18 61 46q41 24 64 34q26 10 41 15q20 5 32 9q11 6 27 33q17 26 25 26q45 -23 75 -30q64 -21 125.5 -32.5t109.5 -18.5t220 -7q236 0 510 55q209 43 382 107q182 67 375 170q126 66 264 155l129 90l139 105
q-30 1 -100.5 2.5t-101.5 10.5q-31 8 -31 25q7 21 20 41q30 50 90 101l90.5 67.5t62.5 49.5q-16 8 -26 19q-17 17 -17 43q0 19 41 74l16 19l23 28q25 31 65 58q36 25 58 25q20 0 40 -15q19 -15 19 -42q0 -49 -37 -41q-6 0 -21 15q-15 16 -32 16q-19 0 -42 -19
q-25 -20 -27 -37q0 -15 25 -37q25 -24 73 -24q12 0 39 7q27 9 57 22l66 35q14 3 0 -21q-21 -37 -43 -63q-15 -17 -43 -31l-154 -70q-63 -34 -126 -74t-136 -98zM1871 -409q0 -11 15 -21l52.5 -35.5t41.5 -26.5q16 0 51 60t35 92q-3 24 -45 66.5t-64 33.5q-11 0 -48.5 -73.5
t-37.5 -95.5z" />
    <glyph glyph-name="Ajz_Keshide" unicode="&#xfecb;&#xfea0;&#x640;&#xfeb0;" horiz-adv-x="2698" 
d="M2592 1017v1v0q-22 -18 -28 -32q38 -7 74 -8q20 0 39.5 -0.5t39.5 -0.5q27 0 92 7q55 6 64 6q34 0 30 -19q-7 -23 -13 -38q-9 -18 -13 -23q-6 -4 -27 -17q-18 -10 -25 -16l-149 -116l-53 -43l-66 -54q-83 -65 -143 -106q-159 -116 -270 -184q-138 -85 -255 -137
q-236 -102 -465 -159q-194 -50 -386 -66q-14 -1 -86 -8h-45h-43h-25h-26v1l-1 -1q-142 0 -281 21q-143 23 -198 44l-33 12q-10 3 -18 -7q-10 -15 -17 -27q-73 -149 -116 -213q-18 -28 -49 -56q-24 -23 -62 -32q-10 -2 -20 -2q-33 0 -33 27q0 34 63 96q34 30 60 61
q30 34 54 73q24 36 48 80q34 62 65 129q22 35 41 53q32 27 66 27q12 0 20 -2q117 -33 216 -52q87 -17 194 -17l1 -2v2h104q243 0 510 55q202 40 382 106q184 68 374 170q135 71 264 155q15 9 129 90l139 105q-27 1 -57 3q-16 0 -31 0.5t-30 0.5q-52 0 -83 9q-32 8 -32 26
q3 8 20 41q33 50 127 127l24 17.5l40 29.5l53 43q-18 9 -27 19q-16 16 -16 43q0 19 41 73q12 16 39 48q23 30 64 58q36 25 58 25q20 0 40 -15q20 -16 20 -42q0 -49 -37 -41q-6 0 -22 15q-15 16 -31 16q-21 0 -42 -19q-24 -18 -28 -36q0 -16 26 -38q25 -24 72 -24q12 0 39 7
q26 8 58 22l65 35v-11v-10q-17 -32 -43 -63q-15 -17 -43 -31l-154 -70l-157 -87zM1742 -473q0 -11 15 -21l52.5 -35.5t41.5 -26.5q16 0 51 60t35 92q-3 24 -45 66.5t-64 33.5q-11 0 -48.5 -73.5t-37.5 -95.5zM331 959q0 -11 15 -21l52.5 -35.5t41.5 -26.5q16 0 51 60t35 92
q-3 24 -45 66.5t-64 33.5q-11 0 -48.5 -73.5t-37.5 -95.5z" />
    <glyph glyph-name="Ajal_Keshide" unicode="&#xfecb;&#xfea0;&#x640;&#xfede;" horiz-adv-x="2898" 
d="M872 545q-10 -119 -14 -158t-11.5 -103.5t-25.5 -127.5q-29 -129 -92 -242q-162 -302 -436 -302q-128 0 -193 79q-64 80 -64 203q0 89 22 175q22 83 80 199q21 42 33 64q29 49 43 45q8 -5 1 -20q-10 -20 -30 -64q-39 -86 -51 -121q-29 -83 -29 -139q0 -119 86 -170
q64 -37 168 -37q53 0 110 15q56 12 107 47q60 41 100 92q43 53 64 115q26 68 37 155q14 93 14 157q0 42 0.5 78.5t1.5 68.5l2 61.5l2 61.5l-2 205q0 55 2 76q2 28 8 42l86 201q7 15 10 12q3 0 1 -20q-1 -14 -1 -31l-10 -98l-6 -139q0 -90 43 -137q43 -49 140 -73.5
t152 -30.5q88 -8 197 -8q250 0 433 37q110 22 306 86q163 51 377 162q139 71 286 161q30 18 49 31q21 12 27 24q0 8 -66 13q-33 1 -52 2.5t-24 1.5q-57 5 -79 12q-23 6 -21 23q3 15 22 44q19 31 54 66l35 31q0 -1 0.5 -2l0.5 -1v2l37 28q3 2 63 47l53 43q-19 9 -26 19
q-17 17 -17 43q0 19 41 73q8 12 39 49q28 32 65 57q38 26 58 26q19 0 40 -16q19 -15 19 -42q0 -49 -37 -41q-7 0 -21 16q-15 15 -32 15q-19 0 -42 -19q-25 -20 -27 -36q0 -15 25 -38q25 -24 73 -24q12 0 39 7q27 9 57 22l65 35v-11v-10q-19 -36 -43 -63q-13 -16 -42 -31
l-154 -69l-157 -88l-76 -54v3q0 -1 -0.5 -1.5l-0.5 -0.5q-10 -7 -21 -20q-2 -4 -8 -12q1 -3 38 -9q36 -6 69 -6h40q64 0 105 6q21 2 37 -2q14 -4 8 -30q-4 -21 -15 -34q-12 -18 -27 -28q-12 -7 -39 -31q-32 -30 -34 -32l-98 -92q-92 -75 -149 -113l-59.5 -38.5l-56.5 -36.5
q-56 -38 -144 -84q-125 -69 -282 -133q-135 -56 -221 -78q-181 -43 -273 -55q-162 -22 -316 -22q-85 0 -148 8q-78 9 -152 26t-146 53zM1698 -166q0 -11 15 -21l52.5 -35.5t41.5 -26.5q16 0 51 60t35 92q-3 24 -45 66.5t-64 33.5q-11 0 -48.5 -73.5t-37.5 -95.5z" />
    <glyph glyph-name="Eshr_Keshide" unicode="&#xfecb;&#xfeb8;&#x640;&#xfeae;" horiz-adv-x="2721" 
d="M539 22q-136 20 -199 44l-32 12q-10 1 -18 -7q-5 -7 -17 -28q-74 -148 -117 -212q-22 -33 -48 -57t-62 -31q-6 -2 -21 -2q-32 0 -32 26q0 34 63 96q31 28 59 62q26 30 55 72q29 45 47 81q32 55 66 129q19 33 41 53q30 27 66 27q12 0 20 -2q129 -37 216 -52
q171 -32 366 -21.5t363 39.5q219 37 403 102q184 63 352 150q168 84 320 189l91 62.5t42 29.5q61 43 121 90l-49 20q-35 16 -35 45q0 30 43 88q41 52 49 64q40 52 82 88q61 51 102 51q23 0 44 -18q22 -17 22 -44q0 -53 -45 -53q-5 0 -26 13q-21 14 -46 14q-22 0 -51 -25
q-30 -24 -30 -45q0 -23 29 -41q30 -18 87 -18q45 0 90 18q22 10 72 39q25 17 49 21q19 3 22 -13q0 -23 -37 -49l-59.5 -39.5l-50.5 -33.5q-25 -17 -82 -62l-33 -27l-39 -32l-206 -163q-158 -122 -231 -174q-184 -133 -305 -195q-252 -128 -513 -202q-208 -61 -424 -84
q-142 -17 -288 -17t-286 22zM1312 1179q0 12 42.5 91t52.5 79q16 0 50.5 -29t46.5 -55l42 70q29 48 36 48q24 0 61 -34q36 -38 36 -70q0 -37 -36 -92q-37 -53 -53 -53q-13 0 -37 25q-33 35 -55 51q-55 -112 -86 -112q-7 0 -53.5 37t-46.5 44zM1403 1427q0 10 37.5 88.5
t48.5 78.5q28 0 62 -34q34 -38 34 -73q0 -33 -31.5 -91t-46.5 -58q-9 0 -40 27.5t-47.5 39.5t-16.5 22z" />
    <glyph glyph-name="Asas_Keshide" unicode="&#xfecb;&#xfeb4;&#x640;&#xfeb2;" horiz-adv-x="2875" 
d="M2936 1275q-15 6 -30.5 13t-30.5 15q-31 14 -31 26q0 28 84 139q47 58 49 59q41 41 77 41q23 0 40 -17q18 -18 18 -38q0 -17 -12 -30q-11 -13 -25 -13q-5 0 -21 9q-15 9 -39 9q-17 0 -41 -18q-22 -21 -22 -33q0 -20 29 -36q28 -15 67 -15q22 0 70 25q22 10 69 40
q9 4 15 2t6 -10q0 -17 -123 -110q-18 -14 -61 -54q-67 -60 -66 -59q5 5 -45 -49q-48 -50 -92 -71l-39 -21l-44 -24l-45 -41q-48 -45 -56 -48q-12 -7 -36 -7q-6 0 -35 16q-31 16 -53 16q-27 0 -76 -51q-84 -86 -131 -123q-74 -56 -143 -102q1 0 -141 -86q-162 -94 -397 -156
q-238 -63 -435 -63h-68v3l-1 -3q-38 0 -77 3q-39 1 -80 6q-27 4 -44 7.5t-24 4.5q-15 1 -30 -80q-8 -41 -17.5 -82l-19.5 -82q-11 -51 -38 -119q-21 -58 -56 -126q-82 -151 -200 -235q-115 -86 -246 -86q-133 0 -208 88q-75 87 -75 253q0 76 16 148q15 71 45.5 150.5
t59.5 135.5q41 78 51 72q10 -9 -25 -95q-52 -138 -66 -196q-15 -63 -15 -90q0 -98 59 -163q73 -80 215 -80q143 0 257 89q115 89 168 250q24 68 31 135q8 56 8 138v69q0 58 29 92q28 32 80 29l45 -7l157 -14q1 -1 1 -1.5v-0.5v2l123 -4q148 0 296 24q147 22 275 62
q127 39 224 84q114 50 254 139q68 44 170 131q47 41 88 41q10 0 34 -11q39 -18 47 -18q21 0 45 17q26 20 47 47q9 11 21 32q4 9 12 15q7 3 16 1q10 -3 25 -3q19 0 33 30q7 16 12 21q15 -8 31 -8q11 1 27.5 14t33.5 36z" />
    <glyph glyph-name="Asal_Keshide" unicode="&#xfecb;&#xfeb4;&#x640;&#xfede;" horiz-adv-x="2789" 
d="M1039 493q-67 15 -96 27q-17 5 -35 14l-32 16l-9 -81q-3 -37 -7.5 -76t-8.5 -79q-7 -82 -27 -152q-29 -129 -92 -242q-163 -302 -435 -302q-129 0 -194 79q-64 80 -64 203q0 89 22 175q22 83 80 199q21 42 33 64q29 47 43 45q8 -5 1 -20q-10 -20 -30 -64
q-39 -86 -51 -121q-29 -83 -29 -139q0 -119 86 -170q64 -37 168 -37q53 0 110 15q56 12 107 47q60 41 100 92q41 51 65 115q23 64 36 155q14 93 14 157q0 42 0.5 78.5t1.5 67.5t2.5 62t1.5 62l-2 205q0 34 2 76q2 28 8 43l86 200q5 11 10 12q3 0 2.5 -15.5t-2.5 -35.5
l-10 -98l-6 -139q0 -89 43 -137q36 -40 120 -65t171.5 -37.5t215.5 -12.5q212 0 399 24q241 31 468 107q265 89 485 209q-33 14 -54 26q-28 19 -28 35q0 33 94 141q110 127 159 127q32 0 54 -20q20 -22 20 -41q0 -18 -10 -34q-11 -15 -25 -15q-12 0 -34 12q-23 12 -39 12
q-22 0 -46 -19q-26 -20 -26 -38q0 -33 37 -49q38 -17 88 -17q26 0 61 15q29 11 73 35q36 22 54 22q12 0 16 -10q6 -16 -16 -33q-4 -4 -22 -16q-24 -15 -46.5 -31l-46.5 -33q-71 -51 -220 -150t-268 -159q-150 -76 -332 -143q-255 -96 -531 -139q-207 -33 -329.5 -32.5
t-206 9.5t-127.5 19z" />
    <glyph glyph-name="Asr_Keshide" unicode="&#xfecb;&#xfebc;&#x640;&#xfeae;" horiz-adv-x="3267" 
d="M2959 702q-106 -47 -186 -46q-54 0 -88 13q-37 13 -66 44q-3 2 -13 20q-8 13 -13 13q-60 -74 -142 -157q-78 -76 -155 -127q-64 -48 -134 -94q-51 -33 -120 -68q-258 -132 -513 -202q-208 -61 -424 -84q-146 -17 -292 -17v1l-1 -1q-146 0 -282 22q-138 20 -198 44l-33 12
q-11 1 -18 -7q-6 -8 -17 -28q-74 -149 -116 -213q-27 -35 -49 -56q-28 -25 -62 -31q-8 -3 -21 -3q-32 0 -32 27q0 34 63 96q29 26 60 62q28 31 54 72q25 40 48 81q33 62 65 129q19 32 41 53q31 27 66 27q12 0 20 -2q114 -35 216 -53q97 -17 195 -17l1 -1v1l80 -2
q233 0 455 38q220 37 408 103q297 106 540 254q15 9 30.5 19.5l30.5 20.5q31 18 66 48q23 18 42.5 36l36.5 33l64 65q36 36 44 42q12 8 22 8q7 0 36 -27q27 -26 72 -26q-1 -1 72 89q28 39 61 72l40.5 41l28.5 27q51 40 95 40t65 -24q20 -23 20 -65q0 -34 -32 -103
q-23 -45 -37 -67q6 3 33.5 19.5t76.5 54.5q22 18 37 33q29 27 29 33q-6 8 -53 29q-48 19 -48 55q0 23 41 84l47 64q37 48 60 69q49 45 94 45q24 0 44 -18q19 -18 19 -38q0 -21 -11 -38q-11 -15 -23 -15q-16 0 -31 7q-16 7 -31 7q-39 0 -61 -20q-25 -21 -25 -43q0 -15 35 -31
q33 -16 82 -16q20 0 34 2q6 1 41 16l48 25l55 35q14 7 19 3q5 -5 5 -16q0 -22 -36 -47q-62 -41 -84 -57q-38 -28 -70 -55q-70 -61 -104 -98q-71 -74 -87 -88q-22 -20 -50 -39q-42 -31 -180 -94zM3055 946q-18 8 -29 12q-34 13 -59 13q-52 0 -106 -60q-15 -13 -70 -92
q18 -4 49 0q30 4 88 30q58 25 92 54q35 28 35 43z" />
    <glyph glyph-name="Ghazr_Keshide" unicode="&#xfecf;&#xfec0;&#x640;&#xfeae;" horiz-adv-x="3287" 
d="M2959 702q-106 -47 -186 -46q-54 0 -88 13q-37 13 -66 44q-3 2 -13 20q-8 13 -13 13q-60 -74 -142 -157q-78 -76 -155 -127q-64 -48 -134 -94q-51 -33 -120 -68q-258 -132 -513 -202q-208 -61 -424 -84q-146 -17 -292 -17v1l-1 -1q-146 0 -282 22q-138 20 -198 44l-33 12
q-11 1 -18 -7q-6 -8 -17 -28q-74 -149 -116 -213q-27 -35 -49 -56q-28 -25 -62 -31q-8 -3 -21 -3q-32 0 -32 27q0 34 63 96q29 26 60 62q28 31 54 72q25 40 48 81q33 62 65 129q19 32 41 53q31 27 66 27q12 0 20 -2q114 -35 216 -53q97 -17 195 -17l1 -1v1l80 -2
q233 0 455 38q220 37 408 103q297 106 540 254q15 9 30.5 19.5l30.5 20.5q31 18 66 48q23 18 42.5 36l36.5 33l64 65q36 36 44 42q12 8 22 8q7 0 36 -27q27 -26 72 -26q-1 -1 72 89q28 39 61 72l40.5 41l28.5 27q51 40 95 40t65 -24q20 -23 20 -65q0 -34 -32 -103
q-23 -45 -37 -67q6 3 33.5 19.5t76.5 54.5q22 18 37 33q29 27 29 33q-6 8 -53 29q-48 19 -48 55q0 23 41 84l47 64q37 48 60 69q49 45 94 45q24 0 44 -18q19 -18 19 -38q0 -21 -11 -38q-11 -15 -23 -15q-16 0 -31 7q-16 7 -31 7q-39 0 -61 -20q-25 -21 -25 -43q0 -15 35 -31
q33 -16 82 -16q20 0 34 2q6 1 41 16l48 25l55 35q14 7 19 3q5 -5 5 -16q0 -22 -36 -47q-62 -41 -84 -57q-38 -28 -70 -55q-70 -61 -104 -98q-71 -74 -87 -88q-22 -20 -50 -39q-42 -31 -180 -94zM3055 946q-18 8 -29 12q-34 13 -59 13q-52 0 -106 -60q-15 -13 -70 -92
q18 -4 49 0q30 4 88 30q58 25 92 54q35 28 35 43zM2140 1329q0 22 37.5 95.5t48.5 73.5q22 9 64 -33.5t45 -66.5q0 -32 -35 -92t-51 -60q-6 3 -41.5 26.5l-52.5 35.5q-15 10 -15 21zM3084 1718q0 22 37.5 95.5t48.5 73.5q22 9 64 -33.5t45 -66.5q0 -32 -35 -92t-51 -60
q-6 3 -41.5 26.5l-52.5 35.5q-15 10 -15 21z" />
    <glyph glyph-name="Atash_Keshide" unicode="&#xfecb;&#xfec4;&#x640;&#xfeb6;" horiz-adv-x="2699" 
d="M2451 905q-2 0 -3 -0.5l-1 -0.5q-20 -20 -48 -43q-122 -104 -241 -175q-111 -69 -233 -121q-216 -92 -436 -131q-167 -29 -347 -29v-1q-26 0 -78 2l-80 6q-64 12 -68 13q-14 1 -30 -80q-18 -87 -37 -164q-12 -50 -38 -120q-25 -65 -56 -125q-82 -151 -199 -236
q-117 -86 -246 -86q-132 0 -208 88q-75 88 -75 254q0 68 16 147q15 71 50 170q25 58 55 117q41 78 51 71q12 -8 -25 -95q-32 -79 -40 -101q-5 -16 -26 -94q-15 -63 -15 -90q0 -98 59 -164q74 -80 215 -80q143 0 257 89q112 90 168 251q22 68 30 134q8 57 8 138v70
q0 58 29 92q29 32 80 28l45 -6l158 -14v0v1q12 -2 42 -3q18 -1 60 -1q190 0 382 35q278 50 503 169q127 68 207 121q104 67 205 156q1 6 -26 22q-28 14 -66 14q-27 0 -54 -20q-26 -22 -86 -92l-29 -36l-29 -36q-31 -37 -48 -26q-8 1 0 19q9 19 33 44q21 37 28 65
q18 61 35 226q2 20 5 43t6 49q7 53 10 61q30 71 32 78q34 82 49 110q8 6 14 8q7 2 7 -10v-4v-7q0 -11 -4 -20q-11 -35 -21 -106l-10 -72.5l-10 -72.5q-11 -74 -24 -126q-9 -39 -25 -89l80 86q67 72 124 72q48 0 72 -27q25 -29 25 -62q0 -56 -51 -131q2 1 4.5 2.5t5.5 3.5
q29 18 67 49q11 8 37 32q29 27 29 33q-8 11 -53 30q-48 19 -48 54q0 23 41 84q5 8 47 64q37 48 60 69q48 45 94 45q23 0 44 -17q19 -18 19 -38q0 -23 -11 -38t-23 -15q-16 0 -31 7q-20 7 -31 7q-37 0 -61 -21q-25 -20 -25 -43q0 -14 35 -30q35 -17 82 -17q20 0 34 2
q17 5 41 17l48 24l55 35q15 8 19 3q5 -4 5 -15q0 -23 -36 -47q-49 -32 -84 -58q-30 -21 -70 -55q-62 -53 -104 -98l-87 -88q-12 -11 -25 -20.5l-25 -18.5q-36 -26 -68 -43zM1174 1324q0 12 42.5 91t52.5 79q16 0 50.5 -29t46.5 -55l42 70q29 48 36 48q24 0 61 -34
q36 -38 36 -70q0 -37 -36 -92q-37 -53 -53 -53q-13 0 -37 25q-33 35 -55 51q-55 -112 -86 -112q-7 0 -53.5 37t-46.5 44zM1265 1572q0 10 37.5 88.5t48.5 78.5q28 0 62 -34q34 -38 34 -73q0 -33 -31.5 -91t-46.5 -58q-9 0 -40 27.5t-47.5 39.5t-16.5 22z" />
    <glyph glyph-name="Ata_Keshide" unicode="&#xfecb;&#xfec4;&#x640;&#xfe8e;" horiz-adv-x="2471" 
d="M2090 482q-31 -12 -55 -18q-23 -7 -32 -9l-31 -20.5l-32 -21.5q-140 -90 -217 -131q-188 -99 -397 -160q-158 -49 -276 -74q-225 -45 -412 -45q-63 0 -136 9q-63 6 -131 22v1v-1q-137 31 -209 113q-72 81 -72 225q0 20 1.5 52t2.5 77q5 93 13 145l39 348l79 206q2 0 5 3
l-2 -46t-3 -43l-18 -170.5t-16 -160.5q-15 -156 -15 -233q0 -78 15 -121q9 -26 30 -55q50 -70 150 -100v-1v1q86 -28 187 -39q103 -12 154 -12q165 0 312 23q151 23 307 63q149 39 260 75q109 36 191 76q146 67 221 108q32 18 123 74q5 3 11 9t15 13q17 15 17 21
q0 11 -25 28t-53 17q-49 0 -115 -70q-49 -53 -106 -125q-17 -18 -33 -24h-2.5h-3.5q-10 10 8 37q42 60 49 73q20 37 37 97q9 25 16 68q2 20 5 46.5l7 60.5q8 75 16 121q8 52 18 80l86 184q12 6 15 3t3 -13q0 -12 -4 -22q-11 -32 -15 -60q-6 -30 -12 -75l-7 -49.5t-8 -60.5
l-9 -60l-7 -48q-9 -45 -19 -78q-10 -35 -23 -67q38 41 75 70q60 45 105 45q38 0 64 -24q26 -23 26 -54q0 -69 -37 -133q-9 -15 -22 -30q18 10 29 18q33 21 68 49q11 8 37 32q28 26 28 33q-6 10 -53 30q-47 19 -47 54q0 25 41 84q13 20 47 64q34 46 59 69q49 45 94 45
q24 0 44 -18q20 -17 20 -37q0 -23 -11 -38q-12 -15 -24 -15q-16 0 -31 7q-18 7 -30 7q-37 0 -62 -21q-24 -20 -24 -43q0 -14 34 -30q37 -17 82 -17q22 0 34 2q17 5 42 17l47 24l55 35q15 7 20 3q5 -5 5 -15q0 -24 -37 -47q-72 -49 -84 -58q-38 -27 -69 -55q-59 -51 -105 -98
q-61 -65 -87 -88q-14 -13 -50 -39q-38 -28 -67 -43z" />
    <glyph glyph-name="Atr_Keshide" unicode="&#xfecb;&#xfec4;&#x640;&#xfeae;" horiz-adv-x="2986" 
d="M2738 809v0q-89 -85 -156 -139q-93 -80 -222 -172q-175 -124 -314 -192q-259 -133 -515 -205q-195 -56 -421 -82q-140 -16 -293 -16v1v-1q-142 0 -282 21q-145 23 -198 44l-33 13q-9 1 -17 -7q-10 -14 -17 -28q-76 -152 -117 -213q-20 -31 -48 -56q-24 -23 -63 -32
q-10 -2 -20 -2q-33 0 -33 27q0 34 64 96q36 33 59 61q30 34 54 73q26 39 48 81q24 39 66 129q19 31 41 53q31 26 65 26q16 0 21 -2q114 -33 215 -52q91 -17 195 -17v-2v2l80 -2q245 0 447 32q198 33 416 109q169 59 346 149q174 90 321 190q137 94 229 164q127 98 151 133
q0 16 -25 31q-27 14 -60 14q-65 0 -129 -76q-19 -21 -47.5 -57l-67.5 -84q-20 -24 -30 -32q-7 -5 -17 1q-9 6 10 35q9 12 17 20q32 50 37 60q12 27 27 97q16 75 26 175q1 36 10 100q6 64 16 94l86 189q9 8 13 8t4 -14q0 -7 -4 -29l-9 -47l-12 -58q-12 -71 -12 -143
q0 -32 -13 -92q-12 -62 -18 -85q-7 -25 -13 -40q-4 -8 -14 -32l52 57q40 49 79 78q52 37 97 37q41 0 69 -32q26 -31 23 -79q-14 -80 -43 -132q44 27 73.5 50t47.5 42q29 27 29 33q-6 8 -53 29q-47 19 -47 55q0 25 41 84q9 16 47 64q36 48 59 68q47 45 94 45q25 0 44 -17
q20 -19 20 -38q0 -22 -12 -38q-11 -15 -23 -15q-16 0 -31 7q-16 7 -31 7q-39 0 -61 -20q-24 -21 -24 -43q0 -15 34 -31q33 -16 82 -16q22 0 34 2q4 0 42 16l47 25l55 35q14 7 19 3q6 -6 6 -16q0 -21 -37 -47q-62 -41 -84 -57q-38 -28 -70 -55q-50 -44 -104 -98
q-67 -72 -87 -88q-28 -24 -50 -39q-44 -33 -67 -43z" />
    <glyph glyph-name="Atf_Keshide" unicode="&#xfecb;&#xfec4;&#x640;&#xfed2;" horiz-adv-x="3406" 
d="M2843 540q0 14 -18 34q-24 27 -53 27q-43 0 -70 -35q-20 -25 -20 -41q0 -17 28 -31q28 -16 46 -16q24 0 57 22q30 21 30 40zM3076 483q-7 -3 -38 -13q-17 -14 -21 -16l-50 -32l-0.5 -0.5l-0.5 -0.5l-18 -14q-14 -13 -38 -23q-21 -8 -84 -24q-62 -17 -91 -27
q-68 -33 -114 -51q-142 -60 -265 -92.5t-229 -54.5q-175 -38 -347 -64q-219 -33 -521 -52q-287 -19 -468 -19q-115 0 -202 5q-83 3 -183 13q-215 22 -272 51q-100 49 -100 199q0 57 3 75t11 17q28 -17 94 -42q71 -27 171 -50q104 -26 246 -39q144 -15 294 -21.5t516.5 6.5
t713.5 79t435 95q43 15 94 35q0 5 0.5 10.5t0.5 12.5q1 14 10 32q44 101 63 133q63 109 121 109q41 0 64 -30q24 -30 24 -75q0 -20 -9 -60q-8 -42 -18 -70q18 -5 49 2q32 5 49 18v0q57 31 123 90q39 34 66 68q25 29 24 43q-18 15 -14 12q-24 13 -48 12q-34 0 -61 -29
q-19 -19 -47 -65l-37 -59q-12 -21 -24 -16q-7 1 -4 15q1 14 10 27q13 22 26 54q9 22 19 71q8 48 8 121l4 165q1 14 31 80q16 40 47 100q4 6 6 -1q1 -5 0 -15q-12 -53 -14 -109q-4 -55 -4 -98l-13 -131l-8 -51q-2 -24 -2 -23q0 -3 -2 -13l27 40q23 28 44 42q19 15 52 20
q34 0 52 -22q17 -22 17 -46q0 -44 -34 -116q-11 -25 -26 -49q33 21 29 18q19 11 68 49q14 10 37 33q28 26 28 33q-7 10 -53 29q-47 19 -47 54q0 24 41 84q9 15 47 65q40 52 59 68q49 45 95 45q22 0 44 -17q19 -19 19 -38q0 -23 -11 -38q-12 -15 -24 -15q-16 0 -31 7
q-14 7 -30 7q-36 0 -62 -20q-24 -21 -24 -43q0 -15 35 -31q33 -16 81 -16q28 0 34 2q4 0 42 16l47 25l55 34q14 8 20 3q5 -5 5 -15q0 -22 -37 -47q-62 -41 -84 -57q-48 -36 -69 -55q-62 -54 -105 -99q-61 -65 -87 -88q-24 -21 -50 -38q-40 -30 -67 -43zM1340 894
q0 -11 15 -21l52.5 -35.5t41.5 -26.5q16 0 51 60t35 92q-3 24 -45 66.5t-64 33.5q-11 0 -48.5 -73.5t-37.5 -95.5z" />
    <glyph glyph-name="Azm_Keshide" unicode="&#xfecb;&#xfec8;&#x640;&#xfee2;" horiz-adv-x="2884" 
d="M2628 816l-1 -1q-58 -57 -154 -140q-97 -82 -223 -172q-174 -123 -313 -192q-261 -133 -516 -205q-206 -60 -421 -81q-136 -17 -293 -17v0q-107 0 -187 9q-79 9 -135 21q-7 2 -41 -34l-16 -18.5t-17 -18.5q-6 -7 -12 -2q-25 30 -47 49q-45 41 -104 41q-31 0 -47 -4
q-57 -16 -107 -65q-36 -39 -56 -112q-18 -73 -34 -212q-24 -214 -33 -454q-10 -230 -10 -433q0 -40 -0.5 -86.5t-1.5 -99.5q-1 -104 -20 -104q-9 0 -14 70q-3 72 -3 214v492q0 138 9 273q8 132 38 300q16 83 49 154q44 90 113 159q26 24 62 46q43 26 63 35q27 10 41 14
q9 2 17.5 4.5l15.5 4.5q10 6 26 33q17 27 25 27q37 -20 75 -31q62 -20 152 -37l36.5 -6.5t42.5 -6.5q42 -7 120 -7v0l80 -2q245 0 447 32q198 33 416 109q169 59 346 149q180 93 321 190l229 164q123 95 152 133q0 15 -26 31q-27 14 -60 14q-65 0 -129 -76
q-34 -38 -115 -141q-21 -25 -29 -31q-8 -7 -18 1q-9 4 10 34q-3 -4 17 21q31 47 37 59q12 27 27 97q15 74 26 175q0 14 10 100q6 64 16 94l86 189q9 8 13 8t4 -13q0 -8 -4 -30l-9 -47l-7 -32.5l-5 -24.5q-12 -72 -12 -144q0 -28 -12 -92q-15 -70 -19 -85q-8 -25 -13 -39
l-13 -33l51 57q40 49 79 78q53 37 97 37q41 0 69 -32q26 -31 23 -79q0 -60 -41 -129q3 2 6.5 4t7.5 5q33 21 67 48q22 18 37 33q29 27 29 33q-6 10 -53 30q-47 19 -47 54q0 25 41 84q6 12 47 64q34 46 59 69q49 45 94 45q24 0 44 -18q19 -17 19 -38q0 -24 -11 -37
q-12 -16 -23 -16q-14 0 -31 8q-20 7 -31 7q-37 0 -61 -21q-25 -21 -25 -43q0 -15 35 -30q35 -17 82 -17q22 0 34 2q17 5 42 17l47 24l55 35q14 7 19 3q6 -5 6 -15q0 -23 -37 -47q-72 -49 -84 -58q-30 -21 -70 -55q-62 -53 -104 -98q-67 -72 -87 -88q-28 -24 -50 -39
q-36 -26 -68 -43zM1446 1196q0 -11 15 -21l52.5 -35.5t41.5 -26.5q16 0 51 60t35 92q-3 24 -45 66.5t-64 33.5q-11 0 -48.5 -73.5t-37.5 -95.5z" />
    <glyph glyph-name="Ghese_Keshide" unicode="&#xfecf;&#xfebc;&#x640;&#xfeea;" horiz-adv-x="3088" 
d="M2829 708q-19 -7 -55 -19q-5 -2 -27 -7q-56 -21 -104 -21q-52 0 -88 13q-37 13 -65 44l-14 21q-6 12 -13 12q-68 -83 -142 -157q-79 -78 -155 -128l-134 -93q-59 -39 -119 -68q-256 -131 -513 -203q-208 -59 -424 -84q-136 -16 -292 -16v0q-148 0 -304 25
q-161 24 -217 55q-19 -25 -49 -88l-43 -86l-39 -78q-16 -28 -27 -26q-6 1 -6 10q0 8 10 31l90 216l39 86q29 58 45 86q38 65 72 55q140 -36 232 -52q106 -19 197 -19v0l80 -2q242 0 454 38q221 37 408 103q299 106 540 254q15 9 30.5 19.5l31.5 20.5q32 21 65 48
q44 36 79 69l31.5 31t32.5 34q30 30 44 42q12 8 22 8q8 0 37 -27q27 -26 71 -26q3 1 72 90q36 46 61 71q44 45 70 68q50 40 94 40q45 0 66 -24q20 -25 20 -66q0 -30 -33 -102q-21 -43 -35 -65q28 15 41 24q38 26 68 49q22 18 36 33q29 26 29 33q-5 8 -53 30q-47 18 -47 54
q0 23 41 84l16.5 23.5t30.5 40.5q36 48 59 68q48 46 94 46q24 0 44 -18q20 -17 20 -38q0 -22 -12 -37q-11 -16 -23 -16q-16 0 -31 7q-18 8 -31 8q-36 0 -61 -21q-24 -21 -24 -43q0 -15 34 -31t82 -16q22 0 34 2q4 0 42 16l47 25l55 35q14 7 20 3q5 -7 5 -16q0 -21 -37 -47
q-62 -41 -84 -57q-48 -36 -70 -55q-72 -65 -104 -98q-67 -72 -87 -88q-22 -20 -50 -39q-38 -28 -67 -43zM2925 951q-19 9 -28 12q-34 13 -60 13q-51 0 -106 -59q-14 -14 -70 -92q19 -5 50 0q27 2 88 29q58 25 92 54t34 43zM3002 1721q0 22 37.5 95.5t48.5 73.5
q22 9 64 -33.5t45 -66.5q0 -32 -35 -92t-51 -60q-6 3 -41.5 26.5l-52.5 35.5q-15 10 -15 21z" />
    <glyph glyph-name="Aghl_Keshide" unicode="&#xfecb;&#xfed8;&#x640;&#xfede;" horiz-adv-x="2870" 
d="M1017 498q-53 11 -96 26q-12 3 -35 15l-33 16l-8 -82q-3 -37 -7.5 -75.5t-8.5 -78.5q-9 -81 -27 -153q-32 -132 -92 -241q-163 -303 -436 -303q-129 0 -193 80q-65 80 -65 202q0 86 23 175q24 91 80 200l34 63q27 49 41 45q8 -5 1 -19q-3 -8 -10 -24.5t-19 -40.5
q-37 -81 -52 -121q-28 -80 -28 -139q0 -119 86 -169q61 -37 168 -37q57 0 110 14q61 16 106 47q61 40 101 92q40 49 64 116q24 62 37 154q13 86 13 158q0 42 1 78.5t1 67.5q2 31 3 62t1 62l-2 205q0 35 2 75q4 33 9 43l86 201q3 7 6 9q2 2 6 0t-2 -48l-10 -98l-7 -140
q0 -87 43 -137q36 -39 109 -61v0q69 -21 155 -30q87 -9 178 -9q374 0 795 125q64 17 190 66q122 47 199 83l68 35q-2 30 -2 35q0 15 4 41q32 88 90 161q49 64 92 64q37 0 58 -31q19 -31 19 -78q0 -30 -6 -63q-7 -37 -16 -62q5 -2 22 2t62 31h1v1q24 12 75 51q-42 24 -55 33
q-33 21 -33 42q0 11 21 46q18 34 59 84q39 48 57 63q36 29 68 29q28 0 44 -19q15 -20 13 -35q0 -15 -10 -26q-2 -4 -10 -9q-11 0 -27 12q-18 11 -37 11q-22 0 -42 -17q-20 -20 -27 -44q-5 -11 8 -23q24 -29 86 -29q39 0 84 21q15 6 53 31q7 3 13.5 6.5l12.5 6.5q10 4 15 -7
q1 -10 -5 -18q-9 -11 -22 -17l-88 -66l-110 -88l-143 -122v0l-1 -1q-14 -12 -25 -17q-15 -10 -53 -27q-30 -15 -75 -32q-20 -7 -43 -12q-48 -30 -180 -102q-93 -52 -209 -104q-225 -105 -519 -177q-292 -73 -546 -73h-35q-84 0 -128 3t-95 15v1zM2810 1130q0 22 -21 39
q-21 18 -48 18q-24 0 -50 -28q-28 -27 -28 -48q0 -17 28 -27q27 -12 46 -12q29 0 51 19q22 17 22 39zM1557 1437q0 13 41 90t50 77q17 7 49.5 -24.5t49.5 -55.5l44.5 74t32.5 41q25 0 59.5 -36.5t36.5 -68.5q0 -38 -37 -90q-36 -51 -53 -51q-11 0 -40 29t-51 45
q-54 -109 -86 -109q-8 0 -23 13l-43.5 36t-29.5 30z" />
    <glyph glyph-name="Afv_Keshide" unicode="&#xfecb;&#xfed4;&#x640;&#xfeee;" horiz-adv-x="2707" 
d="M405 265q-3 -9 -14.5 -32t-17.5 -31q-12 -22 -33 -52q-37 -56 -54 -64q-16 -10 -53 -24q-11 -4 -71 -24l-111 -29q-19 -4 -31 -5t-14 3q-1 4 19 18l23.5 14l80.5 48q48 28 77 51q68 48 99 82q37 40 37 66q-8 -4 -24 -7q-18 -2 -32 -2q-36 6 -59 21q-33 19 -33 53
q0 25 45 121q12 28 35 57q32 39 55 39q41 0 70 -29q36 -39 36 -80q-1 3 2 -34l6 3q21 7 43 18l14 8q-5 13 -6 25q2 16 17 50q14 34 34 66q29 53 72 97q51 53 85 53q36 0 58 -29q20 -28 20 -57q0 -39 -9 -76l-8.5 -31t-4.5 -20q-3 -10 43 -17q38 -7 101 -13q63 -5 212 -7
q232 0 454 38q217 37 404 102t352 150q168 84 320 189l91 62.5t42 29.5q61 43 121 90q-30 11 -49 21q-35 15 -35 45q0 28 43 88q39 47 49 63q37 49 82 88q61 51 102 51q22 0 44 -17q22 -18 22 -44q0 -53 -45 -53q-8 0 -26 13q-19 13 -46 13q-21 0 -51 -24q-31 -26 -31 -45
q0 -23 30 -41q29 -19 87 -19q46 0 90 19q24 11 71 39q31 18 50 20q10 1 15 -4q3 -4 7 -8q0 -24 -37 -49l-59.5 -39.5l-50.5 -34.5l-37.5 -27.5l-44.5 -33.5l-33.5 -28l-38.5 -32l-206 -163q-163 -126 -232 -174q-182 -133 -305 -195q-252 -128 -513 -202q-208 -61 -424 -84
q-144 -17 -292 -17v0q-113 0 -234 22q-117 21 -213 76q-9 4 -15 9l-86 -41l-62 -34q-6 -15 -5 -13q-2 -14 -14 -36zM721 585q0 18 -21 33q-19 14 -43 14q-22 0 -49 -18q-26 -19 -26 -41q0 -23 26 -33q30 -10 46 -10q28 0 47 17q20 17 20 38zM672 1261q0 -11 15 -21
l52.5 -35.5t41.5 -26.5q16 0 51 60t35 92q-3 24 -45 66.5t-64 33.5q-11 0 -48.5 -73.5t-37.5 -95.5z" />
    <glyph glyph-name="Efat_Keshide" unicode="&#xfecb;&#xfed4;&#x640;&#xfe96;" horiz-adv-x="3225" 
d="M2846 563l-41 -43q-24 -29 -44 -44q-15 -11 -28 -11q-1 0 -72 30q-30 14 -53 13q-8 -4 -24 -19q-4 -7 -23 -26l-37 -45q-34 -43 -51 -55q-46 -41 -120 -80q-117 -64 -363 -125q-192 -50 -350 -76q-231 -41 -469 -60q-244 -20 -466 -20q-207 0 -371 17q-159 16 -222 51
q-49 33 -66 69q-15 33 -22 109q0 47 1 68q2 30 9 28q107 -64 321 -95q221 -32 588 -32q190 0 394 15q196 12 467 55q158 23 270 53q103 26 236 74q70 23 126 55q76 39 115 80q44 41 43 41q34 26 53 26q9 0 43 -12q17 -6 31 -6q53 0 125 65v1l20 21q-14 7 -14 32q0 22 27 78
l36 72q23 39 47 69q42 47 74 47q34 0 56 -27q24 -29 24 -73q0 -30 -10 -63q-11 -33 -11 -35q5 -9 23 -1q30 12 43 19v0q35 19 75 51q-14 7 -27.5 15.5l-27.5 16.5q-33 22 -33 43q0 11 21 46q24 40 59 84q40 49 58 63q34 28 67 28q29 0 44 -18q16 -20 13 -35q0 -15 -10 -26
q-1 -4 -10 -9q-10 0 -27 12q-17 11 -37 11q-22 0 -42 -18q-19 -19 -27 -44q-4 -10 8 -22q25 -29 86 -29q39 0 84 21q20 8 53 30q10 6 26 14q11 4 15 -7q2 -10 -5 -18q-8 -11 -22 -17l-88 -66l-110 -88l-143 -122v0q-38 -31 -73 -48q-36 -17 -64 -21h-49l-35 -8
q-29 -18 -49 -35l-43 -41q0 -1 -0.5 -2t-1.5 -1zM3065 812q0 15 -19 34q-18 21 -45 21q-32 0 -55 -26q-23 -27 -23 -42q0 -14 17 -26q18 -13 47 -13q30 0 54 17q24 16 24 35zM2754 1477q0 22 37.5 95.5t48.5 73.5q22 9 64 -33.5t45 -66.5q0 -32 -35 -92t-51 -60
q-6 3 -41.5 26.5l-52.5 35.5q-15 10 -15 21zM1095 781q0 13 41 90t50 77q17 7 49.5 -24.5t49.5 -55.5l44.5 74t32.5 41q25 0 59.5 -36.5t36.5 -68.5q0 -38 -37 -90q-36 -51 -53 -51q-11 0 -40 29t-51 45q-54 -109 -86 -109q-8 0 -23 13l-43.5 36t-29.5 30z" />
    <glyph glyph-name="Efr_Keshide" unicode="&#xfecb;&#xfed8;&#x640;&#xfeae;" horiz-adv-x="2854" 
d="M839 11q-144 0 -283 21q-138 20 -198 44l-33 12q-11 2 -17 -7q-8 -9 -18 -27q-78 -157 -117 -213q-25 -36 -47 -57q-29 -25 -62 -31q-5 -2 -20 -2q-33 0 -33 26q0 34 63 96l59 62q28 33 54 72q25 40 48 81q33 62 65 129q21 35 41 53q31 27 66 27q12 0 20 -2
q130 -38 216 -52q96 -18 196 -18v-1v1h80q190 0 386 25q225 29 475 104q136 43 285 107q211 90 440 225q0 3 -0.5 6.5t-0.5 9.5q-1 7 -1 27q1 25 7 42q3 12 19 42q52 95 66 112q48 68 104 68q41 0 58 -36q18 -36 18 -89q0 -23 -7 -51q-8 -26 -16 -37q3 -13 19 -8q10 2 19 6
q7 1 36 18v0q29 15 76 51l-55 32q-33 22 -33 43q0 10 20 47q21 34 60 84q40 48 57 62q33 28 68 28q27 0 44 -18q14 -18 13 -35q0 -13 -10 -26q-4 -6 -11 -8q-11 0 -26 11q-18 11 -37 11q-22 0 -42 -17q-19 -18 -28 -44q-4 -12 8 -23q25 -29 86 -29q39 0 84 21q13 5 53 31
l26 13q12 4 15 -7q2 -8 -5 -18q-6 -9 -21 -17l-88 -66l-111 -87l-143 -123v1v-1q-39 -38 -94 -49l-74 -12l-143 -94q-118 -77 -245 -151q-113 -65 -220 -115q-82 -41 -206 -88q-233 -92 -491 -142q-249 -50 -514 -49v-1zM2720 815q0 13 -11 26q-23 29 -53 29q-25 0 -79 -21
q-25 -21 -7 -49q0 -17 24 -27q20 -11 39 -11q28 0 57 20q30 21 30 33zM1365 1140q0 15 42.5 103.5t52.5 88.5q18 8 52 -28t52 -64l46 85.5t34 47.5q26 0 62.5 -42.5t38.5 -78.5q0 -44 -39 -104q-38 -59 -56 -59q-11 0 -41.5 33.5t-53.5 51.5q-56 -125 -90 -125q-8 0 -24 15
l-45.5 41t-30.5 35z" />
    <glyph glyph-name="Alf_Keshide" unicode="&#xfecb;&#xfee0;&#x640;&#xfed2;" horiz-adv-x="3363" 
d="M2845 539q0 16 -19 35q-24 27 -53 27q-41 0 -69 -35q-21 -24 -21 -40q0 -15 28 -32q27 -15 46 -15q27 0 57 21q31 23 31 39zM2929 392l-18 -7q-18 -7 -84 -25q-76 -20 -91 -26l-114 -54q-139 -49 -250.5 -81t-267 -64t-349 -63.5t-495.5 -51.5q-304 -18 -430 -17
t-284.5 5.5t-256 19t-154.5 42.5q-101 50 -101 198q0 60 4 76q4 19 11 16q28 -16 90.5 -41t170.5 -50t249 -40q149 -14 260 -14q52 0 94 1t74 1q622 10 1023.5 74.5t603.5 132.5q0 14 1 22q0 12 9 33q47 106 63 132q63 108 121 108q42 0 64 -29q24 -30 24 -75q0 -19 -8 -60
q-10 -42 -19 -70q15 -4 49 0t76 34.5t54 115.5l13 142q7 58 18 133q12 85 18 96l56 121q17 37 24 37q3 1 4.5 -3t1.5 -8l-19 -129t-16 -112q-14 -108 -15 -125q1 -74 19 -111q12 -26 42.5 -39t63.5 -8l13.5 36t13 33l34.5 83q26 53 56 88q46 51 104 51q27 0 45 -9
q19 -12 25 -32q1 -21 -12 -34q-12 -13 -21 -13q-3 0 -25 6q-23 6 -40 6q-45 0 -76 -38q-33 -38 -33 -66q0 -24 22 -46q21 -24 58 -24q44 0 94 70l30 50q18 33 31 30q11 -5 -1 -37q-11 -32 -38 -86q-36 -74 -81 -135q-108 -145 -242 -145q-89 0 -133 70q-10 17 -15 32
q-62 -83 -138 -127zM1370 908q0 -11 15 -21l52.5 -35.5t41.5 -26.5q16 0 51 60t35 92q-3 24 -45 66.5t-64 33.5q-11 0 -48.5 -73.5t-37.5 -95.5z" />
    <glyph glyph-name="Alagh_Keshide" unicode="&#xfecb;&#xfee0;&#x640;&#xfed6;" horiz-adv-x="2696" 
d="M878 402q-3 -52 -17 -116q-19 -86 -44 -153q-38 -95 -82 -170q-35 -57 -78 -111q-80 -105 -179 -164q-97 -59 -218 -59q-131 0 -200 90q-61 78 -61 205q0 64 13 134q14 77 44 142q22 58 67 133l21.5 36l36.5 60q6 15 16 28q10 12 16 7q14 -14 -22 -86q-23 -37 -39 -70
q-30 -64 -51 -134q-23 -74 -23 -109q0 -120 76 -170q62 -41 172 -41q92 0 172 31q116 46 202 162q40 54 69 125q27 72 27 136q0 72 -41 72q-24 -6 -40 -6q-35 0 -63 18t-21 47q6 23 24 62q3 6 31 59q16 31 42 57q27 29 52 29q44 0 72 -56q15 -31 21 -65q9 6 19 16
q39 37 66 97q9 26 14 88l4 56l4 56q4 30 7.5 60t7.5 60q5 57 12 79l35 81l34 76l15 29q5 2 10 0q4 -4 4 -17t-3 -32q-2 -11 -3.5 -18.5t-1.5 -12.5l-25 -168l-4 -55.5l-4 -54.5q0 -41 9 -77q10 -38 32 -67q43 -56 135 -83v-1v0q76 -22 169 -31q99 -12 195 -12q92 0 212 20
q117 19 259 60q102 28 246 92q156 69 212 100l88 51q50 32 94 64q-32 7 -59 28q-29 19 -29 35q0 12 26 52q12 20 28.5 42.5l35.5 49.5q57 70 86 94q33 28 70 28q32 0 53 -18q19 -18 23 -39q0 -51 -33 -51q-12 0 -37 11q-22 11 -39 11q-22 0 -46 -21q-23 -21 -23 -40
q0 -29 36 -44q37 -15 88 -15q29 0 58 12t79 43q31 20 54 20q12 0 14 -8q7 -15 -7 -29q-13 -14 -30 -26q-33 -21 -90 -63l-70 -52q-18 -12 -42 -30.5l-56 -42.5l-79 -62t-31 -24l-104 -78.5t-90 -62.5q-86 -57 -197 -113q-196 -100 -397 -154q-207 -57 -397 -57
q-161 0 -270 21v1v-1q-68 15 -108 37q-41 21 -78 55q-26 27 -38 43q-20 25 -24 25l-6 -4q-5 -9 -10 -16.5t-8 -14.5q-16 -26 -37 -53zM300 1020q0 -6 29.5 -30l43.5 -36q15 -13 23 -13q32 0 86 109q22 -16 51 -45t40 -29q17 0 53 51q37 52 37 90q-2 32 -36.5 68.5
t-59.5 36.5q-8 0 -32.5 -41l-44.5 -74q-17 24 -49.5 55.5t-49.5 24.5q-9 0 -50 -77t-41 -90z" />
    <glyph glyph-name="Aghab_Keshide" unicode="&#xfecb;&#xfed8;&#x640;&#xfe90;" horiz-adv-x="3221" 
d="M2846 563l-41 -43q-24 -29 -44 -44q-15 -11 -28 -11q-1 0 -72 30q-30 14 -53 13q-8 -4 -24 -19q-4 -7 -23 -26l-37 -45q-34 -43 -51 -55q-46 -41 -120 -80q-117 -64 -363 -125q-192 -50 -350 -76q-231 -41 -469 -60q-244 -20 -466 -20q-207 0 -371 17q-159 16 -222 51
q-49 33 -66 69q-15 33 -22 109q0 47 1 68q2 30 9 28q107 -64 321 -95q221 -32 588 -32q190 0 394 15q196 12 467 55q158 23 270 53q103 26 236 74q70 23 126 55q76 39 115 80q44 41 43 41q34 26 53 26q9 0 43 -12q17 -6 31 -6q53 0 125 65v1l20 21q-14 7 -14 32q0 22 27 78
l36 72q23 39 47 69q42 47 74 47q34 0 56 -27q24 -29 24 -73q0 -30 -10 -63q-11 -33 -11 -35q5 -9 23 -1q30 12 43 19v0q35 19 75 51q-14 7 -27.5 15.5l-27.5 16.5q-33 22 -33 43q0 11 21 46q24 40 59 84q40 49 58 63q34 28 67 28q29 0 44 -18q16 -20 13 -35q0 -15 -10 -26
q-1 -4 -10 -9q-10 0 -27 12q-17 11 -37 11q-22 0 -42 -18q-19 -19 -27 -44q-4 -10 8 -22q25 -29 86 -29q39 0 84 21q20 8 53 30q10 6 26 14q11 4 15 -7q2 -10 -5 -18q-8 -11 -22 -17l-88 -66l-110 -88l-143 -122v0q-38 -31 -73 -48q-36 -17 -64 -21h-49l-35 -8
q-29 -18 -49 -35l-43 -41q0 -1 -0.5 -2t-1.5 -1zM3065 812q0 15 -19 34q-18 21 -45 21q-32 0 -55 -26q-23 -27 -23 -42q0 -14 17 -26q18 -13 47 -13q30 0 54 17q24 16 24 35zM2342 1228q0 13 41 90t50 77q17 7 49.5 -24.5t49.5 -55.5l44.5 74t32.5 41q25 0 59.5 -36.5
t36.5 -68.5q0 -38 -37 -90q-36 -51 -53 -51q-11 0 -40 29t-51 45q-54 -109 -86 -109q-8 0 -23 13l-43.5 36t-29.5 30zM888 -629q0 22 37.5 95.5t48.5 73.5q22 9 64 -33.5t45 -66.5q0 -32 -35 -92t-51 -60q-6 3 -41.5 26.5l-52.5 35.5q-15 10 -15 21z" />
    <glyph glyph-name="Ala_Keshide" unicode="&#xfecb;&#xfee0;&#x640;&#xfe8e;" horiz-adv-x="2094" 
d="M327 561q0 131 11 201q9 62 38 141l36 77l22 40.5t19 33.5q8 5 10 -3t-2 -34q-18 -98 -27 -174q-10 -84 -10 -141q0 -106 66 -170q43 -41 119 -67q71 -22 169 -32q90 -11 195 -11q96 0 212 19q117 19 258 60q96 27 246 93q138 60 213 100l45 26l43 25q37 23 94 63
q-31 8 -60 28q-28 19 -28 36q0 13 25 52q21 33 65 91q49 63 86 94q35 29 69 29q33 0 53 -18q21 -20 23 -39q0 -52 -33 -52q-12 0 -37 12q-26 11 -38 11q-24 0 -46 -22q-24 -21 -24 -39q0 -30 37 -44q34 -16 88 -16q29 0 57 13q30 12 80 42q33 21 53 21q12 0 14 -8
q8 -15 -7 -30q-17 -17 -29 -25q-37 -24 -90 -64l-42.5 -31l-27.5 -20q-34 -24 -98 -74l-111 -86q-107 -84 -194 -141q-80 -53 -197 -112q-184 -96 -396 -155q-209 -56 -397 -56q-162 0 -270 21q-175 36 -212 108l-14 -63q-8 -25 -14.5 -43l-10.5 -29q-18 -46 -35 -72
q-33 -55 -65 -85q-43 -41 -97 -41q-27 0 -50 12q-21 12 -39 33q-18 13 -21 16q-14 11 -14 27q0 9 9 23l21 30q4 4 16 24q8 13 16 43q7 24 10 70q4 58 4 74v62q0 31 -3 66q0 93 27 201q16 62 61 198l5 10q2 1 3.5 2t2.5 3q6 0 6 -37q0 -4 -2 -60q-2 -27 -2 -51l-15 -259
q0 -54 -8 -107q-7 -62 -24 -114q-25 -84 -64 -142q2 -4 17 -4h24q55 0 106 50q51 46 72 114q7 24 8 76q2 35 2 63q0 52 -1 76q0 17 -0.5 32t-0.5 29z" />
    <glyph glyph-name="Ghala_Keshide" unicode="&#xfecf;&#xfee0;&#x640;&#xfe8e;" horiz-adv-x="2109" 
d="M327 561q0 131 11 201q9 62 38 141l36 77l22 40.5t19 33.5q8 5 10 -3t-2 -34q-18 -98 -27 -174q-10 -84 -10 -141q0 -106 66 -170q43 -41 119 -67q71 -22 169 -32q90 -11 195 -11q96 0 212 19q117 19 258 60q96 27 246 93q138 60 213 100l45 26l43 25q37 23 94 63
q-31 8 -60 28q-28 19 -28 36q0 13 25 52q21 33 65 91q49 63 86 94q35 29 69 29q33 0 53 -18q21 -20 23 -39q0 -52 -33 -52q-12 0 -37 12q-26 11 -38 11q-24 0 -46 -22q-24 -21 -24 -39q0 -30 37 -44q34 -16 88 -16q29 0 57 13q30 12 80 42q33 21 53 21q12 0 14 -8
q8 -15 -7 -30q-17 -17 -29 -25q-37 -24 -90 -64l-42.5 -31l-27.5 -20q-34 -24 -98 -74l-111 -86q-107 -84 -194 -141q-80 -53 -197 -112q-184 -96 -396 -155q-209 -56 -397 -56q-162 0 -270 21q-175 36 -212 108l-14 -63q-8 -25 -14.5 -43l-10.5 -29q-18 -46 -35 -72
q-33 -55 -65 -85q-43 -41 -97 -41q-27 0 -50 12q-21 12 -39 33q-18 13 -21 16q-14 11 -14 27q0 9 9 23l21 30q4 4 16 24q8 13 16 43q7 24 10 70q4 58 4 74v62q0 31 -3 66q0 93 27 201q16 62 61 198l5 10q2 1 3.5 2t2.5 3q6 0 6 -37q0 -4 -2 -60q-2 -27 -2 -51l-15 -259
q0 -54 -8 -107q-7 -62 -24 -114q-25 -84 -64 -142q2 -4 17 -4h24q55 0 106 50q51 46 72 114q7 24 8 76q2 35 2 63q0 52 -1 76q0 17 -0.5 32t-0.5 29zM1250 1189q0 22 37.5 95.5t48.5 73.5q22 9 64 -33.5t45 -66.5q0 -32 -35 -92t-51 -60q-6 3 -41.5 26.5l-52.5 35.5
q-15 10 -15 21z" />
    <glyph glyph-name="Aks_Keshide" unicode="&#xfecb;&#xfb91;&#x640;&#xfeb2;" horiz-adv-x="2725" 
d="M1127 408q-26 0 -78 2q-38 1 -79 6q-54 10 -68 12q-14 3 -31 -79q-17 -86 -36 -164q-14 -58 -38 -120q-25 -66 -57 -126q-81 -148 -199 -234q-117 -86 -247 -86q-132 0 -207 88q-75 89 -75 253q0 73 15 147q19 82 50 170q17 40 56 117q41 76 51 71q11 -8 -26 -95
q-32 -79 -40 -101q-4 -16 -10.5 -39.5l-14.5 -54.5q-16 -69 -16 -90q0 -98 60 -164q75 -79 215 -79q142 0 257 88q113 90 168 251q22 65 31 134q8 57 8 138v70q0 58 29 92q29 32 80 28l45 -6l157 -14v0q33 -4 92 -6q55 -4 97 -4q226 0 409 37q190 39 340 100q106 42 219 108
q86 51 150 100q47 37 55 45q22 21 53 59q15 22 31 72q7 27 18 60q12 37 34 79q24 48 54 90q6 10 9 12q3 0 5 3q0 -16 -1 -22q0 -10 -9 -44l-43 -209l-12 -65t-6 -39q-4 -23 -4 -57l-1 -1v0q0 -74 19 -116q12 -28 43 -39q30 -13 63 -8l27 71q0 1 35 80q24 54 55 88
q46 51 104 51q27 0 45 -9q19 -10 25 -32q1 -22 -11 -34q-15 -13 -22 -13q-1 0 -25 6q-23 6 -40 6q-44 0 -76 -37q-33 -39 -33 -67q0 -23 22 -46q20 -23 58 -23q44 0 94 69l30 50q19 34 31 30q10 -5 -1 -37q-8 -24 -37 -86q-39 -76 -82 -135q-107 -145 -242 -145
q-90 0 -133 69q-35 59 -35 148l1 1v-1q0 44 3 74q1 15 4 39l7 57q-4 -6 -9 -12.5t-9 -12.5q-11 -14 -29 -32l-65 -59q-114 -102 -272 -191q-126 -69 -221 -102q-187 -73 -372 -106q-184 -33 -354 -33zM2783 1526q45 49 192 168l262 211q80 65 181 157l161 156
q154 147 154 151q0 -10 -5 -18q-6 -28 -38 -86q-33 -57 -56 -86q-26 -35 -70 -85q-25 -28 -61 -64q-24 -25 -104 -97l-69.5 -60l-96.5 -83q-77 -65 -139 -112l-82 -64l-81 -61l-142 -111l-58 -46q-28 -22 -32 -15q13 36 37 82q20 34 47 63z" />
    <glyph glyph-name="Ellal_Keshide" unicode="&#xfecb;&#xfee0;&#x640;&#xfede;" horiz-adv-x="2713" 
d="M1454 778q106 -12 197 -12q89 0 211 20q115 19 259 60q99 27 245 92q154 68 213 100l88 52q54 34 94 63q-25 5 -60 27q-28 19 -28 36q0 13 25 53q22 34 65 90q47 61 86 95q33 28 69 28q33 0 53 -18q19 -18 23 -39q0 -51 -33 -51q-14 0 -37 11q-22 11 -38 11
q-24 0 -46 -21q-24 -23 -24 -40q0 -30 37 -44q36 -15 88 -15q28 0 57 12q32 13 80 43q31 20 53 20q12 0 14 -8q8 -13 -7 -30q-14 -14 -30 -25q-41 -28 -89 -64l-42.5 -31l-27.5 -20q-26 -18 -98 -73l-111 -86q-96 -77 -189.5 -138.5t-200.5 -115.5q-196 -100 -397 -154
q-207 -55 -396 -57q-162 0 -270 21v0v0q-129 30 -208 104q-25 27 -27 27q-13 0 -45 -80q-16 -46 -47.5 -77t-59.5 -41.5t-76 -10.5v0v0h-1q-1 -153 -49 -337q-33 -130 -96 -240q-163 -304 -431 -304q-129 0 -194 79q-64 82 -64 203q0 87 22 171q22 86 82 203
q15 30 38.5 70.5t35.5 38.5q9 -6 1 -20q-10 -20 -30 -64q-39 -86 -51 -121q-28 -80 -28 -139q0 -113 88 -166q69 -41 165 -41q54 0 111 15q56 13 106 47q129 85 180 249q35 114 39 270q2 125 1.5 229t3 212t5.5 146q1 30 16 56l72 159q16 23 12 -45l-10 -100l-6 -84l-5 -136
v-52q0 -50 22 -72q22 -20 54 -20q79 0 88 63l10 129q0 28 9 136q12 113 26 179q1 4 61 117q50 90 49 88q7 9 9 -2q0 -11 -9 -60q-15 -71 -28 -141q-23 -120 -23 -174q0 -171 182 -225h1l2 -1v0q102 -25 164 -30z" />
    <glyph glyph-name="Amal_Keshide" unicode="&#xfecb;&#xfee4;&#x640;&#xfede;" horiz-adv-x="2883" 
d="M1037 486q-54 11 -96 26q-15 5 -35 15l-32 16l-9 -82l-8 -75.5l-8 -78.5q-11 -91 -27 -152q-30 -129 -92 -242q-164 -303 -435 -303q-128 0 -193 80q-64 78 -64 203q0 89 22 175q22 83 80 199l33 64q29 48 43 44q8 -3 1 -19l-30 -64q-37 -82 -51 -121q-29 -84 -29 -139
q0 -119 86 -170q61 -37 168 -37q51 0 111 14q54 14 105 48q59 41 100 92q42 53 64 115q25 68 37 155q14 93 14 157v78.5t2 67.5q0 31 1.5 62t2.5 62l-2 205q0 35 2 75q1 29 8 43l86 201q5 9 6 9l1.5 1t2.5 2q2 0 1 -20q-1 -14 -1 -31l-10 -98l-6 -139q0 -90 43 -137
q35 -40 108 -62q63 -21 180 -37q112 -16 219 -16q67 0 118 3q24 1 53.5 2.5t63.5 4.5q177 15 368 67q194 51 391 138q78 31 154 69l42 22l50 27q48 25 71 36q28 15 72 34h0.5h1.5l41 51q2 2 4 6l1 1l37 43l61 71q-20 13 -30 21q-33 24 -33 32q0 28 26 73q26 48 55 81
q35 40 56 59q53 49 94 49q27 0 51 -20q23 -22 23 -37q0 -14 -9 -29q-12 -15 -26 -16q-11 0 -20 8q-30 23 -45 23q-25 0 -55 -24q-29 -25 -29 -46q0 -23 41 -37q42 -14 110 -14q28 0 72 18l22 10l23 11q26 5 31 -4q1 -13 -11 -25t-20 -15q-4 -2 -31 -14q-3 0 -47 -22
q-79 -41 -117 -67q-24 -16 -88 -62q-26 -19 -51 -41q-10 -8 -21 -23q-6 -6 -9 -10q-3 -8 -3 -14q0 -31 20 -55q49 -64 49 -74q0 -39 -41 -75q-42 -38 -63 -38q-12 0 -61 30q-48 30 -68 30q-37 0 -98 -45q-62 -45 -135 -90q-43 -26 -122 -66q-77 -39 -150 -72
q-114 -50 -195 -75q-137 -50 -338 -87q-206 -38 -355 -38q-96 0 -185 8q-98 10 -145 21z" />
    <glyph glyph-name="Omr_Keshide" unicode="&#xfecb;&#xfee4;&#x640;&#xfeae;" horiz-adv-x="2846" 
d="M1079 303q-252 18 -274 18q-25 -8 -50 -40q-26 -31 -36 -31q-29 19 -78 41q-45 18 -86 18q-115 0 -233 -153l-137 -191q-67 -95 -162 -166q-44 -32 -149 -92q-42 -23 -75 -36q-32 -15 -37 -7q-7 14 33 43l22 14.5t11 8.5q71 45 103 69q129 94 293 350q43 68 103 143
q56 69 105 115q35 31 71 53q48 28 66 37l60 18q1 2 9.5 15l23.5 37q11 22 18 22q32 -12 69 -23q45 -16 111 -28l45.5 -6.5t52.5 -6.5q59 -8 121 -8v0l80 -2q232 0 454 38q219 37 404 102q184 63 352 150q168 84 320 189q119 81 133 92q61 43 121 90l-49 20q-35 16 -35 45
q0 28 43 88q41 52 49 64q37 49 82 88q61 51 103 51q21 0 43 -17q22 -18 22 -44q0 -54 -45 -54q-6 0 -26 14q-22 13 -46 13q-21 0 -51 -25q-31 -25 -31 -45q0 -22 30 -40q29 -19 87 -19q46 0 90 19q19 7 72 38q28 19 49 21q10 1 15 -4t7 -9q0 -23 -36 -48l-60.5 -39.5
l-50.5 -34.5q-25 -17 -82 -62l-71 -59l-207 -164l-231 -174q-186 -133 -305 -194q-257 -131 -514 -202q-205 -60 -423 -84q-147 -17 -293 -17v1z" />
    <glyph glyph-name="Elm_Keshide" unicode="&#xfecb;&#xfee0;&#x640;&#xfee2;" horiz-adv-x="2285" 
d="M445 328l124 192h1l54 87q40 63 49 85q12 25 23 86q11 46 18 111l6.5 53.5t6.5 64.5q10 76 14 90q8 51 46 131q6 22 24 63l23 48q7 8 11 8q5 0 5 -16q-2 -26 -2 -23q-8 -50 -28 -188q-17 -133 -17 -158q0 -58 14 -96q16 -40 41 -69q46 -57 133.5 -76t153.5 -26
q92 -11 195 -11q96 0 212 19q119 19 259 61q94 25 245 92q146 63 213 100q23 12 45 25.5l43 25.5q44 28 94 63q-32 8 -59 28q-29 18 -29 36q0 13 26 52q26 41 64 91q49 63 86 94q35 29 69 29q33 0 54 -19q20 -19 22 -38q0 -51 -33 -51q-14 0 -36 11q-27 11 -39 11
q-24 0 -46 -21q-24 -23 -24 -40q0 -30 37 -44q36 -16 88 -16q29 0 57 13q32 13 80 43q33 20 53 20q11 0 15 -8q7 -16 -8 -30q-17 -17 -29 -25q-37 -24 -90 -64t-70 -51l-42.5 -31.5l-55.5 -42.5l-111 -86q-107 -84 -194 -141q-78 -51 -196 -112q-186 -97 -397 -155
q-204 -56 -397 -56q-158 0 -269 20v1q-35 5 -89 24q-48 16 -79 37q-43 29 -74 69q-1 3 -18 31l-98 -145q32 -11 38 -15l19.5 -10t34.5 -19q43 -25 43 -60q0 -12 -7 -23q-47 -114 -116 -153q-25 -16 -141 -43q-60 -16 -107 -37q-45 -23 -92 -53q-86 -65 -108 -119
q-29 -72 -50 -162q-6 -28 -16 -94l-25 -239q-20 -214 -20 -250l-14 -288q0 -64 -9 -162q-8 -97 -20 -97q-4 45 -6 70q-8 103 -8 135v105.5v99.5t0.5 92t1.5 84q0 174 24 350q26 176 66 299q12 41 33 86q42 85 92 149q20 25 61 66q40 36 66 55z" />
    <glyph glyph-name="Ghale_Keshide" unicode="&#xfecf;&#xfee0;&#x640;&#xfeea;" horiz-adv-x="2363" 
d="M795 136q-85 16 -153 60q-28 16 -56 44q-24 27 -26 27q-16 -29 -43 -83q-23 -48 -61 -89q-37 -43 -74 -65q-48 -31 -98 -31q-19 0 -72 18q-33 11 -45 11q-30 0 -70 -20q-39 -20 -62 -41q-24 -21 -34 -11q-8 9 -4 24q5 14 18 31q59 70 68 80q27 29 57 55q48 34 70 48
q48 26 88 26q20 0 43 -5q13 -3 43 -9q46 -7 78 22q33 29 40 72q17 88 17 157q0 28 14 148q16 116 39 208q6 18 42 97q38 80 58 106q3 -2 8 -2q0 -14 -8 -58l-17.5 -85l-16.5 -84q-25 -127 -25 -186q0 -173 182 -225v-1q74 -21 168 -31q90 -11 195 -11q96 0 212 19
q123 20 259 61q91 24 245 91q145 63 213 101q23 12 45 25.5l43 25.5q46 28 94 63q-33 9 -59 28q-29 19 -29 36q0 10 26 52q32 50 64 91q49 63 86 94q35 29 70 29q30 0 53 -19q20 -19 22 -39q0 -51 -32 -51q-12 0 -37 11q-26 12 -39 12q-21 0 -46 -22q-24 -21 -24 -40
q0 -28 37 -44q37 -15 88 -15q28 0 57 12q21 8 80 43q33 21 53 21q11 0 15 -8q7 -16 -7 -30q-21 -19 -30 -26q-23 -14 -90 -63q-53 -40 -70 -51l-42.5 -31.5l-55.5 -42.5q-98 -76 -110 -86q-111 -86 -195 -141q-83 -55 -196 -112q-187 -98 -397 -155q-209 -56 -397 -56
q-158 0 -269 20zM1370 1116q0 22 37.5 95.5t48.5 73.5q22 9 64 -33.5t45 -66.5q0 -32 -35 -92t-51 -60q-6 3 -41.5 26.5l-52.5 35.5q-15 10 -15 21z" />
    <glyph glyph-name="Ame_Keshide" unicode="&#xfecb;&#xfee4;&#x640;&#xfeea;" horiz-adv-x="2584" 
d="M680 8q-149 0 -304 25q-162 24 -217 55q-20 -25 -49 -88q-20 -38 -43 -86l-39 -78q-17 -29 -27 -26q-5 1 -5 10q0 8 9 31l90 216l39 86q28 58 45 86q37 66 72 56q131 -35 232 -53q105 -19 197 -19v0v0h119q241 0 505 63q196 48 362 117q107 43 246 119q108 59 188 112
l150 102l63 51l111 89l16 16l47 57h1q6 9 37 44q11 12 26 30l35 41q-32 20 -31 20q-32 24 -32 33q0 27 25 73q24 42 55 80q24 28 57 60q51 49 94 49q28 0 51 -21q22 -20 22 -36q0 -14 -9 -29t-25 -16q-12 0 -21 8q-28 22 -45 22q-24 0 -54 -23q-30 -24 -30 -46q0 -24 41 -37
q40 -15 111 -15q26 0 71 19q30 14 45 20q26 5 31 -4q1 -13 -10 -24q-12 -13 -21 -16q-20 -8 -30 -13q-3 0 -48 -22q-80 -42 -116 -67l-88 -62q-30 -21 -51 -41q-1 -1 -2.5 -2l-1.5 -1q-30 -30 -30 -44q0 -35 35 -74q35 -40 35 -55q0 -22 -37 -70q-39 -49 -61 -49
q-9 0 -45 20q-37 19 -58 19q-16 0 -223 -159l-69 -52l-60.5 -40.5l-68.5 -44.5q-127 -81 -193 -117q-108 -60 -231 -111q-225 -98 -474 -147q-215 -41 -414 -41z" />
    <glyph glyph-name="Oloo_Keshide" unicode="&#xfecb;&#xfee0;&#x640;&#xfeee;" horiz-adv-x="2106" 
d="M404 261q-3 -9 -11 -27q-6 -12 -21 -36q-15 -27 -34 -52q-33 -52 -53 -64q-16 -10 -53 -24q-16 -6 -72 -24l-110 -29q-6 -1 -13 -2.5t-15 -1.5q-15 -2 -17 2t19 18q25 15 27 16q-8 -6 77 46q55 33 77 51q62 44 99 82q36 39 36 66q-9 -4 -23 -7q-18 -2 -32 -2
q-40 8 -59 21q-33 19 -33 53q0 23 45 121q12 28 35 57q30 39 55 39q40 0 70 -29q35 -40 35 -80q-1 3 2 -12q6 4 19 17q40 37 65 96q10 29 15 88q2 38 8 112q3 30 7 60t7 60q5 57 12 79l35 82l35 75l14 29q6 5 10 0q4 -4 4 -16t-3 -33q-4 -27 -5 -31l-24 -168l-9 -110
q0 -37 10 -77q9 -37 31 -66q48 -60 136 -84v-1v0q74 -22 169 -31q99 -12 195 -12q90 0 212 20q117 19 258 60q92 26 246 92q161 71 213 100l45 26l43 26q46 28 94 63q-29 7 -59 28q-29 18 -29 35q0 14 26 53q32 50 64 91q52 66 86 94q33 28 69 28q33 0 54 -18q20 -19 22 -39
q0 -51 -33 -51q-11 0 -36 11q-26 12 -39 12q-23 0 -46 -22q-24 -21 -24 -40q0 -30 37 -44q37 -15 88 -15q28 0 57 12q24 10 80 43q33 21 53 21q12 0 15 -9q8 -15 -8 -29q-11 -12 -29 -26q-23 -14 -90 -63q-53 -40 -70 -51l-42.5 -31.5l-55.5 -42.5q-98 -76 -110 -86
q-111 -86 -195 -141q-89 -59 -196 -113q-194 -100 -397 -154q-204 -56 -397 -56q-160 0 -270 20v1v-1q-67 15 -109 37q-38 19 -78 55q-26 27 -37 43q-21 25 -24 25l-6 -4l-19 -31q-8 -14 -36 -53l-60 -76l-15 -16q-1 -9 -14 -35z" />
    <glyph glyph-name="Tanzim" unicode="&#xfe97;&#xfee8;&#xfec8;&#x6cc;&#xfee2;" horiz-adv-x="3104" 
d="M2912 991l26 -1.5t11 -0.5q18 0 27 13l29 55q14 26 26 25q8 -5 4 -28q-2 -14 -5 -24.5l-5 -17.5l-45 -106q-12 -25 -22 -32q-11 -8 -23 -9q-7 1 -12.5 2t-9.5 2v-1h-15q-24 0 -45 -9q-21 -11 -28 -23l-31 -54q-17 -28 -33 -50.5t-32 -39.5q-32 -38 -62 -61l-90 -43
l-22 -9q-65 -62 -148 -118q-62 -45 -132 -90l-67 -41t-55 -30q-132 -67 -260 -118.5t-256 -86.5q-194 -56 -421 -82q-70 -8 -142.5 -12t-149.5 -4q-60 1 -112.5 4t-98.5 9q-113 12 -158 34q-11 5 -32 20t-34 15q-59 -20 -107 -48.5t-96 -78.5l20 -8.5t13 -5.5q2 -1 15 -8
l38 -20q43 -24 43 -61q0 -10 -6 -22q-49 -117 -116 -153q-24 -17 -142 -43q-31 -8 -57.5 -17.5t-48.5 -19.5q-50 -25 -92 -54q-85 -63 -109 -118q-27 -68 -44.5 -134.5t-29 -137.5t-17.5 -150t-10.5 -171t-8.5 -200.5t-11 -238.5q0 -12 -1 -37t-3.5 -55t-6 -61.5t-8.5 -56.5
t-11 -39.5t-14 -10.5l1 205l-3 206q0 48 0.5 92.5t1.5 83.5q0 173 24 349q27 183 66 299q7 22 15 43t18 43q28 60 57.5 106t65 84t80 71t101.5 66l125 193q23 33 47.5 61t51.5 54t56.5 51l61.5 53q28 22 70 47q55 30 85 30q24 -21 106 -38q83 -17 215 -17l79 -2
q229 0 465 43q99 17 198 41.5t201 56.5q291 91 534 241q196 121 231 188q0 17 -26 31q-26 15 -60 15q-64 0 -127 -76l-115 -141q-35 -42 -49 -31q-7 6 4 26q5 10 10.5 17t10.5 12q15 23 24 38l13 22q14 26 26 79q10 47 17 94.5t12 98.5q0 5 2.5 30t7.5 70q9 73 17 94l85 188
q1 7 10 2q7 -7 7 -37q0 -7 -5 -24l-8 -23q-13 -50 -18.5 -98t-5.5 -102q0 -29 -12 -92q-5 -28 -10 -49.5t-9 -35.5t-7.5 -24l-5.5 -16l-13 -33l122 123q59 49 105 49q43 0 69 -32t23 -78q0 -84 -74 -188q2 1 7.5 6.5t30.5 28.5q7 6 16 18.5l22 31.5q19 27 50 86q23 47 41 70
q23 31 45 44q24 13 48 17zM2882 1703q0 13 41 90t50 77q17 7 49.5 -24.5t49.5 -55.5l44.5 74t32.5 41q25 0 59.5 -36.5t36.5 -68.5q0 -38 -37 -90q-36 -51 -53 -51q-11 0 -40 29t-51 45q-54 -109 -86 -109q-8 0 -23 13l-43.5 36t-29.5 30zM2591 1461q0 22 37.5 95.5
t48.5 73.5q22 9 64 -33.5t45 -66.5q0 -32 -35 -92t-51 -60q-6 3 -41.5 26.5l-52.5 35.5q-15 10 -15 21zM1832 1239q0 22 37.5 95.5t48.5 73.5q22 9 64 -33.5t45 -66.5q0 -32 -35 -92t-51 -60q-6 3 -41.5 26.5l-52.5 35.5q-15 10 -15 21zM926 -910q0 13 41 90t50 77
q17 7 49.5 -24.5t49.5 -55.5l44.5 74t32.5 41q25 0 59.5 -36.5t36.5 -68.5q0 -38 -37 -90q-36 -51 -53 -51q-11 0 -40 29t-51 45q-54 -109 -86 -109q-8 0 -23 13l-43.5 36t-29.5 30z" />
    <glyph glyph-name="GhezaKeshide" unicode="&#xfed7;&#xfec0;&#x640;&#xfe8e;" horiz-adv-x="2912" 
d="M2600 760q0 10 -26 26q-27 15 -56 15q-22 0 -47 -18q-11 -9 -43 -39l-36 -45l-23.5 -30l-15.5 -19q22 -2 26 -2q20 0 50 5q32 6 63 20q34 13 71 41q37 25 37 46zM147 139q-71 79 -71 225q0 50 4 129q6 123 22 246.5t29 246.5l80 206q5 10 7 2q-1 -31 -7 -88
q-9 -88 -18.5 -170.5t-16.5 -160.5q-14 -146 -14 -233q0 -81 14 -121q8 -24 31 -55q54 -78 157.5 -112.5t214.5 -41.5t191 -6q187 0 409 37q147 27 258 58q127 36 224 73q77 28 180 80q72 33 133 74q45 27 111 79l27.5 22.5l22.5 19.5q23 21 27 26q21 18 23 19q15 11 27 11
q5 0 14 -9q5 -6 14 -15q6 -6 24 -15q15 -10 40 -10q5 0 13 6q5 3 25 29l53.5 65.5l53.5 65.5q81 88 149 88q30 0 50 -23q20 -24 20 -55q0 -85 -70 -178q28 16 32 19l29 18.5t26 17.5q22 15 36 29q74 74 74 121q0 29 -11 53q-13 23 -28 23l-47 -7q-43 0 -59 31q-6 10 -6 27
q0 11 16 52q15 39 36 79q22 42 29 51q21 26 47 26q50 0 89 -60q40 -60 40 -124q0 -34 -7 -73q-8 -46 -27 -85q-22 -46 -37 -72q-19 -29 -45 -58q-42 -46 -74 -73q-23 -20 -72 -48q-48 -28 -57 -30q-36 -18 -81 -34q-49 -18 -70 -23q-3 -1 -5 -1.5t-4 -0.5q-50 -17 -100 -17
q-36 0 -67 11q-28 9 -53 28q-22 17 -26 28q-6 12 -14 12q-38 -38 -101 -92q-60 -54 -98 -81q-41 -31 -79 -53q-72 -48 -149 -86q-119 -60 -219 -99q-164 -64 -299 -94q-152 -34 -304 -52q-158 -19 -291 -19q-114 0 -253.5 24t-221.5 117zM2328 1501q0 13 41 90t50 77
q17 7 49.5 -24.5t49.5 -55.5l44.5 74t32.5 41q25 0 59.5 -36.5t36.5 -68.5q0 -38 -37 -90q-36 -51 -53 -51q-11 0 -40 29t-51 45q-54 -109 -86 -109q-8 0 -23 13l-43.5 36t-29.5 30zM1150 1076q0 22 37.5 95.5t48.5 73.5q22 9 64 -33.5t45 -66.5q0 -32 -35 -92t-51 -60
q-6 3 -41.5 26.5l-52.5 35.5q-15 10 -15 21z" />
    <glyph glyph-name="GhesaKeshide" unicode="&#xfed7;&#xfebc;&#x640;&#xfe8e;" horiz-adv-x="2907" 
d="M2605 760q0 10 -26 26q-27 15 -56 15q-22 0 -47 -18q-11 -9 -43 -39l-36 -45l-23.5 -30l-15.5 -19q22 -2 26 -2q20 0 50 5q32 6 63 20q34 13 71 41q37 25 37 46zM152 139q-71 79 -71 225q0 50 4 129q6 123 22 246.5t29 246.5l80 206q5 10 7 2q-1 -31 -7 -88
q-9 -88 -18.5 -170.5t-16.5 -160.5q-14 -146 -14 -233q0 -81 14 -121q8 -24 31 -55q54 -78 153.5 -109.5t221.5 -39.5q108 -11 188 -11q187 0 409 37q147 27 258 58q127 36 224 73q77 28 180 80q72 33 133 74q45 27 111 79l27.5 22.5l22.5 19.5q23 21 27 26q21 18 23 19
q15 11 27 11q5 0 14 -9q5 -6 14 -15q6 -6 24 -15q15 -10 40 -10q5 0 13 6q5 3 25 29l53.5 65.5l53.5 65.5q81 88 149 88q30 0 50 -23q20 -24 20 -55q0 -85 -70 -178q28 16 32 19l29 18.5t26 17.5q22 15 36 29q74 74 74 121q0 29 -11 53q-13 23 -28 23l-47 -7q-43 0 -59 31
q-6 10 -6 27q0 11 16 52q15 39 36 79q22 42 29 51q21 26 47 26q50 0 89 -60q40 -60 40 -124q0 -34 -7 -73q-8 -46 -27 -85q-22 -46 -37 -72q-19 -29 -45 -58q-42 -46 -74 -73q-23 -20 -72 -48q-48 -28 -57 -30q-36 -18 -81 -34q-49 -18 -70 -23q-3 -1 -5 -1.5t-4 -0.5
q-50 -17 -100 -17q-36 0 -67 11q-28 9 -53 28q-22 17 -26 28q-6 12 -14 12q-38 -38 -101 -92q-60 -54 -98 -81q-41 -31 -79 -53q-72 -48 -149 -86q-119 -60 -219 -99q-164 -64 -299 -94q-152 -34 -304 -52q-158 -19 -291 -19q-114 0 -253.5 24t-221.5 117zM2340 1500
q0 13 41 90t50 77q17 7 49.5 -24.5t49.5 -55.5l44.5 74t32.5 41q25 0 59.5 -36.5t36.5 -68.5q0 -38 -37 -90q-36 -51 -53 -51q-11 0 -40 29t-51 45q-54 -109 -86 -109q-8 0 -23 13l-43.5 36t-29.5 30z" />
    <glyph glyph-name="GheseKeshide" unicode="&#xfed7;&#xfebc;&#x640;&#xfeea;" horiz-adv-x="2824" 
d="M2695 923q0 29 -11 53q-13 23 -28 23l-47 -6q-43 0 -59 30q-6 10 -6 27q0 11 16 52q15 39 36 79q14 27 29 51q21 27 48 27q47 0 89 -61q40 -62 40 -123q0 -30 -8 -74q-8 -47 -26 -85q-18 -39 -38 -72q-18 -29 -45 -58q-42 -46 -74 -73q-27 -22 -71 -48q-45 -25 -58 -30
q-34 -17 -80 -34q-34 -13 -68 -22q-5 -3 -9.5 -4.5t-8.5 -3.5q-62 -24 -109 -24q-56 0 -90 12q-34 11 -63 47q-6 5 -11 19q-6 16 -18 16l-29 -31q-69 -80 -90 -102q-56 -58 -139 -126q-78 -64 -167 -120q-115 -73 -289 -139q-156 -60 -288 -86q-112 -21 -197 -29
q-91 -9 -140 -9v0q-144 0 -305 24q-156 23 -216 55q-17 -21 -49 -87l-20 -40.5l-23 -45.5l-39 -78q-16 -29 -27 -27q-6 1 -6 11q0 8 10 30l90 217l39 86q24 48 45 86q38 65 72 55q120 -32 232 -52q110 -20 197 -20v0l63 -4q211 0 446 59q194 49 356 129q143 72 253 154
q93 70 192 170q13 12 37 38q18 17 33 17q8 0 38 -28q28 -27 70 -27q12 9 37 42q73 96 100 123q37 41 72 70q53 43 96 43q47 0 68 -25q20 -25 20 -67q0 -35 -33 -107q-21 -48 -50 -89q20 10 46 26l29.5 19t26.5 18q25 18 36 28q73 76 73 121zM2498 847q0 8 -30 17
q-32 8 -60 8q-53 0 -109 -61q-17 -19 -67 -90q0 -7 22 -7q18 0 53 7q35 6 55 14q57 23 97 57q39 33 39 55zM2299 1572q0 13 41 90t50 77q17 7 49.5 -24.5t49.5 -55.5l44.5 74t32.5 41q25 0 59.5 -36.5t36.5 -68.5q0 -38 -37 -90q-36 -51 -53 -51q-11 0 -40 29t-51 45
q-54 -109 -86 -109q-8 0 -23 13l-43.5 36t-29.5 30z" />
    <glyph glyph-name="GhalbKeshide" unicode="&#xfed7;&#xfee0;&#x640;&#xfe90;" horiz-adv-x="3361" 
d="M3042 531q-84 0 -119 53q-9 -6 -18 -18l-37 -47q-16 -20 -31 -33q-12 -10 -26 -10l-35 4v1q0 -1 -0.5 -1.5l-0.5 -0.5l-30 12q-15 6 -32 6q-11 0 -17 -2q-9 -2 -122 -104q-65 -59 -161 -110q-122 -69 -324 -121q-152 -41 -393 -80q-248 -41 -499 -60q-257 -20 -455 -20
q-277 0 -413 14q-130 14 -186 48q-52 30 -75 75q-22 45 -22 109v30q0 13 0.5 25t0.5 24q2 21 12 17q136 -83 472 -111q181 -14 482 -14q354 0 678 39q411 49 681 152q98 35 180 83q48 27 137 100q16 15 37 15q5 0 49 -8q0 -1 0.5 -1.5l0.5 -0.5v2q16 0 30 -5q16 -5 21 -5
q20 0 31 16q10 15 18 58q2 10 4 41q2 26 2 35v4.5v5.5v1q0 17 1 40.5t3 53.5q5 68 10 100q3 27 11 81q6 42 12 55q39 98 41 101q40 89 59 116q6 2 10 -4q2 -5 -1 -22l-37 -195l-10.5 -63l-7.5 -45q-5 -42 -5 -60q0 -15 0.5 -30.5t0.5 -30.5q6 -31 21 -50q17 -27 49 -41
q31 -15 60 -15q124 0 168 90q-12 19 -17 24q-12 12 -28 12q-2 0 -23 -9q-20 -9 -32 -9q-46 0 -62 35q-9 14 -2 37q6 22 12 39q27 68 49 100q33 47 64 47q38 0 79 -46q40 -48 40 -114q0 -65 -38 -157q-41 -96 -87 -154q-30 -38 -55 -59q-54 -45 -125 -45zM3072 1519
q0 13 41 90t50 77q17 7 49.5 -24.5t49.5 -55.5l44.5 74t32.5 41q25 0 59.5 -36.5t36.5 -68.5q0 -38 -37 -90q-36 -51 -53 -51q-11 0 -40 29t-51 45q-54 -109 -86 -109q-8 0 -23 13l-43.5 36t-29.5 30zM1015 -610q0 22 37.5 95.5t48.5 73.5q22 9 64 -33.5t45 -66.5
q0 -32 -35 -92t-51 -60q-6 3 -41.5 26.5l-52.5 35.5q-15 10 -15 21z" />
    <glyph glyph-name="FalaghKeshide" unicode="&#xfed3;&#xfee0;&#x640;&#xfed6;" horiz-adv-x="3067" 
d="M938 405q-4 -62 -17 -116q-18 -84 -44 -154q-31 -82 -82 -170q-35 -59 -78 -110q-84 -109 -179 -164q-96 -58 -218 -58q-130 0 -200 89q-62 80 -62 204q0 58 14 135q12 69 44 142q23 58 67 133q15 24 57 96q7 14 17 28q10 13 16 7q15 -15 -22 -86l-39 -70
q-27 -61 -52 -134q-22 -76 -22 -109q0 -120 76 -170q63 -41 172 -41q98 0 171 31q118 46 203 161q41 55 69 126q27 70 27 136q0 72 -41 72q-24 -6 -41 -6q-35 0 -62 18t-22 47q10 29 25 61q6 9 13.5 24l17.5 36q14 28 42 57t52 29q45 0 72 -56q16 -31 21 -65q7 4 19 16
q40 37 66 97q10 26 14 87q3 29 5 57t3 56q9 61 15 120q7 59 12 78l35 82l34 76l15 29q6 2 10 0q4 -4 4 -17q0 -12 -3 -33q-1 -10 -2.5 -18t-2.5 -12l-25 -168q-2 -40 -8 -110q0 -41 9 -77q9 -35 32 -67q46 -58 135 -83v-1v0q75 -21 169 -32q104 -11 196 -11q91 0 211 20
q118 19 247 57q119 34 266 97q144 64 203 98q127 72 219 147q75 60 115 117q0 16 -16 37q-16 20 -29 20q-6 -4 -17 -9q-10 -5 -28 -5q-32 0 -48 21q-18 22 -18 42q0 19 17 52q7 16 15 30.5t14 27.5q18 34 28 50q27 39 59 39q45 0 86 -51q41 -52 41 -123q0 -39 -12 -79
q-12 -37 -43 -92q-30 -49 -90 -122q-73 -84 -131 -129q-113 -86 -193 -137q-96 -62 -197 -114q-195 -100 -397 -154q-205 -57 -397 -57q-160 0 -270 21v1v-1q-67 15 -108 37q-44 23 -78 55q-16 16 -38 43q-19 25 -23 25l-7 -4q-6 -11 -18 -31q-15 -26 -37 -53zM417 992
q0 13 41 90t50 77q17 7 49.5 -24.5t49.5 -55.5l44.5 74t32.5 41q25 0 59.5 -36.5t36.5 -68.5q0 -38 -37 -90q-36 -51 -53 -51q-11 0 -40 29t-51 45q-54 -109 -86 -109q-8 0 -23 13l-43.5 36t-29.5 30zM1915 1344q0 22 37.5 95.5t48.5 73.5q22 9 64 -33.5t45 -66.5
q0 -32 -35 -92t-51 -60q-6 3 -41.5 26.5l-52.5 35.5q-15 10 -15 21z" />
    <glyph glyph-name="FalakKeshide" unicode="&#xfed3;&#xfee0;&#x640;&#xfb8f;" horiz-adv-x="3211" 
d="M2841 269q-88 0 -123 58q-27 -83 -49 -132q-26 -56 -57 -93q-49 -55 -99 -55q-70 0 -89 94q-11 47 -11 153v0q0 23 7 95q3 30 8.5 67l11.5 80q1 13 5 35q2 16 -5 16q-21 -37 -41 -63q-54 -73 -135 -131q-96 -72 -229 -133q-68 -33 -158 -66q-207 -79 -460 -124
q-213 -39 -450 -58q-162 -12 -350 -12q-214 0 -343 16q-51 5 -113 26q-60 19 -82 83q-14 40 -14 110q0 30 2 58q1 22 8 22l42 -14q38 -15 83 -25q229 -57 538 -57q251 0 530 27q273 25 505 85q124 32 233 72q165 61 293 145q66 44 106 99q28 37 53 100l35 122l15.5 34
l19.5 43q23 51 43 87q12 19 19 16q7 -2 7 -10l-26.5 -122.5l-26.5 -120.5q-45 -224 -45 -342v0q0 -68 4 -104q11 -82 82 -82q58 0 76 51q6 13 11 48q2 18 4 31.5t3 22.5l2 64l15 225q0 52 8 124q7 81 12 90l61 131q16 36 27 45q2 -4 6 -10l-14 -125q-5 -37 -9.5 -78.5
l-9.5 -87.5q-10 -104 -10 -154v0v-27v-26q4 -34 22 -58q17 -26 49 -41q30 -16 61 -16q125 0 167 90q-11 19 -16 25q-12 12 -29 12q-3 0 -22 -9q-21 -9 -33 -9q-46 0 -62 35q-8 12 -1 36q2 13 12 39q24 66 49 100q32 47 63 47q40 0 79 -46q40 -45 40 -113q0 -65 -38 -157
t-87 -154q-30 -39 -55 -59q-54 -45 -125 -45zM2684 1198q46 50 193 168l262 211q82 67 180 157l70 67l91 88q154 149 154 152q0 -9 -5 -19q-6 -27 -38 -85q-30 -53 -56 -86q-26 -35 -70 -85q-43 -48 -61 -65q-26 -26 -104 -96l-166 -143l-74 -61l-65 -52l-163 -125
l-142 -110l-58 -46q-28 -22 -32 -15q13 36 37 82q22 38 47 63zM2784 1623q0 -11 15 -21l52.5 -35.5t41.5 -26.5q16 0 51 60t35 92q-3 24 -45 66.5t-64 33.5q-11 0 -48.5 -73.5t-37.5 -95.5z" />
    <glyph glyph-name="GhalamKeshide" unicode="&#xfed7;&#xfee0;&#x640;&#xfee2;" horiz-adv-x="2577" 
d="M832 20v0q-36 5 -89 24q-54 19 -79 37q-45 31 -73 70q-7 9 -19 30l-98 -145q30 -11 39 -15q4 -3 53 -29q43 -24 43 -60q0 -10 -6 -23q-50 -114 -117 -153q-26 -16 -140 -43q-53 -13 -107 -37q-52 -26 -92 -53q-84 -63 -108 -118q-30 -76 -49 -162q-5 -19 -17 -94
q-1 -16 -7.5 -76t-16.5 -164q-21 -209 -21 -249l-14 -288q0 -65 -9 -163q-9 -97 -20 -97q-1 22 -3 39.5t-3 30.5q-8 103 -8 135v107v99t1 91.5t1 83.5q0 177 25 350q24 172 65 299q13 44 33 86q41 85 92 150q23 28 61 65q35 31 66 55l86 57l124 193v0l54 86q41 68 49 85
q8 18 24 86q12 66 17 111q3 24 6 53.5t7 65.5q9 69 15 90q6 48 45 131q5 20 24 62l23 48q5 8 11 8q5 0 5 -16q-2 -24 -2 -23q-11 -58 -27 -188q-18 -129 -18 -157q0 -59 14 -97q14 -35 41 -69q42 -54 119 -70v0q62 -20 169 -32q103 -11 195 -11q99 0 212 20q117 18 246 57
q133 38 266 97q132 56 205 98q126 72 219 147q77 63 115 117q0 14 -16 37q-15 21 -30 21q-5 -4 -16 -10q-12 -5 -29 -5q-31 0 -48 22q-17 21 -17 42t16 52l30 57q18 34 28 50q25 39 59 39q45 0 86 -51q41 -52 41 -123q0 -40 -13 -79q-13 -41 -42 -92q-30 -49 -90 -122
q-72 -83 -132 -128q-101 -81 -193 -139q-93 -59 -197 -113q-186 -97 -397 -155q-209 -56 -397 -56q-162 0 -270 21zM1297 1005q0 13 41 90t50 77q17 7 49.5 -24.5t49.5 -55.5l44.5 74t32.5 41q25 0 59.5 -36.5t36.5 -68.5q0 -38 -37 -90q-36 -51 -53 -51q-11 0 -40 29
t-51 45q-54 -109 -86 -109q-8 0 -23 13l-43.5 36t-29.5 30z" />
    <glyph glyph-name="GhamarKeshide" unicode="&#xfed7;&#xfee4;&#x640;&#xfeae;" horiz-adv-x="2980" 
d="M2849 1081q0 18 -15 38q-15 19 -30 19l-7 -4.5t-9 -4.5q-12 -5 -29 -5q-31 0 -48 22q-17 21 -17 41q0 22 16 53l30 57q5 12 27 50q27 39 60 39q44 0 86 -51q40 -51 40 -123q0 -26 -6 -53q-13 -58 -48 -116q-36 -59 -66 -99q-50 -63 -109 -115q-86 -75 -194 -151
q-147 -102 -274 -167q-250 -129 -514 -203q-205 -60 -423 -84q-137 -16 -292 -16v1l-1 -1q-245 19 -274 19q-26 -10 -50 -40q-26 -32 -36 -32q-37 25 -78 41q-44 18 -85 18q-114 0 -233 -153q-75 -109 -137 -190q-66 -96 -161 -166q-36 -27 -150 -92q-21 -12 -40 -21
l-35 -16q-32 -15 -37 -6q-9 13 32 43l33 22q72 45 105 70q131 96 292 350q38 57 103 142q63 76 106 115q24 23 70 54q34 21 66 37l59 18q4 4 33 51q12 23 18 23q22 -10 70 -24q46 -14 110 -28l46 -6.5t52 -6.5q51 -7 121 -7l1 -1l79 -2q231 0 452 37q212 37 401 101
q190 66 368 157q170 86 309 182q86 58 149 114q64 58 64 70zM1485 1354q0 13 41 90t50 77q17 7 49.5 -24.5t49.5 -55.5l44.5 74t32.5 41q25 0 59.5 -36.5t36.5 -68.5q0 -38 -37 -90q-36 -51 -53 -51q-11 0 -40 29t-51 45q-54 -109 -86 -109q-8 0 -23 13l-43.5 36t-29.5 30z
" />
    <glyph glyph-name="FahadKeshide" unicode="&#xfed3;&#xfbab;&#x640;&#xfeaa;" horiz-adv-x="2605" 
d="M629 18l-32 8q-133 38 -193 125q-28 39 -49 123l-30 -59.5l-29 -59.5q-23 -39 -49 -55q-62 -45 -147 -66q-27 -6 -72 -12q-10 8 14 29q83 66 126 103q51 44 85 87q48 60 86 125q28 50 54 131l22.5 70.5t17.5 54.5q34 106 55 106q8 0 7 -15q-2 -8 -7.5 -34l-15.5 -70
q-20 -83 -20 -147q0 -98 87 -164q24 -16 32 -19q6 -3 20.5 -8.5t38.5 -13.5v0q52 -17 126 -27q73 -12 143 -12h47q123 0 234 21q163 28 433 127q107 39 182 75q71 30 138 76q12 9 14 13q11 19 14 26l48 85.5l48 86.5q78 119 148 119q48 0 78 -45v-1v0v0q15 25 45 58
q31 33 78 67q8 7 39 26l27.5 17t21.5 15q4 2 20 16q13 13 13 18l-20 32.5t-27 19.5q-2 -2 -4 -3.5t-5 -4.5q-9 -5 -30 -5q-26 0 -43 19q-18 18 -18 45q0 12 13 43q18 40 31 64q18 32 33 52q21 29 41 29q43 0 78 -53q35 -55 35 -119q0 -59 -20 -105q-20 -47 -60 -87
q-14 -14 -44 -32q-25 -15 -57 -31q-78 -48 -85 -68v0q3 -2 9 0q25 8 37 8q39 0 60 -12q22 -12 22 -49q0 -42 -53 -119q-39 -56 -82 -84l-55 -14q-33 -6 -86 -19q-38 -8 -88 -28l-110 -71l-105 -68q-128 -83 -221 -129q-273 -133 -508 -187q-175 -40 -362 -40q-56 0 -90 3
q-39 3 -84 13zM2409 708q0 13 -17 21q-17 7 -34 7q-51 0 -98 -53q-29 -34 -61 -84q-16 -24 -25 -41q22 6 67 28q51 24 66 34q44 23 74 47q28 22 28 41zM2223 714q0 34 -59 34q-27 0 -52 -21q-28 -23 -49 -57q-26 -39 -44 -75q-21 -39 -27 -51q35 14 72 32q18 7 63 33
q37 21 68 45q28 26 28 60zM2204 1612q0 22 37.5 95.5t48.5 73.5q22 9 64 -33.5t45 -66.5q0 -32 -35 -92t-51 -60q-6 3 -41.5 26.5l-52.5 35.5q-15 10 -15 21z" />
    <glyph glyph-name="GhahrKeshide" unicode="&#xfed7;&#xfbab;&#x640;&#xfeae;" horiz-adv-x="3002" 
d="M884 3q-135 0 -282 22q-136 20 -199 44l-32 12q-9 2 -18 -7q-5 -7 -17 -28q-74 -148 -117 -212q-22 -33 -48 -57t-62 -31q-6 -2 -21 -2q-33 0 -33 26q0 33 64 96q31 28 59 62q33 37 55 72q13 20 24.5 40l23.5 41q34 62 65 129q19 33 41 53q30 27 65 27q13 0 21 -2
q129 -37 216 -52q95 -18 195 -18l1 -1v1l151 -6q271 0 491 39q157 27 344 88q102 31 207 74q121 48 227 112q19 33 37 70l31.5 53l39.5 66q107 165 164 165q34 0 57 -22q11 -11 27 -35l0.5 -0.5l0.5 -0.5v0q16 25 45 58q27 28 78 67l38 26q18 10 49 31q12 9 20 17
q13 11 13 18q-5 11 -12 25q-18 26 -35 26q-4 -4 -9 -7q-8 -5 -30 -5q-23 0 -43 18q-18 19 -18 45q0 14 13 43q9 20 32 65q20 35 33 52q23 29 40 29q44 0 78 -54q35 -54 35 -118q0 -61 -19 -106q-18 -44 -61 -87q-15 -16 -44 -31q-19 -12 -57 -31q-30 -15 -58 -36l-25 -31
q27 12 69 12q22 0 50 -16q28 -15 28 -42q0 -36 -31 -84q-24 -39 -55 -71l-31 -25q-23 -19 -34 -24q-9 -6 -47 -18q-43 -13 -52 -15q-60 -17 -91 -29q-37 -14 -60 -31q-168 -106 -258 -155q-63 -35 -208 -101q-130 -62 -271 -108q-172 -56 -384 -91q-213 -34 -465 -34v2z
M2794 716q9 8 -5 26q-14 19 -40 19h-23q-20 0 -50 -22q-28 -22 -54 -55l-49 -68q-18 -28 -31 -52l142 66q31 18 64 42q31 22 46 44zM2600 732q0 8 -20 24q-19 17 -42 13q-28 -6 -48 -26q-21 -22 -50 -62q-2 -3 -12 -19t-29 -43l-45 -71q29 12 51 20q41 26 55 33q56 23 98 59
t42 72zM2481 1664q0 13 41 90t50 77q17 7 49.5 -24.5t49.5 -55.5l44.5 74t32.5 41q25 0 59.5 -36.5t36.5 -68.5q0 -38 -37 -90q-36 -51 -53 -51q-11 0 -40 29t-51 45q-54 -109 -86 -109q-8 0 -23 13l-43.5 36t-29.5 30z" />
    <glyph glyph-name="GhahaKeshide" unicode="&#xfed7;&#xfbab;&#x640;&#xfe8e;" horiz-adv-x="2334" 
d="M351 18q-135 32 -207 112q-71 79 -71 225q0 50 4 129q4 72 12 145l39 348l80 206q3 8 6 2q-3 -27 -6 -87l-18.5 -171.5l-16.5 -160.5q-14 -146 -14 -233q0 -81 14 -121q8 -24 31 -55q47 -68 148 -101q54 -17 126 -27q67 -11 191 -11q127 0 233 20q174 32 433 127
q105 39 183 75q80 37 137 76q12 9 14 13q11 19 14 26l97 172q76 119 147 119q49 0 78 -45v-1v0v1q16 25 45 57q31 33 78 67q4 3 39 26l49 32q6 3 19 16q14 12 14 19q-31 51 -47 51q-3 -3 -10 -7q-6 -6 -29 -6q-24 0 -43 19q-18 18 -18 45q0 12 13 43q18 41 32 64
q16 30 32 52q22 29 41 29q43 0 78 -53q35 -55 35 -119q0 -58 -20 -105t-60 -87q-14 -14 -44 -32l-29.5 -17t-27.5 -14q-25 -11 -59 -35l-26 -33v0q3 -2 9 0q30 8 37 8q39 0 60 -12q22 -12 22 -49q0 -42 -53 -119q-39 -56 -82 -84l-55 -14l-86 -18q-40 -10 -88 -29l-110 -71
l-105 -68q-128 -83 -221 -129q-272 -131 -508 -185q-173 -41 -362 -41q-56 0 -92.5 3.5t-81.5 12.5zM2131 707q0 13 -17 21q-16 7 -34 7q-52 0 -98 -53q-29 -34 -61 -84q-11 -15 -25 -41q13 3 67 28q35 16 66 34q44 23 74 47q28 22 28 41zM1945 713q0 35 -59 35
q-26 0 -52 -22q-28 -23 -49 -57q-26 -39 -44 -75q-21 -39 -27 -51l39 17l33 15q32 15 63 34q42 24 68 44q28 26 28 60zM1882 1629q0 13 41 90t50 77q17 7 49.5 -24.5t49.5 -55.5l44.5 74t32.5 41q25 0 59.5 -36.5t36.5 -68.5q0 -38 -37 -90q-36 -51 -53 -51q-11 0 -40 29
t-51 45q-54 -109 -86 -109q-8 0 -23 13l-43.5 36t-29.5 30z" />
    <glyph glyph-name="Bekola" unicode="&#xfe91;&#xfb91;&#xfefc;" horiz-adv-x="995" 
d="M384 42q-1 -9 -4 -14q-8 -30 -21 -64q-16 -46 -39 -84q-34 -58 -65 -86q-47 -41 -97 -41q-27 0 -50 13q-22 12 -40 32q-16 13 -20 17q-14 11 -14 26q0 10 9 24l21 30q6 7 15 24q9 12 17 43q7 24 10 70q3 42 3 73v31v32q0 43 -2 66q0 93 27 201q16 62 61 198q4 8 5 9
q2 1 3.5 2.5t1.5 2.5q7 0 7 -36q0 -5 -2 -59q-3 -42 -3 -52l-14 -260q0 -42 -8 -106q-9 -63 -25 -115q-24 -81 -63 -141q2 -4 16 -4h14h11q56 0 107 48q52 47 73 116q6 16 10 62q4 37 4 73v7.5v8.5q0 6 -0.5 13.5t-0.5 15.5q0 4 1 6q0 8 -0.5 15.5t-1.5 14.5q0 15 -1.5 30
t-2.5 30q0 30 0.5 61.5t0.5 63.5q2 67 23 147q21 81 76 182q10 10 13 8q4 -2 0 -32l-6 -56q-11 -92 -11 -124l-1 -46q4 6 5 7q11 8 97 98l165 180l103 113l104 114q127 141 219 276q12 27 19 27q4 -6 4 -14q-9 -35 -21 -68q-23 -58 -74 -137q-35 -56 -92 -127
q-72 -91 -163 -192l-246 -272l2 -1q19 3 68 -3q46 -5 161 -33q42 -11 57 -11q21 0 43 26q22 29 30 52q4 13 19 36q13 20 20 19q11 -2 11 -18q0 -11 -5 -29q-9 -49 -43 -114q-38 -72 -77 -90q-12 -7 -41 1q-27 7 -41 7l-2 1l1 -1q-9 0 -19 -41q-11 -41 -18 -63
q-49 -125 -74 -164q-63 -96 -162 -96q-49 0 -87 41zM676 353q0 44 -71 63q-41 11 -88 11q-36 0 -50 -7q-39 -18 -39 -79q0 -45 18 -76q25 -45 81 -45q65 0 107 46t42 87zM726 -395q0 -11 15 -21l52.5 -35.5t41.5 -26.5q16 0 51 60t35 92q-3 24 -45 66.5t-64 33.5
q-11 0 -48.5 -73.5t-37.5 -95.5z" />
    <glyph glyph-name="Bin" unicode="&#xfe91;&#xfbff;&#xfee6;" horiz-adv-x="1347" 
d="M1048 612q21 10 42 37q21 26 43 69l18 37l14 27q18 37 30 37q18 0 15 -21l-4 -28q0 -36 18 -58q17 -22 41 -22q22 0 31 16q8 19 11 28q2 10 13 9q4 0 6 -5t4 -14q0 -58 -39 -139q-47 -94 -100 -94q-23 0 -41 10q-15 9 -25 25q-12 20 -15 26q-5 11 -9 11q-11 0 -27 -24
q-9 -12 -16 -20.5t-10 -12.5v0q-20 -20 -36 -29q-16 -10 -44 -13q-26 -3 -33 -15q-7 -14 -12 -58l-12 -80q-6 -35 -12 -61q-6 -24 -15 -57q-16 -54 -57 -151q-75 -171 -190 -274q-136 -125 -301 -125q-141 0 -204 86q-56 71 -56 200q0 62 21 152q12 58 31 108l57 131
q13 26 41 78q22 40 37 40q10 -6 6 -24q-5 -18 -21 -56q-13 -30 -22.5 -50l-14.5 -31q-27 -62 -40 -107q-19 -62 -19 -118q0 -88 62 -142q64 -55 171 -55q123 0 218 54q93 51 161 155q51 79 72 157q22 74 22 170l2 123q0 38 26 64q25 28 60 22h35q44 0 67 12zM576 -666
q0 -6 29.5 -30l43.5 -36q15 -13 23 -13q32 0 86 109q22 -16 51 -45t40 -29q17 0 53 51q37 52 37 90q-2 32 -36.5 68.5t-59.5 36.5q-8 0 -32.5 -41l-44.5 -74q-17 24 -49.5 55.5t-49.5 24.5q-9 0 -50 -77t-41 -90zM431 257q0 -11 15 -21l52.5 -35.5t41.5 -26.5q16 0 51 60
t35 92q-3 24 -45 66.5t-64 33.5q-11 0 -48.5 -73.5t-37.5 -95.5zM1101 -597q0 -11 15 -21l52.5 -35.5t41.5 -26.5q16 0 51 60t35 92q-3 24 -45 66.5t-64 33.5q-11 0 -48.5 -73.5t-37.5 -95.5z" />
    <glyph glyph-name="Piish" unicode="&#xfb58;&#xfbff;&#xfeb6;" horiz-adv-x="1559" 
d="M1272 592q-24 -2 -41 9l-41 -45l-22 -22l-1 -1q-28 -28 -63 -37q-8 0 -16 -4l-39 -18q-10 -4 -20 -4h-8.5h-6.5q-31 -26 -100 -43l-8 -72q-20 -122 -29 -163q-33 -140 -90 -246q-81 -153 -184 -233q-112 -88 -254 -88q-121 0 -188 94q-59 82 -59 215q0 71 17 161
q18 85 36 138q34 98 65 151q21 35 31 35q15 -2 -6 -54l-21 -59l-20 -57q-11 -40 -24 -95q-11 -54 -11 -93q0 -124 76 -174q57 -39 157 -39q76 0 133 16q95 27 164 96q36 37 77 115q40 76 53 141q11 58 13 96q2 24 2 82v82q0 32 9 53q7 20 34 20q21 -12 51 -12q37 0 64 23
l12 12l12 12q5 0 15 -8q9 -8 24 -8q16 0 35 26l6 10t6 11q12 -6 29 -6q17 2 26 8v0q17 10 17 22q0 3 -5 15q-10 28 -10 49q0 74 45 170q15 31 33 53q18 23 25 20q7 -2 3 -23q-14 -47 2 -87t70 -41q18 1 31 22q12 23 14 23q11 0 11 -25q0 -35 -17 -86q-9 -28 -18 -46
q-40 -87 -96 -91zM1115 -247q0 12 40.5 91.5t49.5 79.5q16 0 49 -29.5t44 -54.5l40 69q28 49 35 49q23 0 57 -34q35 -39 35 -71q0 -37 -35 -92q-34 -53 -50 -53q-12 0 -35 25q-32 35 -53 51q-52 -112 -82 -112q-7 0 -51 37t-44 44zM1209 -434q1 10 40 79.5t48 68.5
q24 -2 52.5 -37t26.5 -67q-2 -35 -33 -86q-32 -49 -44 -49q-8 1 -19 15l-31 32l-26.5 23t-13.5 21zM639 -643q0 13 41 90t50 77q17 7 49.5 -24.5t49.5 -55.5l44.5 74t32.5 41q25 0 59.5 -36.5t36.5 -68.5q0 -38 -37 -90q-36 -51 -53 -51q-11 0 -40 29t-51 45
q-54 -109 -86 -109q-8 0 -23 13l-43.5 36t-29.5 30zM548 1034q0 12 42.5 91t52.5 79q16 0 50.5 -29t46.5 -55l42 70q29 48 36 48q24 0 61 -34q36 -38 36 -70q0 -37 -36 -92q-37 -53 -53 -53q-13 0 -37 25q-33 35 -55 51q-55 -112 -86 -112q-7 0 -53.5 37t-46.5 44zM639 1282
q0 10 37.5 88.5t48.5 78.5q28 0 62 -34q34 -38 34 -73q0 -33 -31.5 -91t-46.5 -58q-9 0 -40 27.5t-47.5 39.5t-16.5 22z" />
    <glyph glyph-name="Piyes" unicode="&#xfb58;&#xfbff;&#xfeb2;" horiz-adv-x="1413" 
d="M1238 586q-24 -2 -41 9l-41 -45l-22 -22l-1 -1q-28 -28 -63 -37q-8 0 -16 -4l-39 -18q-10 -4 -20 -4h-8.5h-6.5q-31 -26 -100 -43l-8 -72q-20 -122 -29 -163q-33 -140 -90 -246q-81 -153 -184 -233q-112 -88 -254 -88q-121 0 -188 94q-59 82 -59 215q0 71 17 161
q18 85 36 138q34 98 65 151q21 35 31 35q15 -2 -6 -54l-21 -59l-20 -57q-11 -40 -24 -95q-11 -54 -11 -93q0 -124 76 -174q57 -39 157 -39q76 0 133 16q95 27 164 96q36 37 77 115q40 76 53 141q11 58 13 96q2 24 2 82v82q0 32 9 53q7 20 34 20q21 -12 51 -12q37 0 64 23
l12 12l12 12q5 0 15 -8q9 -8 24 -8q16 0 35 26l6 10t6 11q12 -6 29 -6q17 2 26 8v0q17 10 17 22q0 3 -5 15q-10 28 -10 49q0 74 45 170q15 31 33 53q18 23 25 20q7 -2 3 -23q-14 -47 2 -87t70 -41q18 1 31 22q12 23 14 23q11 0 11 -25q0 -35 -17 -86q-9 -28 -18 -46
q-40 -87 -96 -91zM1053 -324q0 -7 44 -44t51 -37q30 0 82 112q21 -16 53 -51q23 -25 35 -25q16 0 50 53q35 55 35 92q0 32 -35 71q-34 34 -57 34q-7 0 -35 -49l-40 -69q-11 25 -44 54.5t-49 29.5q-9 0 -49.5 -79.5t-40.5 -91.5zM1147 -511q0 -9 13.5 -21l26.5 -23l31 -32
q11 -14 19 -15q12 0 44 49q31 51 33 86q2 32 -26.5 67t-52.5 37q-9 1 -48 -68.5t-40 -79.5zM521 -586q0 -6 29.5 -30l43.5 -36q15 -13 23 -13q32 0 86 109q22 -16 51 -45t40 -29q17 0 53 51q37 52 37 90q-2 32 -36.5 68.5t-59.5 36.5q-8 0 -32.5 -41l-44.5 -74
q-17 24 -49.5 55.5t-49.5 24.5q-9 0 -50 -77t-41 -90z" />
    <glyph glyph-name="Pich" unicode="&#xfb58;&#xfbff;&#xfb7b;" horiz-adv-x="1105" 
d="M715 794v1q-27 5 -50.5 17t-51.5 12q-137 0 -230 -105l123 6q79 0 104 -9q28 -9 28 -35q0 -41 -49 -76l-91 -61q-91 -66 -162 -142q-31 -30 -72 -88q-39 -57 -57 -102q-26 -65 -32 -105q-5 -40 -5 -50q0 -154 103 -221q81 -53 218 -53q104 0 190 33q41 15 104 55
q66 42 125 104q40 44 76 96q45 69 57 68q6 -4 -1 -23q-13 -32 -32 -69q-34 -67 -77 -131q-69 -98 -154 -171q-89 -77 -169 -115q-114 -53 -243 -53q-146 0 -223 92q-70 80 -70 217q0 44 6 97q5 49 35 131q45 127 115 227q39 57 96 119q9 11 56 53q51 44 67 56l46 36
q21 16 21 20q-6 24 -123 21q-21 0 -59 -1.5t-37 3.5q5 16 7 24q34 100 150.5 181t224.5 81q19 0 35 -8.5t34 -16.5q29 0 36 7q12 15 33 52q12 21 25 21q10 0 6 -20q-5 -20 -10 -32q-36 -72 -64 -105q-31 -38 -59 -38zM665 418q0 -6 30 -31l44 -37q15 -14 23 -14q33 0 87 113
q22 -16 51.5 -46t40.5 -30q17 0 54 53q37 54 37 93q-2 33 -37 71t-60 38q-8 0 -33 -42.5l-45 -76.5q-17 25 -50 57.5t-50 25.5q-9 0 -50.5 -80t-41.5 -94zM732 -533q0 -7 44 -44t51 -37q30 0 82 112q21 -16 53 -51q23 -25 35 -25q16 0 50 53q35 55 35 92q0 32 -35 71
q-34 34 -57 34q-7 0 -35 -49l-40 -69q-11 25 -44 54.5t-49 29.5q-9 0 -49.5 -79.5t-40.5 -91.5zM826 -720q0 -9 13.5 -21l26.5 -23l31 -32q11 -14 19 -15q12 0 44 49q31 51 33 86q2 32 -26.5 67t-52.5 37q-9 1 -48 -68.5t-40 -79.5zM357 112q0 -7 44 -44t51 -37q30 0 82 112
q21 -16 53 -51q23 -25 35 -25q16 0 50 53q35 55 35 92q0 32 -35 71q-34 34 -57 34q-7 0 -35 -49l-40 -69q-11 25 -44 54.5t-49 29.5q-9 0 -49.5 -79.5t-40.5 -91.5zM451 -75q0 -9 13.5 -21l26.5 -23l31 -32q11 -14 19 -15q12 0 44 49q31 51 33 86q2 32 -26.5 67t-52.5 37
q-9 1 -48 -68.5t-40 -79.5z" />
    <glyph glyph-name="Panj" unicode="&#xfb58;&#xfee8;&#xfe9e;" horiz-adv-x="1045" 
d="M715 794v1q-27 5 -50.5 17t-51.5 12q-137 0 -230 -105l123 6q79 0 104 -9q28 -9 28 -35q0 -41 -49 -76l-91 -61q-91 -66 -162 -142q-31 -30 -72 -88q-39 -57 -57 -102q-26 -65 -32 -105q-5 -40 -5 -50q0 -154 103 -221q81 -53 218 -53q104 0 190 33q41 15 104 55
q66 42 125 104q40 44 76 96q45 69 57 68q6 -4 -1 -23q-13 -32 -32 -69q-34 -67 -77 -131q-69 -98 -154 -171q-89 -77 -169 -115q-114 -53 -243 -53q-146 0 -223 92q-70 80 -70 217q0 44 6 97q5 49 35 131q45 127 115 227q39 57 96 119q9 11 56 53q51 44 67 56l46 36
q21 16 21 20q-6 24 -123 21q-21 0 -59 -1.5t-37 3.5q5 16 7 24q34 100 150.5 181t224.5 81q19 0 35 -8.5t34 -16.5q29 0 36 7q12 15 33 52q12 21 25 21q10 0 6 -20q-5 -20 -10 -32q-36 -72 -64 -105q-31 -38 -59 -38zM724 402q0 12 40.5 91.5t49.5 79.5q16 0 49 -29.5
t44 -54.5l40 69q28 49 35 49q23 0 57 -34q35 -39 35 -71q0 -37 -35 -92q-34 -53 -50 -53q-12 0 -35 25q-32 35 -53 51q-52 -112 -82 -112q-7 0 -51 37t-44 44zM818 215q1 10 40 79.5t48 68.5q24 -2 52.5 -37t26.5 -67q-2 -35 -33 -86q-32 -49 -44 -49q-8 1 -19 15l-31 32
l-26.5 23t-13.5 21zM459 1405q0 22 37.5 95.5t48.5 73.5q22 9 64 -33.5t45 -66.5q0 -32 -35 -92t-51 -60q-6 3 -41.5 26.5l-52.5 35.5q-15 10 -15 21zM459 90q0 22 37.5 95.5t48.5 73.5q22 9 64 -33.5t45 -66.5q0 -32 -35 -92t-51 -60q-6 3 -41.5 26.5l-52.5 35.5
q-15 10 -15 21z" />
    <glyph glyph-name="Peya" unicode="&#xfb58;&#xfbff;&#xfe8e;" horiz-adv-x="710" 
d="M518 211q-33 4 -45 0q-51 -17 -108 -113q-56 -96 -129 -96q-75 0 -113 64q-39 63 -39 153v0q0 20 23 214q21 184 36 289q3 9 33 84q33 81 49 115q6 2 9 4q1 -5 -2 -33l-9 -53l-34 -250q-11 -75 -15 -131q-4 -74 -4 -80v0q0 -101 49 -145q38 -32 86 -32q68 0 113 59
q33 43 56 58q23 14 44 12v0v0l43 -6q14 -3 29 16q7 9 38 57q10 17 15 17q8 0 8 -7q0 -10 -4 -24q-6 -28 -24 -67q-17 -40 -29 -55q-40 -56 -76 -50zM393 -624q0 -6 41 -40.5t48 -34.5q28 0 76 104q20 -15 49 -48q22 -23 33 -23q15 0 47 50q32 51 32 85q0 30 -32 67
q-32 31 -54 31q-6 0 -32 -45l-37 -65q-11 24 -41.5 51.5t-45.5 27.5q-8 0 -46 -74.5t-38 -85.5zM481 -798q0 -9 12.5 -20l24.5 -21l29 -30q10 -13 17 -14q12 0 41 46q29 47 31 80q2 30 -24.5 62.5t-48.5 34.5q-9 1 -45 -64t-37 -74zM14 -659q0 -5 26.5 -26.5l39.5 -32.5
q13 -12 21 -12q28 0 77 98q20 -14 46 -40t36 -26q15 0 48 46t33 81q-2 28 -33 61t-54 33q-7 0 -29 -37l-40 -66q-15 21 -44.5 49.5t-44.5 22.5q-8 0 -45 -69.5t-37 -81.5z" />
    <glyph glyph-name="Peyv" unicode="&#xfb58;&#xfbff;&#xfeee;" horiz-adv-x="859" 
d="M367 260q-15 -37 -32 -63q-9 -17 -33 -51q-33 -52 -53 -65q-19 -12 -53 -23l-26 -9.5t-46 -15.5l-110 -29q-18 -3 -28 -4q-15 -2 -17 2t19 18q18 11 27 16q11 6 76 46q45 27 78 51q65 46 98 82q37 38 37 66q-7 -3 -23 -7q-18 -2 -32 -2q-38 6 -59 21q-33 19 -33 53
q0 25 45 121q12 28 35 57q30 39 55 39q39 0 68 -29q37 -39 37 -80q2 -12 2 -24h2q28 9 57 41l52 66l20 28t12 17q31 34 76 34l0.5 -0.5l0.5 -0.5v1q32 -2 37 -2q18 0 27 13l28 55q16 27 27 24q8 -2 4 -27q-6 -30 -11 -42l-44 -107q-15 -27 -22 -31q-8 -7 -23 -10
q-7 -3 -36 6t-37 9q-19 0 -41 -35l-15 -23t-15 -22q-18 -27 -31 -41q-17 -19 -43 -43l-37 -29q-6 -19 -20 -51zM508 -167q0 -7 41 -41.5t48 -34.5q28 0 77 105q19 -15 49 -48q22 -23 33 -23q15 0 47 50q33 51 33 86q0 30 -33 66q-32 32 -54 32q-6 0 -32 -46q-18 -32 -38 -64
q-10 23 -41 50.5t-46 27.5q-8 0 -46 -74.5t-38 -85.5zM596 -342q0 -8 12.5 -19.5t24.5 -21.5l29 -30q11 -13 18 -14q11 0 41 46q29 47 31 80q2 30 -24.5 63t-49.5 35q-8 0 -44.5 -65t-37.5 -74zM73 -425q0 -6 28.5 -29l42.5 -35t22 -12q31 0 82 105q22 -16 49.5 -43.5
t38.5 -27.5q16 0 51 49q36 50 36 86q-2 31 -35.5 66t-57.5 35q-7 0 -31 -39.5l-43 -70.5q-16 23 -47.5 53t-47.5 23q-9 0 -48.5 -74t-39.5 -86z" />
    <glyph glyph-name="Hich" unicode="&#x6be;&#xfbff;&#xfb7b;" horiz-adv-x="1045" 
d="M365 728l-7 -7l123 6q76 0 105 -9q28 -8 28 -36q0 -39 -49 -75l-47 -30.5l-45 -31.5q-84 -59 -162 -141q-29 -28 -71 -89q-40 -58 -57 -101q-28 -72 -32 -106q-5 -30 -5 -50q0 -153 102 -221q83 -53 219 -53q104 0 190 33q46 18 105 55q70 46 124 104q34 40 76 96
q47 72 57 68q6 -1 -1 -22q-5 -14 -31 -70q-38 -70 -78 -131q-69 -97 -154 -171q-83 -72 -169 -115q-113 -54 -244 -54q-145 0 -223 92q-70 84 -70 217q0 49 7 98q6 54 34 131q42 120 115 228q41 60 96 118q20 23 57.5 55.5t58 48.5l32 25l22.5 17q20 15 20 20q-2 10 -36 16
l-86 5h-86q-6 0 -11 2l4 12t5 12q2 10 17 34l4 8t5 7v0v0q5 8 10 15t11 14q15 21 32 39q28 32 57 53q42 34 117 63q67 28 120 28q16 0 37 -8q1 -1 1 -4v4q8 -4 26 -12q13 -6 21 -6q21 0 36 11q12 10 34 42q39 62 49 72q34 39 71 39q19 0 31 -13q10 -12 14 -12q10 0 21 20
q10 21 16 21q11 0 20 -19q9 -18 9 -34q0 -35 -29 -74q-29 -40 -65 -35q-6 0 -27 12q-21 11 -39 11q-20 0 -47 -33q-30 -44 -45 -64q-41 -56 -96 -56v2l-0.5 -0.5t-0.5 -1.5q-2 0 -51 18q-30 11 -51 11q-35 0 -87 -15q-52 -13 -97 -45q-9 -4 -29 -26zM1097 745
q-13 -20 -58.5 -117.5t-41.5 -125.5q0 -6 31 -21q32 -13 32 -55q0 -27 -17 -54q-19 -26 -42 -26q-28 0 -38 25q-11 22 -11 55q0 73 61 198.5t84 120.5zM520 -671q0 -7 44 -44t51 -37q30 0 82 112q21 -16 53 -51q23 -25 35 -25q16 0 50 53q35 55 35 92q0 32 -35 71
q-34 34 -57 34q-7 0 -35 -49l-40 -69q-11 25 -44 54.5t-49 29.5q-9 0 -49.5 -79.5t-40.5 -91.5zM614 -858q0 -9 13.5 -21l26.5 -23l31 -32q11 -14 19 -15q12 0 44 49q31 51 33 86q2 32 -26.5 67t-52.5 37q-9 1 -48 -68.5t-40 -79.5zM401 116q0 -6 29.5 -30l43.5 -36
q15 -13 23 -13q32 0 86 109q22 -16 51 -45t40 -29q17 0 53 51q37 52 37 90q-2 32 -36.5 68.5t-59.5 36.5q-8 0 -32.5 -41l-44.5 -74q-17 24 -49.5 55.5t-49.5 24.5q-9 0 -50 -77t-41 -90z" />
    <glyph glyph-name="Shkanjeh" unicode="&#xfeb7;&#xfb91;&#xfee8;&#xfea0;&#xfeea;" horiz-adv-x="1766" 
d="M1059 834q1 -29 12 -56.5t38.5 -47.5t72.5 -20q61 0 98 35q49 45 66 51q6 2 25 1q12 -1 30 -1t27 6q24 16 36 45q1 4 11 31q18 -2 28 -2q18 0 31 22q3 6 16 42q10 30 17 30q8 0 8 -18q0 -66 -40 -132q-41 -65 -83 -65q-30 -42 -31 -42q-26 -31 -49 -31q-32 4 -39 4
q-9 0 -29 -8q-20 -9 -76 -82q-56 -74 -122 -74q-67 0 -98 55q-7 -4 -20 -17l-35 -45q-31 -37 -55 -49q-17 -9 -33 -9h-1q-2 0 -41.5 14.5t-60.5 14.5q-35 0 -87 -15q-92 -26 -144 -90v0v0q10 -2 67 -4t96 8.5t58 16.5q22 5 22 -21q-11 -34 -26 -59l-29.5 -31l-28.5 -30
l-98 -119q-41 -53 -88 -86q-73 -53 -147 -53q-18 0 -53 8q-75 18 -91 18q-40 3 -72 -8.5t-69 -38.5q-25 -19 -32 -14q-21 11 26 69q7 8 27 28t65 59t92 63q57 28 99 28q26 0 61 -10q34 -10 59 -10q19 0 44 5q27 6 46 18q26 15 53 36q35 30 35 45h-86q-71 0 -92 9
q-13 4 -16 14v0v1q-2 4 0 11q1 8 15 29q9 16 31 45t40 50t51 46q44 35 117 65q69 27 120 27q16 0 89 -18q32 -11 49 76q2 10 4 41q2 26 2 35v4v5v1q0 28 5 95q2 59 20 181q5 39 12 55l41 100q44 95 60 117q6 1 9 -4q3 -7 -1 -23l-37 -194q-20 -104 -21 -233zM1199 1436
q46 50 192 167l262 211q102 84 180 158l162 155q153 147 153 152q0 -11 -4 -19q-7 -30 -39 -86q-31 -55 -55 -86l-70 -85l-35 -37l-26 -27q-28 -29 -104 -96l-69.5 -61l-96.5 -82q-88 -75 -139 -113l-82.5 -63.5l-81.5 -61.5l-141 -110q-15 -13 -30 -24.5l-28 -21.5
q-28 -23 -32 -16q18 50 37 82q21 38 47 64zM1086 1756q0 -7 46.5 -44t53.5 -37q31 0 86 112q22 -16 55 -51q24 -25 37 -25q16 0 53 53q36 55 36 92q0 32 -36 70q-37 34 -61 34q-7 0 -36 -48l-42 -70q-12 26 -46.5 55t-50.5 29q-10 0 -52.5 -79t-42.5 -91zM1177 2004
q0 -10 16.5 -22t47.5 -39.5t40 -27.5q15 0 46.5 58t31.5 91q0 35 -34 73q-34 34 -62 34q-11 0 -48.5 -78.5t-37.5 -88.5zM578 1094q0 -11 15 -21l52.5 -35.5t41.5 -26.5q16 0 51 60t35 92q-3 24 -45 66.5t-64 33.5q-11 0 -48.5 -73.5t-37.5 -95.5zM574 -408q0 -11 15 -21
l52.5 -35.5t41.5 -26.5q16 0 51 60t35 92q-3 24 -45 66.5t-64 33.5q-11 0 -48.5 -73.5t-37.5 -95.5z" />
    <glyph glyph-name="Pishga" unicode="&#xfb58;&#xfbff;&#xfeb8;&#xfb95;&#xfe8e;" horiz-adv-x="1340" 
d="M1051 1634q7 -1 -6 -33q-7 -18 -14 -32q-33 -54 -135 -166l-45 -42.5l-43 -43.5q12 35 20 48q9 18 35 48l113 125q54 65 75 96zM433 364q0 37 -46 56q-48 20 -120 20q-39 0 -51 -6q-41 -19 -41 -82q0 -61 33 -96q25 -29 71 -29q70 0 112 46q42 47 42 91zM502 376
q-9 -1 -20 -47q-10 -38 -19 -61q-46 -122 -69 -162q-68 -106 -172 -106q-72 0 -109 69q-36 71 -36 199q0 52 20 184q21 140 36 225q16 95 30 167q13 78 28 113l68 142q8 7 10 3t2 -16t-3 -26q-2 -10 -4 -28q-4 -32 -44 -293q-13 -81 -20 -131t-9 -70q15 0 186 198
l212.5 245.5t98.5 111.5l116 131.5l83 95.5q143 172 225 303q14 23 20 23q9 -3 -1.5 -36l-14.5 -45q-23 -62 -74 -143q-31 -53 -92 -133q-71 -92 -165 -200q-3 -3 -111 -123l-70 -79.5l-69 -82.5l-123 -143l-112 -127l5 -2h1v0l149 -31q12 -3 68 -19t79 -16q24 0 72 57
q9 13 19 25.5l20 24.5q7 4 17 1q12 -3 15 -3l17 2q16 3 24 15q4 6 17 24q19 29 28 30q8 -2 17 -3.5t18 -4.5q9 2 37 37l22 30q12 0 27 -8q27 16 27 27q0 2 -4 14q-11 29 -11 50q0 73 45 169q15 32 33 54q18 24 25 20q7 -1 3 -23q-12 -44 0.5 -86t72.5 -42q18 0 30 22
q12 23 15 23q10 0 10 -25q0 -35 -17 -86q-7 -24 -18 -47q-33 -65 -71 -82q-42 -14 -66 0l-41 -45l-23 -22v0q-12 -12 -29 -24l-34 -22q-30 -21 -35 -26q-15 -12 -28 -19l-35 -14q-28 -22 -41 -33l-62 -34q-19 -15 -41 -39q-47 -51 -81 -51q-3 0 -31.5 12t-42.5 12zM434 -413
q0 13 41 90t50 77q17 7 49.5 -24.5t49.5 -55.5l44.5 74t32.5 41q25 0 59.5 -36.5t36.5 -68.5q0 -38 -37 -90q-36 -51 -53 -51q-11 0 -40 29t-51 45q-54 -109 -86 -109q-8 0 -23 13l-43.5 36t-29.5 30zM911 -91q0 12 40.5 91.5t49.5 79.5q16 0 49 -29.5t44 -54.5l40 69
q28 49 35 49q23 0 57 -34q35 -39 35 -71q0 -37 -35 -92q-34 -53 -50 -53q-12 0 -35 25q-32 35 -53 51q-52 -112 -82 -112q-7 0 -51 37t-44 44zM1005 -278q1 10 40 79.5t48 68.5q24 -2 52.5 -37t26.5 -67q-2 -35 -33 -86q-32 -49 -44 -49q-8 1 -19 15l-31 32l-26.5 23
t-13.5 21zM318 1310q0 12 42.5 91t52.5 79q16 0 50.5 -29t46.5 -55l42 70q29 48 36 48q24 0 61 -34q36 -38 36 -70q0 -37 -36 -92q-37 -53 -53 -53q-13 0 -37 25q-33 35 -55 51q-55 -112 -86 -112q-7 0 -53.5 37t-46.5 44zM409 1558q0 10 37.5 88.5t48.5 78.5q28 0 62 -34
q34 -38 34 -73q0 -33 -31.5 -91t-46.5 -58q-9 0 -40 27.5t-47.5 39.5t-16.5 22z" />
    <glyph glyph-name="Eiin" unicode="&#xfbfe;&#xfbff;&#xfee6;" horiz-adv-x="1385" 
d="M1048 528q21 10 42 37q21 26 43 69l18 37l14 27q18 37 30 37q18 0 15 -21l-4 -28q0 -36 18 -58q17 -22 41 -22q22 0 31 16q8 19 11 28q4 10 10.5 10t9.5 -5.5t3 -14.5q0 -58 -39 -139q-47 -94 -100 -94q-23 0 -41 10q-15 9 -25 25q-12 20 -15 26q-5 11 -9 11
q-11 0 -27 -24q-9 -12 -16 -20.5t-10 -12.5v0q-20 -20 -36 -29q-16 -10 -44 -13q-26 -3 -33 -15q-7 -14 -12 -58l-12 -80q-6 -35 -12 -61q-6 -24 -15 -57q-16 -54 -57 -151q-75 -171 -190 -274q-136 -125 -301 -125q-141 0 -204 86q-56 71 -56 200q0 62 21 152q12 58 31 108
l57 131q13 26 41 78q22 40 37 40q8 -6 6 -24q-5 -18 -21 -56q-13 -30 -22.5 -50l-14.5 -31q-27 -62 -40 -107q-19 -62 -19 -118q0 -88 62 -142q64 -55 171 -55q123 0 218 54q93 51 161 155q51 79 72 157q22 74 22 170l2 123q0 38 26 64q25 28 60 22h35q44 0 67 12zM446 -796
q0 -6 29.5 -30l43.5 -36q15 -13 23 -13q32 0 86 109q22 -16 51 -45t40 -29q17 0 53 51q37 52 37 90q-2 32 -36.5 68.5t-59.5 36.5q-8 0 -32.5 -41l-44.5 -74q-17 24 -49.5 55.5t-49.5 24.5q-9 0 -50 -77t-41 -90zM438 191q0 -11 15 -21l52.5 -35.5t41.5 -26.5q16 0 51 60
t35 92q-3 24 -45 66.5t-64 33.5q-11 0 -48.5 -73.5t-37.5 -95.5zM926 -738q0 -6 29.5 -30l43.5 -36q15 -13 23 -13q32 0 86 109q22 -16 51 -45t40 -29q17 0 53 51q37 52 37 90q-2 32 -36.5 68.5t-59.5 36.5q-8 0 -32.5 -41l-44.5 -74q-17 24 -49.5 55.5t-49.5 24.5
q-9 0 -50 -77t-41 -90z" />
    <glyph glyph-name="Bish" unicode="&#xfe91;&#xfbff;&#xfeb6;" horiz-adv-x="1327" 
d="M1032 422q-5 0 -16 -5l-39 -18q-10 -4 -20 -4h-8.5h-6.5q-31 -26 -100 -43l-8 -72q-23 -139 -29 -163q-33 -140 -90 -246q-84 -155 -184 -233q-112 -88 -254 -88q-121 0 -188 94q-59 82 -59 215q0 78 17 161q19 95 36 138q34 98 65 151q21 35 31 35q15 -2 -6 -53
l-21 -59.5l-20 -57.5q-14 -53 -24 -95q-11 -52 -11 -93q0 -124 76 -174q57 -39 157 -39q72 0 133 17q95 25 164 96q35 35 77 114q42 82 53 141q11 58 13 96q2 24 2 82v82q0 32 8 53q9 21 35 21q21 -12 51 -12q40 0 64 22q16 16 24 25q4 0 15 -9q11 -8 24 -8q17 0 35 27
q3 5 6 9.5t6 10.5q13 -6 27 -7t30 9t16 23l-7 19.5t-7 43.5q0 77 27.5 138t48 84t26.5 22q7 -3 3 -24q-5 -24 -2 -53t14 -45.5t30 -16.5q37 -1 46.5 32t17.5 33q12 0 18 -17.5t5 -47.5q0 -37 -13.5 -83t-39 -78t-48.5 -42q-19 -8 -36.5 -9t-35.5 5q-9 -14 -24.5 -30
t-33.5 -30t-36.5 -26t-33.5 -18zM489 961q0 12 42.5 91t52.5 79q16 0 50.5 -29t46.5 -55l42 70q29 48 36 48q24 0 61 -34q36 -38 36 -70q0 -37 -36 -92q-37 -53 -53 -53q-13 0 -37 25q-33 35 -55 51q-55 -112 -86 -112q-7 0 -53.5 37t-46.5 44zM580 1209q0 10 37.5 88.5
t48.5 78.5q28 0 62 -34q34 -38 34 -73q0 -33 -31.5 -91t-46.5 -58q-9 0 -40 27.5t-47.5 39.5t-16.5 22zM1067 -738q0 22 37.5 95.5t48.5 73.5q22 9 64 -33.5t45 -66.5q0 -32 -35 -92t-51 -60q-6 3 -41.5 26.5l-52.5 35.5q-15 10 -15 21zM528 -815q0 14 43.5 96t53.5 82
q18 7 52 -26.5t53 -58.5l47 78.5t34 43.5q27 0 63.5 -39t38.5 -73q0 -40 -39 -95q-38 -54 -56 -54q-12 0 -43 30.5t-54 47.5q-57 -115 -91 -115q-9 0 -25 13q-14 13 -45.5 38.5t-31.5 31.5z" />
    <glyph glyph-name="Natigeh" unicode="&#xfee7;&#xfe98;&#xfbff;&#xfea0;&#xfeea;" horiz-adv-x="1201" 
d="M542 378q123 -5 169 7.5t51 13.5q22 5 22 -20q-9 -33 -26 -60q-15 -15 -29 -30.5l-28 -30.5l-99 -119q-41 -53 -88 -86q-75 -53 -147 -53q-18 0 -53 8q-72 18 -90 19q-30 2 -49 -0.5t-36 -11.5q-19 -9 -56 -35q-25 -18 -33 -15q-22 12 26 70l16.5 17l21.5 22t28 26.5
t47.5 39.5t71.5 44q59 29 99 29q26 0 60 -10q39 -11 60 -11q17 0 44 5q24 6 46 18q31 19 53 37q35 30 35 45h-86q-75 0 -92 8q-22 9 -17 27q5 12 18 33.5t36.5 50t26.5 32.5q24 28 57 53q45 35 117 65q71 28 121 28q16 0 33.5 -7.5t28.5 -11t17 -1.5q18 2 38 27q20 24 20 35
q-5 11 -6 16q-9 24 -9 52t6.5 56.5t15.5 52.5q11 28 25.5 52t18.5 30q6 11 18 23q10 10 17 8q10 -3 10 -14q-17 -130 69 -130q19 0 31 22q12 23 14 23q10 0 10 -25q0 -38 -16 -86q-8 -23 -18 -47q-33 -66 -72 -82q-28 -9 -57 -2q-23 3 -37 -17l-41 -55q-25 -31 -46 -45
q-20 -14 -34 -14q3 -2 -50 19q-29 10 -52 10q-33 0 -87 -14q-53 -16 -97 -45q-10 -6 -25.5 -22.5l-21.5 -22.5v-1zM1135 1483q0 22 37.5 95.5t48.5 73.5q22 9 64 -33.5t45 -66.5q0 -32 -35 -92t-51 -60q-6 3 -41.5 26.5l-52.5 35.5q-15 10 -15 21zM608 1175q0 13 41 90
t50 77q17 7 49.5 -24.5t49.5 -55.5l44.5 74t32.5 41q25 0 59.5 -36.5t36.5 -68.5q0 -38 -37 -90q-36 -51 -53 -51q-11 0 -40 29t-51 45q-54 -109 -86 -109q-8 0 -23 13l-43.5 36t-29.5 30zM553 -476q0 13 41 90t50 77q17 7 49.5 -24.5t49.5 -55.5l44.5 74t32.5 41
q25 0 59.5 -36.5t36.5 -68.5q0 -38 -37 -90q-36 -51 -53 -51q-11 0 -40 29t-51 45q-54 -109 -86 -109q-8 0 -23 13l-43.5 36t-29.5 30zM202 -634q0 22 37.5 95.5t48.5 73.5q22 9 64 -33.5t45 -66.5q0 -32 -35 -92t-51 -60q-6 3 -41.5 26.5l-52.5 35.5q-15 10 -15 21z" />
    <glyph glyph-name="Bishtar" unicode="&#xfe91;&#xfbff;&#xfeb8;&#xfe98;&#xfeae;" horiz-adv-x="1474" 
d="M731 415q-16 -8 -43 -8h-31q-12 2 -27 2q-40 0 -73 -9q-31 -8 -80 -32q-74 -36 -170 -161l-104 -150q-67 -92 -142 -155q-43 -36 -139 -105q-56 -38 -89 -58q-40 -24 -91 -46q-3 -2 -25 -10q-17 -5 -28 0q-4 5 8 18q9 11 57 49l61 42l60 40q81 61 176 166q52 53 115 145
l26 38l25 38q95 138 115 160q76 94 163 151q120 86 236 86l57 -2q17 0 27 1q9 1 19 7q13 13 30 32q30 34 40 39q6 2 19 -1q14 -3 20 -1q22 8 46 41q5 9 11 18q6 10 12 19q6 2 27 2q11 0 23 5q13 5 27 32q13 28 17 28q24 -2 38 0.5t23 7.5q16 8 16 22q0 4 -4 14
q-10 25 -10 49q0 74 45 170q13 29 32 53q19 22 25 21q7 -3 3 -24q-5 -24 -5 -37t2 -27q12 -64 76 -64q18 0 31 23q11 22 14 22q10 0 10 -24q0 -40 -16 -86q-11 -31 -19 -47q-31 -63 -71 -81l-12 -4l-13 -2q-23 -4 -41 6q-56 -74 -93 -101.5t-57 -27.5q0 -1 -33 -29.5
t-45 -34.5q-16 -8 -27 -8l-20 -16l-18 -18q-9 -8 -17 -17q-14 -9 -35 -17q-23 -8 -30 -14l-9 -8l-13 -13l-45 -57q-8 -8 -26 -28q-14 -16 -31 -23v-1v0zM1242 156q0 22 37.5 95.5t48.5 73.5q22 9 64 -33.5t45 -66.5q0 -32 -35 -92t-51 -60q-6 3 -41.5 26.5l-52.5 35.5
q-15 10 -15 21zM764 -266q0 13 41 90t50 77q17 7 49.5 -24.5t49.5 -55.5l44.5 74t32.5 41q25 0 59.5 -36.5t36.5 -68.5q0 -38 -37 -90q-36 -51 -53 -51q-11 0 -40 29t-51 45q-54 -109 -86 -109q-8 0 -23 13l-43.5 36t-29.5 30zM264 939q0 13 41 90t50 77q17 7 49.5 -24.5
t49.5 -55.5l44.5 74t32.5 41q25 0 59.5 -36.5t36.5 -68.5q0 -38 -37 -90q-36 -51 -53 -51q-11 0 -40 29t-51 45q-54 -109 -86 -109q-8 0 -23 13l-43.5 36t-29.5 30zM680 1309q0 12 42.5 91t52.5 79q16 0 50.5 -29t46.5 -55l42 70q29 48 36 48q24 0 61 -34q36 -38 36 -70
q0 -37 -36 -92q-37 -53 -53 -53q-13 0 -37 25q-33 35 -55 51q-55 -112 -86 -112q-7 0 -53.5 37t-46.5 44zM771 1557q0 10 37.5 88.5t48.5 78.5q28 0 62 -34q34 -38 34 -73q0 -33 -31.5 -91t-46.5 -58q-9 0 -40 27.5t-47.5 39.5t-16.5 22z" />
    <glyph glyph-name="Iiz" unicode="&#xfef3;&#xfbff;&#xfeb0;" horiz-adv-x="932" 
d="M736 355q-23 -11 -49.5 -8.5t-50.5 2.5q-54 0 -97.5 -13.5t-81.5 -39.5t-73 -64t-71 -86q-8 -10 -34 -47l-71 -102q-32 -45 -67 -83t-74 -72q-27 -23 -67 -53t-84.5 -59.5t-88.5 -55.5t-79 -41q-3 -2 -25 -10q-7 -2 -14 -3t-11.5 0.5t-4 6.5t9.5 14q11 14 58 49l60 41
l60 41q40 30 84 71t92 95q27 28 55.5 64t59.5 81l30 44t21 32q90 130 114 159q78 96 164 152q60 43 118.5 64t115.5 22h76q32 0 45 20l65 96q8 11 12 14q11 12 19 9q5 -3 4 -18q-4 -18 -10 -32q-10 -19 -18.5 -37t-25.5 -48t-46.5 -75t-65.5 -82q-34 -36 -54 -48zM285 1051
q0 22 37.5 95.5t48.5 73.5q22 9 64 -33.5t45 -66.5q0 -32 -35 -92t-51 -60q-6 3 -41.5 26.5l-52.5 35.5q-15 10 -15 21zM55 -485q0 13 41 90t50 77q17 7 49.5 -24.5t49.5 -55.5l44.5 74t32.5 41q25 0 59.5 -36.5t36.5 -68.5q0 -38 -37 -90q-36 -51 -53 -51q-11 0 -40 29
t-51 45q-54 -109 -86 -109q-8 0 -23 13l-43.5 36t-29.5 30zM512 -405q0 13 41 90t50 77q17 7 49.5 -24.5t49.5 -55.5l44.5 74t32.5 41q25 0 59.5 -36.5t36.5 -68.5q0 -38 -37 -90q-36 -51 -53 -51q-11 0 -40 29t-51 45q-54 -109 -86 -109q-8 0 -23 13l-43.5 36t-29.5 30z
" />
    <glyph glyph-name="Moshkeli" unicode="&#xfee3;&#xfeb8;&#xfb91;&#xfee0;&#xfbfd;" horiz-adv-x="1978" 
d="M812 408q-8 -5 -21 -27q-37 -61 -37 -78q0 -12 24 -30l31 -23q27 -21 47 -48q17 -27 17 -65q0 -51 -29 -151q-36 -132 -99 -228q-62 -94 -143 -158q-102 -78 -217 -78q-129 0 -195 82q-57 72 -57 189q0 75 10 131q11 59 39 133q25 64 50 118q28 60 60 121q15 27 27 51
t21 44q40 75 47 73q6 -3 6 -20q0 -26 -14 -55l-63 -144l-44 -98q-57 -132 -57 -206q0 -100 65 -154q61 -47 156 -47q124 0 217 61q92 59 130 170q1 13 -13 28q-20 17 -61 44q-36 21 -41 27q-30 26 -30 69q0 20 24 86l63 127q21 37 37 69q22 47 27 68q13 207 26 264
q5 27 10 48.5l9 37.5q18 59 25 73q13 36 49 97q7 6 13 3q4 -4 -3 -28q-15 -84 -21 -131v-1q19 16 86 87l78 84l88 96l102.5 113l104.5 114q139 158 218 277q13 26 19 26q4 -6 4 -14q-11 -44 -21 -68q-22 -55 -73 -137q-26 -42 -92 -127l-76.5 -92.5t-87.5 -99.5l-245 -272
q1 -1 4 -1q167 -37 182 -41l30 -8q67 -18 87 -18q25 0 72 57l39 49q5 4 17 1t16 -3l16 2q16 4 25 16q13 18 16 23q20 28 28 31q26 -7 35 -8q11 1 37 36l23 31q11 0 26 -8l11 4v0q26 23 34 33l49 94q15 22 37 49q4 6 21 23q3 5 19 37t30 53q3 1 20 -11q17 -15 29 -34
q14 -26 23 -46q12 -26 12 -48q0 -27 -21 -61q-20 -33 -44 -40q-23 -6 -29 -6q-30 4 -43 6q-24 4 -37 -7q-12 -9 -29 -34q-24 -38 -26 -40l-45 -52v0q-18 -16 -30 -23q-29 -19 -34 -23l-35 -26q-19 -14 -28 -18l-35 -14l-21 -17l-20 -16l-61 -35q-11 -7 -41 -38
q-48 -52 -82 -52l-45 19q-15 6 -29 6l-1 1v-1q-8 0 -18 -41q-12 -45 -19 -63q-44 -116 -73 -164q-65 -96 -162 -96q-62 0 -101 57q-14 22 -19 34zM1137 669q0 44 -72 64q-44 10 -88 10q-36 0 -49 -6q-41 -20 -41 -80q0 -45 18 -76q27 -45 82 -45q65 0 108 46q42 46 42 87z
M924 1386q0 12 42.5 91t52.5 79q16 0 50.5 -29t46.5 -55l42 70q29 48 36 48q24 0 61 -34q36 -38 36 -70q0 -37 -36 -92q-37 -53 -53 -53q-13 0 -37 25q-33 35 -55 51q-55 -112 -86 -112q-7 0 -53.5 37t-46.5 44zM1015 1634q0 10 37.5 88.5t48.5 78.5q28 0 62 -34
q34 -38 34 -73q0 -33 -31.5 -91t-46.5 -58q-9 0 -40 27.5t-47.5 39.5t-16.5 22z" />
    <glyph glyph-name="Nastand" unicode="&#xfee7;&#xfeb4;&#xfe98;&#xfee8;&#xfeaa;" horiz-adv-x="1631" 
d="M381 311q0 -50 29 -79q3 -4 20 -15q35 -20 66 -20q58 0 82 13t57 54q20 23 56 50q35 24 59 24v-2v2q22 -5 43 -6q17 1 33 16q24 22 24 41q-2 7 -6 17q-8 25 -8 41q0 56 25 118q9 25 18 43q8 16 23 41q9 13 18 23q11 9 16 8q11 -5 11 -15l-7 -30l-2 -17l2 -16v-2
q20 -65 96 -65q59 0 100 43q50 50 70 55q22 -4 55 -4q25 0 49 24q23 24 27 29q8 -10 25 -4q26 9 42 33l21 30q16 -6 28 -4l12 6v0q18 11 24 26q5 15 5 28q0 7 -2 51v38q13 36 47 99q10 16 35 61q2 4 10 10q4 0 4 -38v-24.5v-25.5q0 -20 -5 -81q-6 -56 -43 -123
q-35 -66 -74 -104v0l-13 -11q-39 -21 -46 -23q-17 -10 -22 -14q-5 -6 -12 -12l-16 -14q-8 -7 -24 -8q-15 -3 -28 -9l-37 -30q-25 -23 -40 -27q-6 -1 -23 -1q-13 1 -30 3q-32 0 -100 -90q-66 -89 -135 -90v0l-32 4q-22 4 -37 -16l-41 -53q-44 -54 -80 -49v1v-2l-31 4
q-22 0 -34 -8q-13 -8 -23 -20l-41 -62l-41 -61q-36 -43 -69 -58q-30 -16 -72 -16q-68 0 -100 45q-31 45 -42 82q0 9 -2 14q-7 -17 -12 -24q-17 -30 -35 -51q-27 -41 -79 -62l-82 -24l-64 -13q-39 -3 -45 0q0 13 31 33l57.5 36.5l57.5 37.5q76 51 114 98q26 30 44 60l18 29.5
t14 25.5l41 85q20 37 22 41q17 22 27 21q11 -5 6 -21q-11 -27 -14 -37q-15 -41 -15 -63zM705 971q0 13 41 90t50 77q17 7 49.5 -24.5t49.5 -55.5l44.5 74t32.5 41q25 0 59.5 -36.5t36.5 -68.5q0 -38 -37 -90q-36 -51 -53 -51q-11 0 -40 29t-51 45q-54 -109 -86 -109
q-8 0 -23 13l-43.5 36t-29.5 30zM1386 1374q0 22 37.5 95.5t48.5 73.5q22 9 64 -33.5t45 -66.5q0 -32 -35 -92t-51 -60q-6 3 -41.5 26.5l-52.5 35.5q-15 10 -15 21zM375 844q0 22 37.5 95.5t48.5 73.5q22 9 64 -33.5t45 -66.5q0 -32 -35 -92t-51 -60q-6 3 -41.5 26.5
l-52.5 35.5q-15 10 -15 21z" />
    <glyph glyph-name="Motashakel" unicode="&#xfee3;&#xfe98;&#xfeb8;&#xfb91;&#xfede;" horiz-adv-x="1688" 
d="M830 944l81 174q6 8 10 8q3 0 3 -18q0 -19 -2 -35l-11 -100l-6 -82q106 105 176 181q56 61 193 230q68 84 133 176l78 116q16 29 37 74q5 11 24 49q14 -5 -6 -74q-22 -73 -37 -102q-35 -75 -149 -233q-110 -147 -190 -237l-55 -59.5l-54 -59.5q-22 -24 -35 -35
q40 -3 65 -27q23 -23 23 -75q0 -60 -18 -108q11 5 25 12q21 10 43 29q16 13 35 34q21 23 35 44q18 26 19 26q10 1 20 -4q12 -6 15 -6q11 0 20 9q10 10 17 28q3 6 8 10q3 1 12 -1q9 -3 15 -3h6h6q7 1 14 11q2 4 3.5 8t3.5 7l10 19q6 1 11 0q8 -4 13 -8q6 0 24.5 11.5
t18.5 24.5q0 4 -4 14q-10 30 -10 49q0 74 45 170q15 31 33 53t24 20q9 -2 3 -23q-5 -25 -2.5 -53t14.5 -44t31 -16q8 18 23 45q12 18 22 18q11 0 28 -17q17 -19 17 -49q0 -33 -17 -79q-17 -47 -45 -86q-18 -26 -43 -37q-15 -9 -34 -11t-38 7l-40 -45q-22 -21 -54 -41
l-30 -18q-23 -9 -33 -11q-14 -3 -18 -7l-43 -29q-22 -12 -33 -14q-25 -8 -27 -8l-45 -37l-55 -37l-86 -41q-20 -5 -14 -4q-5 -4 -15 -10q-19 -13 -47 -19q-26 -6 -65 -6l-11 2l-8 -174q0 -168 -49 -356q-36 -130 -96 -238q-165 -305 -432 -305q-130 0 -193 80
q-65 81 -65 202q0 89 22 171q24 81 62.5 161t57.5 115q22 39 36 35q8 -5 1 -19q-3 -6 -29 -65q-39 -84 -51 -120q-29 -78 -29 -139q0 -112 88 -165q65 -41 165 -41q57 0 111 14q60 17 106 47q128 86 180 250q35 112 35 269q0 125 3 230q3 106 9 300q0 19 2 57q3 29 9 41z
M1049 780q0 15 -20 31q-20 14 -46 14q-29 0 -55 -20q-24 -21 -24 -47q0 -19 22 -32q21 -13 43 -13q30 0 55 20t25 47zM490 1258q0 12 42.5 91t52.5 79q16 0 50.5 -29t46.5 -55l42 70q29 48 36 48q24 0 61 -34q36 -38 36 -70q0 -37 -36 -92q-37 -53 -53 -53q-13 0 -37 25
q-33 35 -55 51q-55 -112 -86 -112q-7 0 -53.5 37t-46.5 44zM581 1506q0 10 37.5 88.5t48.5 78.5q28 0 62 -34q34 -38 34 -73q0 -33 -31.5 -91t-46.5 -58q-9 0 -40 27.5t-47.5 39.5t-16.5 22zM978 1539q0 13 41 90t50 77q17 7 49.5 -24.5t49.5 -55.5l44.5 74t32.5 41
q25 0 59.5 -36.5t36.5 -68.5q0 -38 -37 -90q-36 -51 -53 -51q-11 0 -40 29t-51 45q-54 -109 -86 -109q-8 0 -23 13l-43.5 36t-29.5 30z" />
    <glyph glyph-name="Hashtna" unicode="&#xfea3;&#xfeb8;&#xfe98;&#xfee8;&#xfe8e;" horiz-adv-x="1444" 
d="M142 377q0 -100 49 -146q37 -32 86 -32q67 0 112 59q32 41 56 58q23 15 44 12l1 -1v0q19 -5 42 -6q19 1 33 16q25 22 25 41q-4 11 -6 17q-9 24 -9 40q0 53 25 119q2 4 18 43q4 9 23 41q5 7 18 23q12 9 17 8q10 -5 10 -15l-6 -30l-2 -17l2 -16v-2q20 -65 95 -65
q58 0 101 43q51 50 69 55q23 -4 55 -4q25 0 50 24q1 1 26 29q9 -10 25 -4q26 7 43 33q5 6 20 30q16 -6 29 -4l12 6l1 -1v1q22 16 51 53l18 23l25 33q-12 4 -13 4q-27 11 -52 18q-23 6 -29 10q-26 11 -33 11q-27 0 -51 -31q-9 -14 -19 -23q-7 -8 -12 -6q-12 6 4 37
q33 60 51 78q27 24 56 24q15 0 66 -17q49 -17 83 -17q26 0 44 9q20 8 28 15q9 6 14 2q6 -5 4 -18q0 -7 -9 -38q-6 -22 -11 -30l-33 -24l-39 -37l-76 -84l-67 -76v2l-1 -2l-12 -10q-35 -19 -46 -23q-9 -5 -23 -15q-14 -12 -27 -25q-9 -7 -25 -8q-16 -4 -28 -10q-8 -6 -36 -29
q-24 -22 -40 -27q-14 -3 -24 -1q-18 2 -29 3q-33 0 -101 -90q-67 -90 -134 -90v0l-33 4q-21 4 -37 -16l-41 -54q-45 -54 -80 -49v1v0q-31 4 -45 0q-50 -17 -107 -112q-56 -97 -130 -97t-112 64q-39 63 -39 153v0q0 29 22 214q25 208 37 290q2 8 33 83l49 115q3 0 4.5 1.5
t3.5 2.5q3 -9 -2 -33l-8 -53l-35 -250q-11 -81 -14 -130q-4 -50 -4 -80zM883 1420q0 12 42.5 91t52.5 79q16 0 50.5 -29t46.5 -55l42 70q29 48 36 48q24 0 61 -34q36 -38 36 -70q0 -37 -36 -92q-37 -53 -53 -53q-13 0 -37 25q-33 35 -55 51q-55 -112 -86 -112q-7 0 -53.5 37
t-46.5 44zM974 1668q0 10 37.5 88.5t48.5 78.5q28 0 62 -34q34 -38 34 -73q0 -33 -31.5 -91t-46.5 -58q-9 0 -40 27.5t-47.5 39.5t-16.5 22zM499 1086q0 13 41 90t50 77q17 7 49.5 -24.5t49.5 -55.5l44.5 74t32.5 41q25 0 59.5 -36.5t36.5 -68.5q0 -38 -37 -90
q-36 -51 -53 -51q-11 0 -40 29t-51 45q-54 -109 -86 -109q-8 0 -23 13l-43.5 36t-29.5 30zM201 1138q0 22 37.5 95.5t48.5 73.5q22 9 64 -33.5t45 -66.5q0 -32 -35 -92t-51 -60q-6 3 -41.5 26.5l-52.5 35.5q-15 10 -15 21z" />
    <glyph glyph-name="Motasha" unicode="&#xfee3;&#xfe98;&#xfeb8;&#xfe8e;" horiz-adv-x="991" 
d="M168 377q0 -65 23 -105q38 -63 123 -63q47 0 82 25l88 65q22 -4 55 -4q26 0 49 25q17 19 27 28q8 -9 23 -4q25 10 43 33q7 9 21 31q16 -6 28 -4q8 3 13 6v-1v0q16 11 16 23q0 5 -4 14q-10 26 -10 49q0 74 45 170q12 28 32 53q19 23 25 21q8 -2 3 -24q-5 -23 -5 -38v-2.5
v-6.5q0 -1 2 -17v4q4 -21 16 -37q10 -16 29 -16q14 31 24 45q10 18 21 18q12 0 29 -17q16 -17 16 -48q0 -36 -16 -80q-17 -46 -45 -86q-17 -23 -43 -37q-9 -4 -31 -10v2v-2q-23 -4 -41 6l-41 -45l-22 -22v0v0l-13 -11l-46 -23q-17 -9 -22 -14q-16 -14 -28 -26q-10 -6 -24 -8
q-16 -1 -27 -9q-10 -6 -37 -30q-25 -22 -40 -27q-7 -1 -23 -1q-20 3 -30 4q-34 0 -92 -91q-57 -90 -135 -90q-92 0 -129 109q-7 21 -10 52q-5 40 -5 56v0q3 42 23 214q25 209 37 290q2 8 33 84q32 80 49 114l8 4q3 -8 -2 -32l-8 -54l-35 -249q-11 -82 -14 -131
q-5 -61 -5 -80zM623 1217q0 13 41 90t50 77q17 7 49.5 -24.5t49.5 -55.5l44.5 74t32.5 41q25 0 59.5 -36.5t36.5 -68.5q0 -38 -37 -90q-36 -51 -53 -51q-11 0 -40 29t-51 45q-54 -109 -86 -109q-8 0 -23 13l-43.5 36t-29.5 30zM145 1152q0 12 42.5 91t52.5 79q16 0 50.5 -29
t46.5 -55l42 70q29 48 36 48q24 0 61 -34q36 -38 36 -70q0 -37 -36 -92q-37 -53 -53 -53q-13 0 -37 25q-33 35 -55 51q-55 -112 -86 -112q-7 0 -53.5 37t-46.5 44zM236 1400q0 10 37.5 88.5t48.5 78.5q28 0 62 -34q34 -38 34 -73q0 -33 -31.5 -91t-46.5 -58q-9 0 -40 27.5
t-47.5 39.5t-16.5 22z" />
    <glyph glyph-name="Nateza" unicode="&#xfee7;&#xfe98;&#xfec8;&#xfe8e;" horiz-adv-x="1086" 
d="M74 216q0 29 22 214l21.5 166.5t15.5 123.5q2 7 33 84l49 115q4 10 8 3q3 -9 -10 -86l-35 -249q-11 -84 -14 -131q-4 -50 -4 -80q0 -26 3.5 -52.5t8.5 -39.5q12 -39 47 -55q36 -17 78 -17l59 84q18 25 31 86q2 12 7.5 62t14.5 139q7 61 16 109q10 52 31 104q38 84 39 87
q28 52 27 52q10 9 8 -13q-14 -88 -16 -112l-10 -77.5l-10 -77.5q-8 -73 -32 -160q-3 -15 -22 -79q-15 -49 -18 -58q24 32 59 69q68 72 121 72q33 0 60 -21q28 -21 28 -57q0 -80 -78 -195q43 40 66 76q19 28 49 86q26 48 41 69q22 29 45 44q33 16 57 16h29q18 0 27 12l28 55
q17 26 27 25q9 -2 4 -27q-4 -30 -10 -42l-45 -107q-14 -26 -22 -32q-10 -9 -45 -5h-1h-14q-24 0 -45 -9q-20 -11 -29 -24l-30 -53q-33 -55 -65 -90q-33 -40 -62 -62q-57 -39 -97 -45q-113 -113 -246 -113q-107 0 -159 71q-41 55 -41 145zM614 329q0 11 -25 28q-24 15 -51 15
q-46 0 -114 -76l-80 -92q11 0 55 2q35 3 85 22q52 19 91 51q39 31 39 50zM517 1169q0 13 41 90t50 77q17 7 49.5 -24.5t49.5 -55.5l44.5 74t32.5 41q25 0 59.5 -36.5t36.5 -68.5q0 -38 -37 -90q-36 -51 -53 -51q-11 0 -40 29t-51 45q-54 -109 -86 -109q-8 0 -23 13l-43.5 36
t-29.5 30zM1011 1319q0 22 37.5 95.5t48.5 73.5q22 9 64 -33.5t45 -66.5q0 -32 -35 -92t-51 -60q-6 3 -41.5 26.5l-52.5 35.5q-15 10 -15 21zM135 1138q0 22 37.5 95.5t48.5 73.5q22 9 64 -33.5t45 -66.5q0 -32 -35 -92t-51 -60q-6 3 -41.5 26.5l-52.5 35.5q-15 10 -15 21z
" />
    <glyph glyph-name="Bebinid" unicode="&#xfe91;&#xfe92;&#xfbff;&#xfee8;&#xfbff;&#xfeaa;" horiz-adv-x="1713" 
d="M1461 650q-25 -7 -56 -4q-22 4 -36 -16l-41 -54q-45 -52 -80 -49q-32 5 -54.5 -2t-39.5 -30q-8 -8 -53 -90q-34 -57 -65 -75q-34 -17 -69.5 -15t-50.5 6q-19 -7 -40.5 -28.5l-43.5 -43.5t-26 -24q-19 -12 -41 -11q-18 7 -42 11t-41.5 -8t-24.5 -20l-41.5 -61l-40.5 -62
q-38 -43 -68 -58q-32 -16 -73 -16q-65 0 -97.5 43.5t-45.5 97.5q-21 -39 -47 -75q-28 -40 -80 -62l-82 -24l-63 -13q-39 -3 -45 0q0 12 30 33l57 37.5l58 36.5q77 52 114 98q22 25 44 60l32 55l41 85q19 38 22 41q17 23 27 21q10 -4 6 -21q-4 -8 -14 -36q-14 -39 -14 -64
q0 -74 68.5 -103t127.5 2q26 15 57 54q24 31 62.5 56.5t77.5 9.5q15 -7 19 -7q27 0 51 19q25 20 25 32q-7 7 -8 12q-8 18 -8 51q0 55 20 112q21 60 45 60q4 0 14.5 -31t28.5 -42.5t36 -14.5t42 -3q67 0 99 38q51 65 72 78q21 14 44 9t41 -5q15 2 36 19.5t21 36.5
q-5 11 -6 16q-8 22 -8 41q0 56 24 119q19 53 41 84q12 16 19 22q10 10 16 9q10 -5 10 -15l-6 -30q-5 -37 12.5 -67.5t62.5 -30.5q17 0 30 23q13 22 15 22q10 0 10 -24q0 -35 -16 -86q-11 -31 -19 -47q-33 -66 -72 -82zM1504 5q0 22 37.5 95.5t48.5 73.5q22 9 64 -33.5
t45 -66.5q0 -32 -35 -92t-51 -60q-6 3 -41.5 26.5l-52.5 35.5q-15 10 -15 21zM708 -568q0 13 41 90t50 77q17 7 49.5 -24.5t49.5 -55.5l44.5 74t32.5 41q25 0 59.5 -36.5t36.5 -68.5q0 -38 -37 -90q-36 -51 -53 -51q-11 0 -40 29t-51 45q-54 -109 -86 -109q-8 0 -23 13
l-43.5 36t-29.5 30zM1176 -177q0 22 37.5 95.5t48.5 73.5q22 9 64 -33.5t45 -66.5q0 -32 -35 -92t-51 -60q-6 3 -41.5 26.5l-52.5 35.5q-15 10 -15 21zM653 1014q0 22 37.5 95.5t48.5 73.5q22 9 64 -33.5t45 -66.5q0 -32 -35 -92t-51 -60q-6 3 -41.5 26.5l-52.5 35.5
q-15 10 -15 21zM172 -675q0 13 41 90t50 77q17 7 49.5 -24.5t49.5 -55.5l44.5 74t32.5 41q25 0 59.5 -36.5t36.5 -68.5q0 -38 -37 -90q-36 -51 -53 -51q-11 0 -40 29t-51 45q-54 -109 -86 -109q-8 0 -23 13l-43.5 36t-29.5 30z" />
    <glyph glyph-name="Pishbor" unicode="&#xfb58;&#xfbff;&#xfeb8;&#xfe92;&#xfeae;" horiz-adv-x="1707" 
d="M733 337q-16 -8 -43 -8h-31q-12 2 -27 2q-40 0 -73 -9q-31 -8 -80 -32q-74 -36 -170 -161l-104 -150q-67 -92 -142 -155q-43 -36 -139 -105q-56 -38 -89 -58q-40 -24 -91 -46q-3 -2 -25 -10q-17 -5 -28 0q-4 5 8 18q9 11 57 49l61.5 41.5l59.5 40.5q81 61 176 166
q52 53 115 145l26 38l25 38q95 138 115 160q76 94 163 151q120 86 236 86v0l57 -2q17 0 27 1q16 2 34 18q14 12 60 63q30 34 40 39q6 2 19 -1q14 -3 20 -1q22 8 46 41q5 9 11 18.5l12 18.5q6 2 27 2q11 0 23 5q13 5 27 32q13 28 17 28q24 -2 35 -2q17 5 26 10v0q16 8 16 22
q0 4 -4 14q-10 25 -10 49q0 74 45 170q13 29 32 53q19 22 25 21q7 -3 3 -24q-5 -24 -5 -38v-3.5v-5.5t2 -17v4q12 -68 76 -68q18 0 31 23q11 22 14 22q10 0 10 -24q0 -40 -16 -86q-11 -31 -19 -47q-31 -63 -71 -81l-12 -4l-13 -2v1v-1q-23 -4 -41 6l-41 -45l-21 -21v-1
q-13 -14 -26 -26q-5 -3 -10 -7t-9 -8q-23 -21 -43 -21q3 2 -21 -16l-18 -17.5t-17 -17.5q-10 -7 -22 -13q-16 -8 -27 -8l-20 -16l-18 -17.5t-17 -17.5q-14 -9 -35 -17q-23 -8 -30 -14l-32 -26l-35 -37l-45 -57q-8 -8 -26 -28q-14 -16 -31 -23v-1zM839 -130q0 13 41 90t50 77
q17 7 49.5 -24.5t49.5 -55.5l44.5 74t32.5 41q25 0 59.5 -36.5t36.5 -68.5q0 -38 -37 -90q-36 -51 -53 -51q-11 0 -40 29t-51 45q-54 -109 -86 -109q-8 0 -23 13l-43.5 36t-29.5 30zM577 1087q0 12 42.5 91t52.5 79q16 0 50.5 -29t46.5 -55l42 70q29 48 36 48q24 0 61 -34
q36 -38 36 -70q0 -37 -36 -92q-37 -53 -53 -53q-13 0 -37 25q-33 35 -55 51q-55 -112 -86 -112q-7 0 -53.5 37t-46.5 44zM668 1335q0 10 37.5 88.5t48.5 78.5q28 0 62 -34q34 -38 34 -73q0 -33 -31.5 -91t-46.5 -58q-9 0 -40 27.5t-47.5 39.5t-16.5 22zM1331 185
q0 12 40.5 91.5t49.5 79.5q16 0 49 -29.5t44 -54.5l40 69q28 49 35 49q23 0 57 -34q35 -39 35 -71q0 -37 -35 -92q-34 -53 -50 -53q-12 0 -35 25q-32 35 -53 51q-52 -112 -82 -112q-7 0 -51 37t-44 44zM1425 -2q1 10 40 79.5t48 68.5q24 -2 52.5 -37t26.5 -67
q-2 -35 -33 -86q-32 -49 -44 -49q-8 1 -19 15l-31 32l-26.5 23t-13.5 21zM383 -193q0 22 37.5 95.5t48.5 73.5q22 9 64 -33.5t45 -66.5q0 -32 -35 -92t-51 -60q-6 3 -41.5 26.5l-52.5 35.5q-15 10 -15 21z" />
    <glyph glyph-name="Bebinim" unicode="&#xfe91;&#xfe92;&#xfbff;&#xfee8;&#xfbff;&#xfee2;" horiz-adv-x="1728" 
d="M1544 1009q-18 -7 -58 -2q-21 4 -36 -16l-41 -54q-44 -53 -79 -49t-47 0q-28 -11 -60 -41q-19 -18 -43 -57q-29 -49 -51 -70q-47 -44 -128 -39v0l-33 4q-21 4 -37 -16l-41 -56q-24 -31 -46 -45q-21 -14 -33 -14v0q-21 1 -43 10t-36 9q-23 0 -55 -11q-26 -8 -70 -37
q-41 -30 -57 -56l38 -16q4 -2 53 -28q43 -24 43 -61q0 -10 -6 -22q-49 -115 -117 -154q-24 -16 -141 -43q-62 -15 -106 -37q-49 -24 -92 -53q-85 -63 -109 -118q-27 -68 -49 -162q-3 -13 -16 -94q-3 -24 -25 -240q-20 -213 -20 -249l-14 -288q0 -55 -10 -163q-8 -97 -19 -97
q-13 -2 -13.5 76t-0.5 128v107v100t0.5 92t1.5 84q0 173 24 350q27 184 66 298q12 42 32 86q39 80 92 150q32 36 62 65q39 36 65 55l86 58l125 192v0l49 59q23 23 41 39l60 46q30 21 72 41q42 17 69 17q24 -1 41 -8t22 -4q18 1 37 27q20 24 20 34q-4 11 -6 17q-8 21 -9 40
t6 55t14.5 58.5t26.5 59.5t37 53q12 9 17 8q10 -5 10 -15l-6 -30q-6 -56 35 -84q29 -18 79 -18q60 0 94 39q64 68 79 78q18 12 41 8.5t43 -4.5q17 1 33 16q24 22 24 41q-4 11 -6 16q-8 27 -8 41q0 57 25 119q9 25 18 43q7 15 22 41q12 16 19 23q11 9 16 8q10 -5 10 -15
l-6 -30q-4 -37 13.5 -68.5t62.5 -31.5q20 0 31 22q13 23 14 23q10 0 10 -25q0 -38 -16 -86q-9 -27 -19 -47q-31 -66 -71 -82zM1515 418q0 22 37.5 95.5t48.5 73.5q22 9 64 -33.5t45 -66.5q0 -32 -35 -92t-51 -60q-6 3 -41.5 26.5l-52.5 35.5q-15 10 -15 21zM1246 255
q0 22 37.5 95.5t48.5 73.5q22 9 64 -33.5t45 -66.5q0 -32 -35 -92t-51 -60q-6 3 -41.5 26.5l-52.5 35.5q-15 10 -15 21zM585 1223q0 22 37.5 95.5t48.5 73.5q22 9 64 -33.5t45 -66.5q0 -32 -35 -92t-51 -60q-6 3 -41.5 26.5l-52.5 35.5q-15 10 -15 21zM805 -167q0 13 41 90
t50 77q17 7 49.5 -24.5t49.5 -55.5l44.5 74t32.5 41q25 0 59.5 -36.5t36.5 -68.5q0 -38 -37 -90q-36 -51 -53 -51q-11 0 -40 29t-51 45q-54 -109 -86 -109q-8 0 -23 13l-43.5 36t-29.5 30zM244 -606q0 13 41 90t50 77q17 7 49.5 -24.5t49.5 -55.5l44.5 74t32.5 41
q25 0 59.5 -36.5t36.5 -68.5q0 -38 -37 -90q-36 -51 -53 -51q-11 0 -40 29t-51 45q-54 -109 -86 -109q-8 0 -23 13l-43.5 36t-29.5 30z" />
    <glyph glyph-name="Pichid" unicode="&#xfb58;&#xfbff;&#xfb7d;&#xfbff;&#xfeaa;" horiz-adv-x="1415" 
d="M359 311q0 -51 28 -79q3 -4 21 -15q35 -20 65 -20q58 0 82 13q24 14 57 54q21 27 56 51q35 23 59 23v-2v1q3 0 21 -5q12 -3 16 -3q22 0 45 21q16 20 30 34q11 11 50 62q6 8 12 14h-8.5h-8.5t-24 2l-59 -2h-43q-5 0 -41 2q-27 3 -18 29q1 7 12 25q9 17 27 42q3 3 7 9l3 4
v0v0q9 12 16.5 21l13.5 16q28 32 57 53q50 39 117 64q67 28 121 28q15 0 36 -8v0q8 -3 16 -7.5t17 -8.5q29 0 36 7t34 52q12 21 24 21q10 0 6 -20q-5 -20 -10 -31q-35 -70 -63 -106q-31 -36 -59 -38h-1q-2 0 -51 18q-30 11 -51 11q-35 0 -87 -15q-52 -13 -97 -45
q-11 -6 -29 -26l-17 -18l-0.5 -0.5l-0.5 -0.5q0 -7 16 -7q10 -1 29 -1q41 0 56 2q30 2 45 4q38 0 62 5q10 3 20.5 5.5t19.5 5.5q4 3 6 -4q2 -4 2 -14q0 -12 -6 -29q-13 -30 -22 -37q-32 -21 -55 -45l-22 -22.5t-22 -24.5q-36 -38 -55 -62l-45 -54q-21 -25 -45 -39
q-13 -6 -33 -2v2v-2l-31 5q-21 0 -34 -9q-13 -7 -23 -20l-41.5 -61l-40.5 -62q-36 -42 -69 -58q-31 -16 -72 -16q-68 0 -99 45q-33 45 -42 82q0 3 -2 15l-13 -25q-10 -17 -34 -51q-31 -41 -80 -62l-82 -24l-64 -12q-39 -4 -45 0q0 12 31 32l56.5 37.5l58.5 36.5
q77 52 114 98q23 27 44 61q23 38 32 54l41 86q21 39 23 41q15 24 26 20q10 -4 6 -20q-6 -12 -9 -21.5l-5 -15.5q-14 -37 -14 -64zM1085 100q0 -7 43 -43t49 -36q30 0 80 109q21 -15 52 -49q22 -25 34 -25q15 0 48 52q34 53 34 89q0 32 -34 70q-33 33 -55 33q-7 0 -34 -48
l-39 -67q-11 24 -43 53t-47 29q-9 0 -48.5 -77.5t-39.5 -89.5zM1176 -82q0 -9 13.5 -20.5l25.5 -22.5l31 -31q10 -14 18 -15q12 0 43 48q30 50 32 84q2 31 -26 65t-51 36q-9 1 -47 -66.5t-39 -77.5zM704 -412q0 -7 31.5 -32.5l46.5 -38.5q16 -14 25 -14q34 0 92 117
q23 -17 54 -48t43 -31q18 0 57 54q39 56 39 97q-2 34 -39 73t-63 39q-9 0 -35 -44l-48 -79q-18 25 -52.5 59t-53.5 26q-9 0 -53 -82t-44 -96zM367 -704q0 -7 42 -42t49 -35q28 0 77 106q20 -15 51 -48q21 -24 33 -24q15 0 47 50q33 52 33 88q0 30 -33 67q-32 32 -54 32
q-7 0 -33 -46q-18 -33 -38 -66q-10 24 -41.5 52t-46.5 28q-9 0 -47.5 -75.5t-38.5 -86.5zM457 -882q0 -8 12.5 -19.5l25.5 -22.5l29 -30q10 -13 18 -14q11 0 42 46q29 49 31 82q2 30 -25 63.5t-50 35.5q-9 1 -45.5 -65t-37.5 -76zM-100 -621q0 -6 29.5 -30l43.5 -36
q15 -13 22 -13q32 0 86 109q22 -16 51 -45t40 -29q17 0 53 51q37 52 37 89q-2 32 -36.5 68.5t-59.5 36.5q-8 0 -32.5 -41l-44.5 -74q-17 24 -49.5 55.5t-48.5 24.5q-9 0 -50 -76.5t-41 -89.5z" />
    <glyph glyph-name="Cheshmgir" unicode="&#xfb7c;&#xfeb8;&#xfee4;&#xfb95;&#xfbff;&#xfeae;" horiz-adv-x="1620" 
d="M695 296q-14 -8 -43 -8h-31q-24 2 -26 2q-43 0 -74 -10q-34 -9 -80 -31q-76 -39 -170 -162q-3 -5 -104 -149q-66 -90 -141 -156q-50 -40 -139 -104l-89 -58q-39 -24 -91 -47q-5 -1 -11 -4t-15 -6q-18 -6 -27 0q-4 4 8 19q10 12 57 49l121 82q79 60 175 165q60 65 115 146
q27 36 51 75q90 133 115 160q73 93 164 151q117 86 235 86q46 -3 57 -3q17 0 35 3q18 4 35 26q9 13 14 53l3 64q0 6 0.5 32.5t4.5 84.5q6 64 10 92q3 24 10.5 76t14.5 68l26 64t15 36q40 89 59 116q5 2 8 -2q16 43 36 78q19 36 47 63q45 49 192 168l130.5 104.5l131.5 106.5
l183 157q66 57 155 148q36 36 102 110q44 49 51 49v-11.5v-10.5q-13 -43 -76 -133q-74 -110 -149 -184q-66 -66 -141 -131l-80 -67l-49 -42l-74 -61l-65 -51l-82.5 -63.5l-81.5 -61.5l-141 -110l-30.5 -24.5l-27.5 -22.5q-23 -16 -28 -16q0 -7 -3 -19l-36 -195
q-7 -36 -11 -63t-7 -45q-5 -40 -5 -59q0 -43 1 -64q7 -42 25 -66q29 -38 87 -38q27 0 54 9t55 38q30 38 47 57q13 19 26 26q12 7 14 12l1 1l-1 -1q13 29 28 56q13 26 31 50q35 43 80 80q60 47 109 47q22 0 34 -7l27 -15q43 0 90 61q10 -5 23.5 -7.5t28.5 6.5q16 9 28 30
q2 2 8 11t8 13q9 -6 21 -6q16 0 35 12.5t49 51.5l43 55q-7 4 -12 4q-28 11 -52 18q-24 8 -30 11q-27 10 -33 10q-29 0 -51 -31q-14 -18 -18 -22q-9 -9 -12 -6q-13 5 4 36q29 56 51 78q28 25 55 25q16 0 67 -18q51 -17 83 -17q22 0 43 9q21 8 28 15q7 6 14 2q6 -4 4 -18
q-2 -15 -9 -38q-6 -23 -11 -29l-33 -25l-39 -37l-75 -84l-68 -75v0v0l-26 -18q-16 -11 -32 -19l-31 -17l-25.5 -16t-23.5 -14q-23 -16 -44 -18q-22 -4 -54 -31q-7 -5 -21 -13q-12 -6 -34 -6q-11 0 -25 8q-30 21 -49 21q-31 0 -65 -24q-35 -22 -35 -54h-1h0.5h0.5
q0 -21 35 -57t35 -53q0 -28 -35 -65t-51 -37q-9 0 -37 12q-31 13 -55 13q-31 0 -53 -27q-5 -4 -39 -61q-22 -35 -37 -56q-51 -63 -106 -63q-63 0 -97 51q-5 -3 -16 -17q-27 -40 -45 -64q-21 -28 -59 -66q-33 -33 -66 -54v1zM1821 2068q-10 -28 -70 -86q-75 -76 -207 -174
q5 11 13 33q17 25 112 114q48 44 94 79q46 34 58 34zM1263 -53q0 -7 44 -44t51 -37q30 0 82 112q21 -16 53 -51q23 -25 35 -25q16 0 50 53q35 55 35 92q0 32 -35 71q-34 34 -57 34q-7 0 -35 -49l-40 -69q-11 25 -44 54.5t-49 29.5q-9 0 -49.5 -79.5t-40.5 -91.5zM1357 -240
q0 -9 13.5 -21l26.5 -23l31 -32q11 -14 19 -15q12 0 44 49q31 51 33 86q2 32 -26.5 67t-52.5 37q-9 1 -48 -68.5t-40 -79.5zM305 -397q0 -6 29.5 -30l43.5 -36q15 -13 23 -13q32 0 86 109q22 -16 51 -45t40 -29q17 0 53 51q37 52 37 90q-2 32 -36.5 68.5t-59.5 36.5
q-8 0 -32.5 -41l-44.5 -74q-17 24 -49.5 55.5t-49.5 24.5q-9 0 -50 -77t-41 -90zM882 1676q0 -7 46.5 -44t53.5 -37q31 0 86 112q22 -16 55 -51q24 -25 37 -25q16 0 53 53q36 55 36 92q0 32 -36 70q-37 34 -61 34q-7 0 -36 -48l-42 -70q-12 26 -46.5 55t-50.5 29
q-10 0 -52.5 -79t-42.5 -91zM973 1924q0 -10 16.5 -22t47.5 -39.5t40 -27.5q15 0 46.5 58t31.5 91q0 35 -34 73q-34 34 -62 34q-11 0 -48.5 -78.5t-37.5 -88.5z" />
    <glyph glyph-name="Shega" unicode="&#xfeb7;&#xfb95;&#xfe8e;" horiz-adv-x="982" 
d="M452 365q0 37 -46 57q-43 19 -119 19q-39 0 -51 -6q-41 -19 -41 -82q0 -62 33 -96q26 -29 71 -29q69 0 111 46t42 91zM521 378q-8 -2 -20 -47q-10 -39 -19 -62q-47 -125 -69 -161q-66 -107 -171 -107q-72 0 -108 70q-37 68 -37 198q0 52 20 184q21 139 36 225l30 167
q13 78 28 113l68 142q9 6 10 3q2 -4 2 -16q0 -13 -3 -26q-2 -10 -4 -28q-3 -33 -44 -293l-19 -131.5t-10 -69.5q16 0 185 198l212.5 245l98.5 112l116 131l83 96q138 163 225 302l18 27q12 10 5 -16q-17 -63 -19 -68q-25 -68 -74 -143q-31 -54 -92 -133q-71 -93 -165 -200
q-3 -3 -111 -123l-70 -79.5l-69 -82.5l-123 -143l-111 -127q2 0 3.5 -0.5l1.5 -0.5l149 -32q15 -4 29.5 -8.5t29.5 -7.5q65 -19 88 -19q24 0 72 58l33 47h13.5h16.5q18 0 41 26q24 29 31 48q6 17 11 22q3 1 19 -1q14 -3 19 3q17 17 29 61q0 3 7 17q7 13 13 12q6 -3 6 -33
q0 -60 -22 -104q-17 -31 -43 -59l-39 -33l-25 -23q-25 -32 -35 -38q-20 -8 -44 -19q-9 -5 -60 -57q-40 -41 -69 -41q-3 0 -45 18q-15 6 -29 6v1zM1082 1671q-3 -25 -57 -94q-67 -90 -181 -200q2 8 3.5 16.5t3.5 17.5q16 29 97 128q50 59 82 91q40 40 52 41zM329 1212
q0 -7 46.5 -44t53.5 -37q31 0 86 112q22 -16 55 -51q24 -25 37 -25q16 0 53 53q36 55 36 92q0 32 -36 70q-37 34 -61 34q-7 0 -36 -48l-42 -70q-12 26 -46.5 55t-50.5 29q-10 0 -52.5 -79t-42.5 -91zM420 1460q0 -10 16.5 -22t47.5 -39.5t40 -27.5q15 0 46.5 58t31.5 91
q0 35 -34 73q-34 34 -62 34q-11 0 -48.5 -78.5t-37.5 -88.5z" />
    <glyph glyph-name="iiyeh" unicode="&#xfbfe;&#xfbff;&#xfeea;" horiz-adv-x="893" 
d="M691 221q-27 -37 -50 -41.5t-62 -5.5q-33 -2 -80 -49l-57 -59q-33 -32 -53 -45q-35 -20 -84 -20q-32 0 -53 6q-38 9 -73 15.5t-73 -5.5q-23 -8 -42.5 -20.5t-42.5 -20.5q-37 -13 -29 8q16 39 63 86q82 86 164 123q55 24 94 24q16 0 45 -12q24 -11 58.5 -13.5t58.5 10.5
q18 9 43 31l24 20l24 20q26 18 47.5 16.5t45.5 -4.5q25 -2 67 73q10 17 14 17q8 1 8 -7q0 -6 -6 -32t-21 -60q-18 -38 -30 -55zM500 -632q0 -6 29.5 -30l43.5 -36q15 -13 23 -13q32 0 86 109q22 -16 51 -45t40 -29q17 0 53 51q37 52 37 90q-2 32 -36.5 68.5t-59.5 36.5
q-8 0 -32.5 -41l-44.5 -74q-17 24 -49.5 55.5t-49.5 24.5q-9 0 -50 -77t-41 -90zM13 -648q0 -6 29.5 -30l43.5 -36q15 -13 23 -13q32 0 86 109q22 -16 51 -45t40 -29q17 0 53 51q37 52 37 90q-2 32 -36.5 68.5t-59.5 36.5q-8 0 -32.5 -41l-44.5 -74q-17 24 -49.5 55.5
t-49.5 24.5q-9 0 -50 -77t-41 -90z" />
    <glyph glyph-name="Shekastgi" unicode="&#xfeb7;&#xfb91;&#xfeb4;&#xfe98;&#xfb95;&#xfbfd;" horiz-adv-x="2130" 
d="M1730 1882q-8 -23 -69 -86q-81 -80 -207 -174l6 16t6 17q22 29 113 115q44 41 94 78q44 34 57 34zM1699 1665q-30 -31 -66 -63.5l-75 -67.5l-79.5 -67t-49.5 -41q-69 -59 -139 -113l-82.5 -63.5l-81.5 -61.5l-141 -110q-15 -13 -30 -24.5l-28 -21.5q-28 -22 -32 -16
q18 50 37 82q21 38 47 64q39 43 192 168l262 210l184 157q89 80 154 148l45.5 48t56.5 63q44 49 52 49v-12v-11q-14 -40 -76 -133q-76 -112 -150 -184zM850 694v-2q0 -100 49 -143q36 -33 86 -33q67 0 112 59q32 42 57 58q22 16 44 12v0q24 -8 26 -8q9 -4 17 -4q23 0 35 5
q11 4 24 23q10 20 7 13q4 10 9 12q7 1 12 -2q5 -5 7 -6q22 -6 43 24q2 6 6 14q4 9 10 11q5 1 9 -1q3 -2 5 -3.5t4 -1.5q20 1 37 26l8 16q4 7 11 9q10 -4 22 -4l25 10v1q37 18 37 61l2 72q0 28 9 103q8 73 21 148l23 72q11 35 28 80q32 80 41 96q6 4 10 1q2 -3 1 -21
q-7 -41 -12 -75l-9 -61q-24 -149 -24 -184v-28v-33q3 -30 11 -55q11 -31 40 -51q28 -21 73 -21q59 0 98 35q49 45 66 51q10 2 25 1q12 -1 30 -1t26 6q24 16 37 45q6 20 10 31q10 -2 29 -2t31 22q4 8 16 42q10 30 16 30q9 0 9 -18q0 -67 -40 -133q-42 -64 -83 -64
q-27 -39 -31 -43q-28 -31 -49 -31q-22 4 -39 4q-13 0 -29 -8q-22 -9 -76 -82q-57 -73 -122 -73q-72 0 -103 63l-1 1q-12 -6 -24 -17l-47 -47v-0.5v-0.5q-21 -21 -56 -35l-28 -12q-27 -17 -31 -20l-41 -19q-34 -18 -51 -26l-22 -8l-41 -31q-30 -23 -47 -17v0q-33 4 -46 0
q-51 -17 -107 -113q-57 -96 -130 -96q-74 0 -112 64q-10 14 -15 28q-10 -2 -24 -28q-37 -61 -37 -78q0 -12 24 -30l31 -23q29 -24 47 -48q17 -27 17 -65q0 -49 -29 -151q-35 -127 -99 -228q-63 -98 -144 -159q-101 -77 -217 -77q-129 0 -195 81q-57 72 -57 191q0 73 10 131
q10 61 39 132q24 64 50 118q28 60 60 121l26.5 51t21.5 44q39 75 47 74q6 -5 6 -21q0 -26 -14 -55l-64 -144l-43 -98q-57 -132 -57 -206q0 -101 65 -153q60 -48 156 -48q120 0 217 61q93 59 131 171q1 12 -14 27q-13 14 -60 44q-38 23 -41 27q-31 26 -31 69q0 21 25 86
l63 127q23 42 37 70q22 45 27 67l2 41v1.5v2.5v1l6 106q5 56 18 112q11 61 19 86q16 54 25 74q13 36 49 96q7 6 13 3q4 -3 -3 -28q-15 -84 -21 -131q-20 -139 -20 -159zM1768 1561q45 48 192 168l131 104l131 106q89 74 180 158l162 156q154 147 154 151q0 -9 -5 -19
q-6 -27 -38 -85q-30 -53 -56 -86q-26 -35 -70 -85q-52 -56 -61 -65q-26 -26 -104 -96l-166 -143q-69 -59 -139 -113l-164 -125l-141 -110l-58 -46q-29 -21 -32 -15q17 47 37 81q21 38 47 64zM761 1483q0 13 41 90t50 77q17 7 49.5 -24.5t49.5 -55.5l44.5 74t32.5 41
q25 0 59.5 -36.5t36.5 -68.5q0 -38 -37 -90q-36 -51 -53 -51q-11 0 -40 29t-51 45q-54 -109 -86 -109q-8 0 -23 13l-43.5 36t-29.5 30zM2011 2181q0 12 42.5 91t52.5 79q16 0 50.5 -29t46.5 -55l42 70q29 48 36 48q24 0 61 -34q36 -38 36 -70q0 -37 -36 -92q-37 -53 -53 -53
q-13 0 -37 25q-33 35 -55 51q-55 -112 -86 -112q-7 0 -53.5 37t-46.5 44zM2102 2429q0 10 37.5 88.5t48.5 78.5q28 0 62 -34q34 -38 34 -73q0 -33 -31.5 -91t-46.5 -58q-9 0 -40 27.5t-47.5 39.5t-16.5 22z" />
    <glyph glyph-name="Bonga" unicode="&#xfe91;&#xfee8;&#xfb95;&#xfe8e;" horiz-adv-x="992" 
d="M959 1490q5 -3 -6 -33q-4 -12 -15 -33q-36 -59 -135 -165l-45 -43.5l-43 -42.5q10 28 21 48q11 21 34 48l65 70.5l48 54.5q47 54 76 96zM463 364q0 36 -46 56q-48 20 -120 20q-39 0 -51 -6q-41 -20 -41 -82q0 -60 33 -95q26 -29 71 -29q70 0 112 46q42 45 42 90zM532 376
q-8 0 -20 -47q-12 -46 -18 -60q-51 -130 -70 -162q-68 -106 -172 -106q-72 0 -108 69q-37 70 -37 199q0 39 20 183q21 139 36 225q12 72 30 167q12 76 28 114l68 141q8 6 10 3q2 -2 2 -16q0 -13 -3 -26q-2 -10 -4 -28l-12 -80.5l-32 -212.5q-27 -178 -29 -201q14 0 187 199
l212.5 244l98.5 112l198 227q138 163 225 302q12 27 19 27q1 -11 4 -16q-17 -63 -19 -68q-24 -66 -73 -143q-38 -63 -92 -133q-74 -95 -166 -201l-111 -122l-70 -79.5l-69 -82.5l-123 -143l-112 -127h1q129 -11 200 -31q77 -22 104 -39q12 0 24 10q8 7 37 41q22 28 48 50
q24 19 50 24v0l43 -6q15 0 28 16q3 3 39 58q10 16 14 16q9 0 9 -7q0 -2 -4 -24q-10 -35 -24 -67q-17 -38 -30 -55q-37 -55 -75 -50v0l-18 4q-22 0 -31 -4q-11 -5 -35 -26l-57 -66q-12 -17 -25 -25q-11 -10 -22 -8q-8 4 -15 8t-14 9q-28 14 -45 14zM702 -61q0 -11 15 -21
l52.5 -35.5t41.5 -26.5q16 0 51 60t35 92q-3 24 -45 66.5t-64 33.5q-11 0 -48.5 -73.5t-37.5 -95.5zM405 1253q0 -11 15 -21l52.5 -35.5t41.5 -26.5q16 0 51 60t35 92q-3 24 -45 66.5t-64 33.5q-11 0 -48.5 -73.5t-37.5 -95.5z" />
    <glyph glyph-name="Hemttan" unicode="&#x6be;&#xfee4;&#xfe98;&#xfe98;&#xfe8e;" horiz-adv-x="1281" 
d="M167 376q1 -101 50 -145q37 -33 86 -33q68 0 113 60q35 45 56 58q23 15 43 11v1q21 -5 43 -6q20 2 38 23q15 19 15 30q-3 6 -7.5 22.5t-4.5 40.5q0 42 18 86q19 43 32 59q13 17 26 17q6 0 6 -37q0 -14 10 -29v-1q11 -22 31 -31q18 -9 49 -9q23 0 45 8q24 7 47 32
q-1 -1 41 47l31 33q19 51 38 89q32 63 68 105q32 37 66 62q30 23 65 23q23 0 57 -29q7 0 16 25q10 24 17 24q10 0 25 -18q16 -18 16 -39q0 -50 -32 -85q-33 -34 -60 -34q-17 0 -41 17q-25 16 -43 16q-15 0 -31 -5q-10 -3 -33 -21q-45 -38 -45 -84l-1 -1h1q0 -22 37 -63
q19 -21 19 -35q0 -24 -32 -56q-31 -32 -46 -32q-7 0 -31 10q-26 11 -49 11q-27 0 -45 -23q-2 -4 -33 -52q-30 -48 -45 -63q-35 -35 -77 -35q-14 0 -23 3t-20 5q-25 3 -37 -17l-41 -53q-45 -52 -78.5 -49t-45.5 -1q-51 -15 -107 -112q-57 -96 -130 -96q-74 0 -113 63t-39 154
h-0.5h-0.5q0 19 23 213q21 182 36 290q-1 -1 33 84l27.5 66l21.5 49q7 11 9 4q1 -5 -3 -33l-8 -53l-34 -250q-11 -75 -15 -131q-4 -74 -4 -80zM1257 276q-28 -56 -41 -84q-60 -101 -60 -160q0 -7 32 -20q32 -16 32 -56q0 -29 -18 -54q-17 -25 -41 -25q-28 0 -38 24
q-12 25 -12 55q0 70 62 198q61 125 84 122zM560 1130q0 13 41 90t50 77q17 7 49.5 -24.5t49.5 -55.5l44.5 74t32.5 41q25 0 59.5 -36.5t36.5 -68.5q0 -38 -37 -90q-36 -51 -53 -51q-11 0 -40 29t-51 45q-54 -109 -86 -109q-8 0 -23 13l-43.5 36t-29.5 30zM67 1098
q0 13 41 90t50 77q17 7 49.5 -24.5t49.5 -55.5l44.5 74t32.5 41q25 0 59.5 -36.5t36.5 -68.5q0 -38 -37 -90q-36 -51 -53 -51q-11 0 -40 29t-51 45q-54 -109 -86 -109q-8 0 -23 13l-43.5 36t-29.5 30z" />
    <glyph glyph-name="Moshkela" unicode="&#xfee3;&#xfeb8;&#xfb91;&#xfefc;" horiz-adv-x="1527" 
d="M405 287q-13 -44 -25 -79q-18 -49 -39 -84q-34 -54 -66 -86q-43 -40 -96 -40q-28 0 -50 12q-19 11 -40 32q-17 14 -20 17q-15 12 -15 26q0 9 10 24q9 14 21 30q3 5 16 24q8 16 16 43q6 25 10 70q3 42 3 73v63q0 43 -2 66q0 93 27 201q15 62 61 197q1 6 5 10l5 5
q7 0 7 -37q0 -4 -2 -60q-2 -27 -2 -51l-15 -259q0 -42 -8 -106q-10 -64 -25 -115q-24 -81 -63 -141q2 -4 16 -4h25q56 0 107 48t73 116q5 19 10 62q4 38 4 73q0 60 -2 81q-2 41 -4 60q0 31 0.5 62.5t0.5 62.5q1 66 23 146q20 81 76 182q8 10 13 9q3 -3 0 -33q-4 -38 -6 -55
q-11 -93 -11 -125l-1 -47q4 6 6 8q11 8 98 98l77.5 84l88.5 96l102.5 113l103.5 114q139 155 219 277q12 26 19 26q4 -6 4 -14q-9 -35 -21 -68q-22 -55 -73 -137q-30 -49 -92 -127q-80 -99 -164 -192l-245 -272l155 -32q15 -5 29.5 -9l29.5 -8q69 -17 88 -17q24 0 72 56
l39 49q5 4 17 1q10 -3 15 -3l17 2q16 4 24 16q1 1 17 23q18 27 28 31q20 -6 35 -8q10 1 37 37l22 30q12 0 27 -8l10 4q30 27 35 33l49 94q16 25 37 49q2 3 20 23q6 8 20 37q16 32 30 53q4 2 20 -11q17 -15 29 -34q14 -26 23 -46q11 -24 11 -48q0 -29 -20 -60
q-21 -35 -44 -40q-23 -7 -30 -7q-28 3 -43 7q-24 3 -37 -8q-16 -12 -28 -33q-23 -39 -27 -41l-45 -52q-13 -13 -29 -23q-29 -19 -34 -23q-11 -7 -35 -25q-17 -14 -29 -19l-34 -14q-28 -22 -41 -33l-62 -34q-7 -4 -41 -38q-48 -52 -82 -52q-3 0 -45 19q-14 6 -28 6h-1l1 -1
q-10 0 -18 -41q-7 -27 -19 -63q-47 -122 -74 -164q-63 -96 -161 -96q-53 0 -90 42zM699 597q0 45 -71 63q-41 11 -88 11q-36 0 -49 -6q-41 -19 -41 -80q0 -46 18 -76q27 -45 82 -45q65 0 107 46q42 47 42 87zM317 1256q0 12 42.5 91t52.5 79q16 0 50.5 -29t46.5 -55l42 70
q29 48 36 48q24 0 61 -34q36 -38 36 -70q0 -37 -36 -92q-37 -53 -53 -53q-13 0 -37 25q-33 35 -55 51q-55 -112 -86 -112q-7 0 -53.5 37t-46.5 44zM408 1504q0 10 37.5 88.5t48.5 78.5q28 0 62 -34q34 -38 34 -73q0 -33 -31.5 -91t-46.5 -58q-9 0 -40 27.5t-47.5 39.5
t-16.5 22z" />
    <glyph glyph-name="Montaghed" unicode="&#xfee3;&#xfee8;&#xfe98;&#xfed8;&#xfeaa;" horiz-adv-x="1311" 
d="M693 279q0 30 -19 48q-20 17 -52 17q-23 0 -47 -24q-25 -25 -25 -48q0 -21 23 -31q21 -11 41 -11q22 0 50 20q29 20 29 29zM771 180q-32 -23 -55 -31q-21 -10 -37 -14l-33 -8q-14 -13 -26 -20q-54 -56 -111 -82q-57 -27 -102 -27q-38 0 -74 15q-33 13 -61 51
q-17 23 -27 53q0 6 -2 10q-2 -10 -10 -23q-6 -14 -26 -37q-17 -26 -37 -38q-19 -12 -51 -24l-84 -25l-66 -16q-21 -5 -33 -5q-11 0 -16 3q0 10 33 34l61 38.5l60 39.5q83 57 118 100q27 31 48 67q30 48 32 52l41 88q18 34 28 50q13 20 25 17q11 -2 6 -20q-7 -20 -14 -43
q-16 -51 -16 -74q0 -49 34 -77q35 -29 82 -29q15 0 27 2l12 39q16 47 45 98q34 57 45 74q38 47 76 47q39 0 58 -35q20 -36 20 -80q0 -20 -8 -50q-6 -27 -15 -54q15 -7 52 18v0q18 11 34 26l26 25l66 70q21 20 33 16q15 -2 35 -12q22 -10 42 -10q11 0 28 23q17 24 17 32
q-4 12 -7 27.5t-3 29.5q0 55 25 119q9 24 18 43q10 20 23 40q9 13 18 23q10 9 16 8q11 -5 11 -14l-7 -31q-7 -43 8 -65t37 -20q7 12 12.5 23.5t11.5 21.5q12 18 22 18q11 0 28 -17q17 -19 17 -48q0 -34 -17 -80q-16 -47 -45 -86q-19 -26 -43 -37q-32 -13 -63 -6
q-20 3 -35 -17l-43 -55q-39 -49 -65 -53q-10 -3 -34 6q-17 8 -38.5 7t-55.5 -28l-71 -62v-1zM606 1026q0 13 41 90t50 77q17 7 49.5 -24.5t49.5 -55.5l44.5 74t32.5 41q25 0 59.5 -36.5t36.5 -68.5q0 -38 -37 -90q-36 -51 -53 -51q-11 0 -40 29t-51 45q-54 -109 -86 -109
q-8 0 -23 13l-43.5 36t-29.5 30zM1062 1207q0 22 37.5 95.5t48.5 73.5q22 9 64 -33.5t45 -66.5q0 -32 -35 -92t-51 -60q-6 3 -41.5 26.5l-52.5 35.5q-15 10 -15 21zM160 889q0 13 41 90t50 77q17 7 49.5 -24.5t49.5 -55.5l44.5 74t32.5 41q25 0 59.5 -36.5t36.5 -68.5
q0 -38 -37 -90q-36 -51 -53 -51q-11 0 -40 29t-51 45q-54 -109 -86 -109q-8 0 -23 13l-43.5 36t-29.5 30z" />
    <glyph glyph-name="Ntegh" unicode="&#xfee7;&#xfe98;&#xfed8;&#xfe8e;" horiz-adv-x="995" 
d="M173 377q0 -91 43 -135q38 -40 76 -35q5 0 10 19q3 9 17 45l36 77q62 115 119 115q36 0 56 -31t20 -78q0 -25 -4 -61q-3 -23 -9 -47q7 -5 22 2q19 7 32 16v0q15 9 38 39q47 60 47 61q32 40 55 58q28 17 51.5 16.5t26.5 -0.5q18 0 27 12l28 55q17 26 27 25q9 -2 4 -28
q-5 -29 -10 -41l-45 -107q-10 -22 -22 -31q-8 -7 -23 -10q-14 -2 -34 5t-38 -1q-9 -5 -34 -27l-58 -65q-54 -65 -104 -79q-13 -6 -23.5 -10t-19.5 -7q-16 -6 -24 -12q-9 -6 -33 -27q-39 -45 -90 -67q-50 -23 -88 -23q-72 0 -117 60q-45 58 -45 157v0q0 20 23 214
q25 208 37 290q2 6 32 83l49 115q3 5 5 6.5t4 -2.5q2 -5 -2 -33l-9 -53q-40 -324 -46.5 -389t-6.5 -71zM505 293q0 24 -21 39q-20 14 -49 14q-27 0 -49 -22q-23 -23 -23 -41q0 -21 22 -30q21 -9 40 -9q41 0 59 16q21 16 21 33zM466 831q0 13 41 90t50 77q17 7 49.5 -24.5
t49.5 -55.5l44.5 74t32.5 41q25 0 59.5 -36.5t36.5 -68.5q0 -38 -37 -90q-36 -51 -53 -51q-11 0 -40 29t-51 45q-54 -109 -86 -109q-8 0 -23 13l-43.5 36t-29.5 30zM822 1182q0 22 37.5 95.5t48.5 73.5q22 9 64 -33.5t45 -66.5q0 -32 -35 -92t-51 -60q-6 3 -41.5 26.5
l-52.5 35.5q-15 10 -15 21zM171 1144q0 13 41 90t50 77q17 7 49.5 -24.5t49.5 -55.5l44.5 74t32.5 41q25 0 59.5 -36.5t36.5 -68.5q0 -38 -37 -90q-36 -51 -53 -51q-11 0 -40 29t-51 45q-54 -109 -86 -109q-8 0 -23 13l-43.5 36t-29.5 30z" />
    <glyph glyph-name="IIs" unicode="&#xfbfe;&#xfbff;&#xfeb2;" horiz-adv-x="1422" 
d="M1213 516q-12 -5 -33 -8t-40 4l-41 -45l-22 -22v-1q-28 -28 -63 -36q-3 0 -17 -4l-39 -19q-9 -4 -19 -4h-15q-32 -25 -101 -43l-8 -72q-21 -136 -28 -163q-32 -136 -91 -246q-80 -152 -184 -233q-111 -88 -253 -88q-121 0 -189 94q-59 85 -59 215q0 72 17 161
q19 90 36 138q40 108 66 151q20 35 30 35q8 0 5 -13t-11 -40q-15 -48 -41 -117l-23 -95q-11 -45 -11 -93q0 -123 75 -174q57 -39 158 -39q75 0 133 16q96 28 163 97q34 33 77 114t53 141q11 53 14 96q2 48 2 82v82q0 36 8 54q8 20 35 20q20 -12 51 -12q40 0 63 22l25 25
q4 0 14 -9q12 -8 25 -8q16 0 35 27q8 14 12 20q12 -6 25 -6.5t30 8.5q16 11 16 23q0 5 -4 14q-10 26 -10 49q0 73 45 169q13 29 33 53q18 22 24 21q9 -4 3 -24q-5 -24 -2 -53t20.5 -49.5t61.5 -20.5q19 0 31 23q12 22 14 22q10 0 10 -24q0 -40 -16 -86q-10 -31 -19 -47
q-31 -66 -71 -82zM574 -684q0 -6 29.5 -30l43.5 -36q15 -13 23 -13q32 0 86 109q22 -16 51 -45t40 -29q17 0 53 51q37 52 37 90q-2 32 -36.5 68.5t-59.5 36.5q-8 0 -32.5 -41l-44.5 -74q-17 24 -49.5 55.5t-49.5 24.5q-9 0 -50 -77t-41 -90zM1030 -643q0 -6 29.5 -30
l43.5 -36q15 -13 23 -13q32 0 86 109q22 -16 51 -45t40 -29q17 0 53 51q37 52 37 90q-2 32 -36.5 68.5t-59.5 36.5q-8 0 -32.5 -41l-44.5 -74q-17 24 -49.5 55.5t-49.5 24.5q-9 0 -50 -77t-41 -90z" />
    <glyph glyph-name="Yeshga" unicode="&#xfbfe;&#xfeb8;&#xfb95;&#xfe8e;" horiz-adv-x="1170" 
d="M938 1490q6 -2 -7 -33q-3 -13 -14 -32q-35 -59 -135 -166l-45 -43.5l-43 -42.5q8 23 20 48q9 17 35 48l113 125q53 63 76 96zM442 364q0 37 -46 57q-46 19 -120 19q-39 0 -51 -6q-41 -18 -41 -82q0 -61 32 -96q27 -29 72 -29q70 0 112 46t42 91zM511 377q-8 -2 -20 -48
q-15 -50 -19 -61q-46 -123 -69 -162q-69 -106 -172 -106q-72 0 -109 70q-36 69 -36 198q0 52 20 184q21 139 36 225q16 95 30 167q12 76 28 114l68 141q7 5 10 3q2 -4 2 -16q0 -13 -3 -26q-4 -20 -4 -28q-1 -1 -44 -294q-13 -81 -20 -131t-9 -69q15 0 186 198l311 357
l116 131l83 96q139 165 225 303q12 26 18 26q1 -4 2 -8.5t3 -7.5q-17 -63 -19 -68q-25 -68 -74 -143q-31 -54 -92 -133q-57 -75 -165 -201q-3 -2 -111 -122l-70 -79.5l-69 -82.5l-123 -143l-112 -127q1 0 2 -0.5t3 -0.5l150 -32q15 -4 29.5 -8.5t29.5 -7.5q65 -19 88 -19
t72 58l39 49q7 3 17 1q12 -3 15 -3l17 2q15 2 24 15l8 12t9 12q19 28 28 30q11 -2 35 -8q9 1 37 37l23 31q9 0 26 -9l10 5v0q19 12 24 25q5 15 5 28q0 7 -2 51v39q17 46 47 98l12.5 22l22.5 39q1 4 10 11q4 0 4 -39v-24.5v-24.5q0 -36 -5 -81q-5 -54 -43 -124
q-39 -70 -75 -104v0q-11 -11 -29 -24l-17.5 -11.5l-16.5 -10.5q-30 -22 -35 -26q-12 -10 -28 -18l-35 -15q-11 -9 -21.5 -16.5t-19.5 -15.5l-62 -35q-12 -8 -40 -39q-48 -51 -82 -51q-3 0 -45 18q-15 6 -29 6v1zM718 5q0 13 41 90t50 77q17 7 49.5 -24.5t49.5 -55.5l44.5 74
t32.5 41q25 0 59.5 -36.5t36.5 -68.5q0 -38 -37 -90q-36 -51 -53 -51q-11 0 -40 29t-51 45q-54 -109 -86 -109q-8 0 -23 13l-43.5 36t-29.5 30zM309 1309q0 12 42.5 91t52.5 79q16 0 50.5 -29t46.5 -55l42 70q29 48 36 48q24 0 61 -34q36 -38 36 -70q0 -37 -36 -92
q-37 -53 -53 -53q-13 0 -37 25q-33 35 -55 51q-55 -112 -86 -112q-7 0 -53.5 37t-46.5 44zM400 1557q0 10 37.5 88.5t48.5 78.5q28 0 62 -34q34 -38 34 -73q0 -33 -31.5 -91t-46.5 -58q-9 0 -40 27.5t-47.5 39.5t-16.5 22z" />
    <glyph glyph-name="Pishin" unicode="&#xfb58;&#xfbff;&#xfeb8;&#xfbff;&#xfee6;" horiz-adv-x="1943" 
d="M1027 386q-17 -17 -36 -28q-18 -11 -44 -13q-28 -5 -33 -16q-6 -12 -12 -57t-12 -81q-7 -40 -13 -60l-6.5 -27.5l-7.5 -30.5q-16 -54 -57 -151q-73 -167 -191 -274q-136 -125 -300 -125q-139 0 -205 86q-55 71 -55 200q0 59 19 141t51.5 166.5t78.5 162.5q20 40 37 40
q9 -5 6 -25q-6 -23 -20 -55l-23 -50.5l-27 -62t-32 -91t-14 -103.5q0 -89 62 -142q63 -54 171 -54q123 0 218 53t160 155q53 84 73 157q22 80 22 171l2 122q0 38 25 65q26 27 61 22h34q45 0 68 12q0 -1 0.5 -1.5l0.5 -0.5v2q31 18 72 79l41 72q9 18 23 42q11 17 22 17
q3 0 5 -5q0 -6 3 -7l-4 -43q0 -45 26 -69q26 -25 68 -25q44 0 104 53q33 28 55 33q8 1 29 0q28 -2 23 -2q27 0 42 22q14 20 21 29q26 -9 37 -4q23 7 36 29q10 18 17 24q21 -4 36.5 7t15.5 24q0 4 -4 14q-10 25 -10 49q0 74 45 170q16 33 33.5 54t23.5 20q8 -3 3 -24
q-12 -42 0 -85t73 -43q18 0 31 23q11 22 14 22q11 0 11 -24q0 -35 -17 -86q-8 -29 -18 -47q-33 -66 -72 -82q-40 -15 -66 0q-67 -79 -100 -90q-5 -1 -15 -5q-9 -3 -25 -18q-22 -18 -24 -19q-11 -6 -25 -8q-11 -2 -23 -7l-36.5 -29l-36.5 -27q-19 2 -47 2q-25 0 -86 -81
q-62 -82 -125 -82q-42 0 -68 23q-24 24 -33 45q-9 22 -14 22q-6 0 -16 -15q-24 -32 -31 -39l-14 -16v2l-0.5 -1zM1056 1152q0 12 42.5 91t52.5 79q16 0 50.5 -29t46.5 -55l42 70q29 48 36 48q24 0 61 -34q36 -38 36 -70q0 -37 -36 -92q-37 -53 -53 -53q-13 0 -37 25
q-33 35 -55 51q-55 -112 -86 -112q-7 0 -53.5 37t-46.5 44zM1147 1400q0 10 37.5 88.5t48.5 78.5q28 0 62 -34q34 -38 34 -73q0 -33 -31.5 -91t-46.5 -58q-9 0 -40 27.5t-47.5 39.5t-16.5 22zM1123 -514q0 13 41 90t50 77q17 7 49.5 -24.5t49.5 -55.5l44.5 74t32.5 41
q25 0 59.5 -36.5t36.5 -68.5q0 -38 -37 -90q-36 -51 -53 -51q-11 0 -40 29t-51 45q-54 -109 -86 -109q-8 0 -23 13l-43.5 36t-29.5 30zM636 -596q0 13 41 90t50 77q17 7 49.5 -24.5t49.5 -55.5l44.5 74t32.5 41q25 0 59.5 -36.5t36.5 -68.5q0 -38 -37 -90q-36 -51 -53 -51
q-11 0 -40 29t-51 45q-54 -109 -86 -109q-8 0 -23 13l-43.5 36t-29.5 30zM1566 -80q0 12 40.5 91.5t49.5 79.5q16 0 49 -29.5t44 -54.5l40 69q28 49 35 49q23 0 57 -34q35 -39 35 -71q0 -37 -35 -92q-34 -53 -50 -53q-12 0 -35 25q-32 35 -53 51q-52 -112 -82 -112
q-7 0 -51 37t-44 44zM1660 -267q1 10 40 79.5t48 68.5q24 -2 52.5 -37t26.5 -67q-2 -35 -33 -86q-32 -49 -44 -49q-8 1 -19 15l-31 32l-26.5 23t-13.5 21zM426 165q0 22 37.5 95.5t48.5 73.5q22 9 64 -33.5t45 -66.5q0 -32 -35 -92t-51 -60q-6 3 -41.5 26.5l-52.5 35.5
q-15 10 -15 21z" />
    <glyph glyph-name="Nistand" unicode="&#xfee7;&#xfbff;&#xfeb4;&#xfe98;&#xfee8;&#xfeaa;" horiz-adv-x="1746" 
d="M433 311q0 -52 28 -80q7 -7 21 -14q35 -21 65 -21q56 0 82 13q28 15 57 55q24 26 57 50q34 23 56.5 21t44.5 -3q20 1 33 16q25 22 25 41q-4 11 -6 16q-9 25 -9 41q0 51 25 119q2 4 18 43q2 3 23 41q7 10 18 22q11 10 17 9q10 -5 10 -15l-6 -30q-9 -101 96 -102
q56 0 100 43q53 52 69 55q34 -4 56 -4q23 0 49 25q1 1 26 29q10 -11 25 -5q26 9 43 33q14 20 20 31q19 -7 29 -4l12 6l1 -1v2q16 11 16 22q0 5 -4 15q-10 25 -10 49q0 74 45 170q14 31 33 53t24 20q8 -2 3 -23q-9 -46 3.5 -87.5t68.5 -40.5q18 0 31 22q12 23 14 23
q10 0 10 -25q0 -38 -16 -86q-10 -31 -19 -47q-32 -65 -71 -82q-43 -13 -65 0l-41 -45l-35 -33l-46 -24q-8 -4 -23 -14q-7 -6 -27 -26q-7 -5 -25 -8q-16 -2 -27 -9q-10 -7 -37 -30q-25 -23 -40 -26q-9 -3 -24 -1q-14 0 -29 3q-33 0 -101 -90q-67 -90 -135 -90l-32 5
q-22 3 -37 -17l-41 -53q-52 -60 -111 -45q-18 5 -33 -9q-12 -8 -24 -20l-40.5 -62l-41.5 -61q-39 -45 -68 -58q-33 -15 -73 -15q-67 0 -99 45q-31 45 -42 81q0 3 -2 15q-9 -18 -12 -25q-11 -19 -35 -51q-31 -43 -80 -61l-82 -25l-63 -12q-39 -5 -45 0q0 12 30 33l58 36.5
l57 36.5q78 53 114 98q23 27 44 61q24 37 32 54l41 86q22 38 23 41q16 23 26 20q11 -4 6 -20q-4 -13 -7.5 -22t-6.5 -15q-14 -38 -14 -63zM1581 1374q0 22 37.5 95.5t48.5 73.5q22 9 64 -33.5t45 -66.5q0 -32 -35 -92t-51 -60q-6 3 -41.5 26.5l-52.5 35.5q-15 10 -15 21z
M1342 102q0 13 41 90t50 77q17 7 49.5 -24.5t49.5 -55.5l44.5 74t32.5 41q25 0 59.5 -36.5t36.5 -68.5q0 -38 -37 -90q-36 -51 -53 -51q-11 0 -40 29t-51 45q-54 -109 -86 -109q-8 0 -23 13l-43.5 36t-29.5 30zM818 996q0 13 41 90t50 77q17 7 49.5 -24.5t49.5 -55.5
l44.5 74t32.5 41q25 0 59.5 -36.5t36.5 -68.5q0 -38 -37 -90q-36 -51 -53 -51q-11 0 -40 29t-51 45q-54 -109 -86 -109q-8 0 -23 13l-43.5 36t-29.5 30zM500 814q0 22 37.5 95.5t48.5 73.5q22 9 64 -33.5t45 -66.5q0 -32 -35 -92t-51 -60q-6 3 -41.5 26.5l-52.5 35.5
q-15 10 -15 21z" />
    <glyph glyph-name="Shenid" unicode="&#xfeb7;&#xfee8;&#xfbff;&#xfeaa;" horiz-adv-x="1470" 
d="M419 313q0 -52 40.5 -83t73.5 -31q58 0 82 13q24 14 58 54q24 30 56.5 52t56.5 22v0q21 -4 43 -6q18 2 33 16q25 24 25 41q-5 10 -6 17q-8 22 -8 41q0 55 24 118q4 15 18 43q4 10 23 41q4 8 18 23q9 10 17 8q10 -5 10 -14l-6 -31q-8 -47 22 -75q22 -25 61 -25q55 0 98 40
q47 40 62 45q18 6 39 1q25 5 52 41q27 37 40 37q9 0 15 1q8 0 21 17q11 18 20 41q9 25 15 25q2 -6 4 -22q3 -15 0 -30q-19 -75 -53 -110q-13 -14 -24 -22q-8 -4 -16 -8.5t-17 -10.5l-57 -59q-27 -17 -38 -17q-19 0 -29 -1q-15 -1 -31 -12q-15 -12 -42 -48q-22 -32 -44 -58
q-51 -51 -98 -51v0l-33 4q-22 5 -37 -16l-41 -53q-43 -53 -79 -50v0l-31 4q-19 0 -33 -8q-13 -7 -24 -20l-41 -61l-41 -62q-35 -41 -68 -59q-32 -15 -73 -15q-68 0 -99 45q-32 46 -42 82q0 4 -2 14l-17.5 -31t-29.5 -44q-28 -40 -80 -62l-82 -25l-63 -12q-39 -3 -45 0
q0 12 30 33l57.5 37.5l57.5 36.5q75 52 115 98q25 31 44 60q9 17 17 30.5l14 23.5l41 87q17 32 23 40q16 23 26 21q10 -4 7 -21q-11 -24 -15 -36q-14 -43 -14 -64zM1011 1222q0 12 42.5 91t52.5 79q16 0 50.5 -29t46.5 -55l42 70q29 48 36 48q24 0 61 -34q36 -38 36 -70
q0 -37 -36 -92q-37 -53 -53 -53q-13 0 -37 25q-33 35 -55 51q-55 -112 -86 -112q-7 0 -53.5 37t-46.5 44zM1102 1470q0 10 37.5 88.5t48.5 78.5q28 0 62 -34q34 -38 34 -73q0 -33 -31.5 -91t-46.5 -58q-9 0 -40 27.5t-47.5 39.5t-16.5 22zM719 1048q0 22 37.5 95.5
t48.5 73.5q22 9 64 -33.5t45 -66.5q0 -32 -35 -92t-51 -60q-6 3 -41.5 26.5l-52.5 35.5q-15 10 -15 21zM336 -741q0 13 41 90t50 77q17 7 49.5 -24.5t49.5 -55.5l44.5 74t32.5 41q25 0 59.5 -36.5t36.5 -68.5q0 -38 -37 -90q-36 -51 -53 -51q-11 0 -40 29t-51 45
q-54 -109 -86 -109q-8 0 -23 13l-43.5 36t-29.5 30z" />
    <glyph glyph-name="Neshga" unicode="&#xfee7;&#xfeb8;&#xfb95;&#xfe8e;" horiz-adv-x="1076" 
d="M938 1490q6 -2 -7 -33q-3 -13 -14 -32q-35 -59 -135 -166l-45 -43.5l-43 -42.5q8 23 20 48q9 17 35 48l113 125q53 63 76 96zM442 364q0 37 -46 57q-46 19 -120 19q-39 0 -51 -6q-41 -18 -41 -82q0 -61 32 -96q27 -29 72 -29q70 0 112 46t42 91zM511 377q-8 -2 -20 -48
q-15 -50 -19 -61q-46 -123 -69 -162q-69 -106 -172 -106q-72 0 -109 70q-36 69 -36 198q0 52 20 184q21 139 36 225q16 95 30 167q12 76 28 114l68 141q4 6 10 3q4 -4 3 -16.5t-8 -53.5q-1 -1 -44 -294q-13 -81 -20 -131t-9 -69q15 0 186 198l311 357l116 131l83 96
q139 165 225 303q19 27 22 25t1 -15q-17 -63 -19 -68q-25 -68 -74 -143q-31 -54 -92 -133q-57 -75 -165 -201q-3 -2 -111 -122l-70 -79.5l-69 -82.5l-123 -143l-112 -127q1 0 2 -0.5t3 -0.5l150 -32q15 -4 29.5 -8.5t29.5 -7.5q65 -19 88 -19t72 58l39 49q7 3 17 1
q12 -3 15 -3l17 2q15 2 24 15l8 12t9 12q19 28 28 30q11 -2 35 -8q9 1 37 37l23 31q9 0 26 -9l10 5v0q19 12 24 25q5 15 5 28q0 7 -2 51v39q17 46 42.5 90.5l39.5 68.5q1 4 10 11q4 0 4 -39v-24.5v-24.5q0 -36 -5 -81q-5 -54 -43 -124q-39 -70 -75 -104v0q-11 -11 -29 -24
l-17.5 -11.5l-16.5 -10.5q-30 -22 -35 -26q-12 -10 -28 -18l-35 -15q-11 -9 -21.5 -16.5t-19.5 -15.5l-62 -35q-12 -8 -40 -39q-48 -51 -82 -51q-3 0 -45 18q-15 6 -29 6v1zM309 1309q0 12 42.5 91t52.5 79q16 0 50.5 -29t46.5 -55l42 70q29 48 36 48q24 0 61 -34
q36 -38 36 -70q0 -37 -36 -92q-37 -53 -53 -53q-13 0 -37 25q-33 35 -55 51q-55 -112 -86 -112q-7 0 -53.5 37t-46.5 44zM400 1557q0 10 37.5 88.5t48.5 78.5q28 0 62 -34q34 -38 34 -73q0 -33 -31.5 -91t-46.5 -58q-9 0 -40 27.5t-47.5 39.5t-16.5 22zM908 1733
q0 22 37.5 95.5t48.5 73.5q22 9 64 -33.5t45 -66.5q0 -32 -35 -92t-51 -60q-6 3 -41.5 26.5l-52.5 35.5q-15 10 -15 21z" />
    <glyph glyph-name="Bepeyva" unicode="&#xfe91;&#xfb59;&#xfbff;&#xfeee;" horiz-adv-x="1115" 
d="M844 832q11 -67 75 -67q19 0 31 22q12 23 14 23q11 0 11 -25q0 -35 -17 -86q-8 -27 -18 -47q-34 -66 -72 -82q-13 -6 -25 -7.5t-32 6.5q-22 5 -35 -16l-43 -55q-41 -50 -65 -53q-12 -3 -34 5q-21 9 -36 9v-1q-14 0 -47 -35l-65 -63q-27 -23 -51 -37q-7 -21 -5 -16
q-4 -14 -15 -36q-4 -9 -6.5 -15.5t-5.5 -12.5q-5 -10 -20 -35q-16 -27 -34 -52q-36 -54 -53 -64q-15 -10 -53 -23q-13 -6 -72 -25l-110 -29q-20 -3 -28 -4q-16 -2 -17 2q-2 4 19 18q15 8 27 16q-9 -6 77 46q47 28 77 51q64 46 98 82q37 38 37 65q-8 -3 -23 -6q-18 -2 -32 -2
q-37 6 -59 21q-33 19 -33 53q0 24 29 86.5t51 91.5q31 39 55 39q40 0 69 -29q37 -39 37 -80q2 -8 2 -37q16 6 37 26q23 21 110 117q18 16 32 15t35.5 -11t43.5 -10q10 0 27.5 23t17.5 32q-4 9 -7 25.5t-3 32.5q0 55 24 118q1 4 20.5 46t38.5 60q10 10 17 9q10 -5 10 -15
q-6 -15 -7 -31t1 -33zM11 -370q0 -5 29 -27t42 -33q15 -12 23 -12q31 0 83 100q22 -15 50 -41.5t39 -26.5q16 0 51 47q36 47 36 82q-2 29 -35.5 62.5t-57.5 33.5q-8 0 -32 -37.5l-43 -67.5q-16 22 -48 50.5t-48 22.5q-9 0 -49 -70.5t-40 -82.5zM474 -258q0 -7 43 -42t50 -35
q29 0 80 106q20 -15 51 -48q23 -24 34 -24q16 0 49 50q34 52 34 87q0 30 -34 67q-33 32 -55 32q-7 0 -34 -47l-39 -65q-11 24 -43 52t-48 28q-9 0 -48.5 -75t-39.5 -86zM566 -435q0 -8 13 -19.5t26 -21.5q15 -16 30 -30q11 -13 19 -14q11 0 42 46q31 48 33 81q1 30 -26.5 63
t-50.5 35q-9 1 -47 -64.5t-39 -75.5zM894 -61q0 -11 15 -21l52.5 -35.5t41.5 -26.5q16 0 51 60t35 92q-3 24 -45 66.5t-64 33.5q-11 0 -48.5 -73.5t-37.5 -95.5z" />
    <glyph glyph-name="Montaghel" unicode="&#xfee3;&#xfee8;&#xfe98;&#xfed8;&#xfede;" horiz-adv-x="1691" 
d="M810 950l82 174q6 8 9 8t3 -18q0 -19 -2 -35l-18 -238q0 -49 20 -82q31 -45 95 -45q13 0 15 22q1 21 9 44q1 8 14.5 34.5t22.5 39.5q35 54 68 83q34 33 59 33q43 0 64 -31q22 -30 22 -75q0 -28 -10 -63q-13 -39 -19 -54q23 0 58.5 21t137.5 124q20 20 33 17q15 -4 36 -13
q20 -10 42 -10q10 0 27 24q18 22 18 31q-4 9 -7.5 24.5t-3.5 33.5q0 52 25 118q12 30 18 43q4 9 23 41q8 13 18 23q11 9 17 8q10 -5 10 -14l-6 -31q-5 -52 11 -69t34 -17q10 23 23 45q11 19 22 19q12 0 28 -17q17 -19 17 -49q0 -33 -17 -79q-16 -46 -45 -86q-18 -26 -43 -37
q-16 -11 -63 -7q-20 4 -35 -16l-43 -55q-41 -50 -65 -54q-13 -2 -34 6q-21 9 -36 9q-23 -2 -57 -29l-71 -63v0q-33 -28 -72 -41q-26 -6 -76 -14q-55 -41 -111 -68q-60 -29 -110 -29q-26 0 -50 4q-19 5 -23 5h-0.5t-0.5 1l-6 -120q0 -168 -49 -356q-35 -132 -96 -239
q-163 -305 -432 -305q-130 0 -193 80q-65 80 -65 202q0 81 22 171q19 80 83 204q19 41 38 73q21 39 35 35q8 -5 1 -19q-3 -6 -29 -65q-40 -86 -51 -121q-29 -79 -29 -139q0 -113 88 -166q66 -40 166 -40q56 0 110 14q57 13 106 47q130 85 181 250q34 110 34 270
q0 123 2 202.5t6.5 222.5t6.5 162q1 26 8 41zM1216 794q0 24 -17 41t-45 17q-36 0 -59 -25t-23 -39q0 -16 24 -31q24 -14 40 -14q26 0 53 18q27 19 27 33zM1051 1698q0 13 41 90t50 77q17 7 49.5 -24.5t49.5 -55.5l44.5 74t32.5 41q25 0 59.5 -36.5t36.5 -68.5
q0 -38 -37 -90q-36 -51 -53 -51q-11 0 -40 29t-51 45q-54 -109 -86 -109q-8 0 -23 13l-43.5 36t-29.5 30zM1621 1728q0 22 37.5 95.5t48.5 73.5q22 9 64 -33.5t45 -66.5q0 -32 -35 -92t-51 -60q-6 3 -41.5 26.5l-52.5 35.5q-15 10 -15 21zM528 1688q0 13 41 90t50 77
q17 7 49.5 -24.5t49.5 -55.5l44.5 74t32.5 41q25 0 59.5 -36.5t36.5 -68.5q0 -38 -37 -90q-36 -51 -53 -51q-11 0 -40 29t-51 45q-54 -109 -86 -109q-8 0 -23 13l-43.5 36t-29.5 30z" />
    <glyph glyph-name="iiseh" unicode="&#xfbfe;&#xfbff;&#xfeb4;&#xfeea;" horiz-adv-x="1171" 
d="M903 299h-1v0l-24 -20l-37 -10l-59 -41q-32 -9 -63 -25q2 2 -25 -19q-23 -18 -33 -21q-9 -3 -24 -3q-28 2 -27 2q-35 0 -59 -18q-53 -58 -86 -90q-56 -54 -129 -54q-21 0 -57 20q-37 19 -62 19q-46 0 -73 -11q-31 -10 -56 -28q-6 -4 -12 -9l-12 -10q-12 -9 -25 -9
q-14 0 -14 18q0 7 6 17q19 33 54 73q36 42 75 74q48 42 100 64q48 22 86 22q19 0 39 -8q52 -23 78 -23q33 0 69 25q78 53 86 53q9 0 25 -2q10 -1 24 -8q26 0 52 18q11 9 22 25q10 16 16 16q15 -12 29 -12q30 0 47 37q9 20 15 20q8 -8 24 -8q15 0 31 10v0q16 12 16 22
q0 1 -4 15q-11 27 -11 49q0 73 45 169q15 32 33 54q17 22 25 20q7 -1 3 -23q-5 -18 -5 -38v-3.5v-5.5q0 -10 2 -17v3q11 -67 76 -67q18 0 30 22q13 23 15 23q10 0 10 -25q0 -33 -16 -86q-9 -27 -19 -47q-34 -65 -72 -82l-12 -4l-12 -2v2v-2q-21 -4 -41 6l-41 -45zM802 -348
q0 -6 29.5 -30l43.5 -36q15 -13 23 -13q32 0 86 109q22 -16 51 -45t40 -29q17 0 53 51q37 52 37 90q-2 32 -36.5 68.5t-59.5 36.5q-8 0 -32.5 -41l-44.5 -74q-17 24 -49.5 55.5t-49.5 24.5q-9 0 -50 -77t-41 -90zM304 -476q0 -6 29.5 -30l43.5 -36q15 -13 23 -13
q32 0 86 109q22 -16 51 -45t40 -29q17 0 53 51q37 52 37 90q-2 32 -36.5 68.5t-59.5 36.5q-8 0 -32.5 -41l-44.5 -74q-17 24 -49.5 55.5t-49.5 24.5q-9 0 -50 -77t-41 -90z" />
    <glyph glyph-name="Moshkel" unicode="&#xfee3;&#xfeb8;&#xfb91;&#xfede;" horiz-adv-x="1727" 
d="M1030 773q0 16 -21 30q-21 15 -45 15q-31 0 -55 -21q-25 -21 -25 -47q0 -19 23 -31q21 -13 43 -13q32 0 55 20q25 20 25 47zM812 936l81 174q5 8 9 8q3 0 3 -18q0 -27 -2 -35l-10 -100l-6 -81q111 111 174 180q69 75 193 230q69 83 133 176q41 57 78 117q6 8 37 73
q3 8 9.5 20.5l14.5 28.5q15 -4 -6 -74q-18 -65 -36 -101q-40 -84 -150 -233q-107 -145 -190 -238l-55 -59.5l-53 -58.5q-11 -13 -35 -35q42 -5 64 -28q24 -23 24 -74q0 -62 -19 -108q11 5 25 12q27 13 43 28q24 22 36 35q17 18 35 44q16 25 19 25q7 2 19 -4t16 -6q10 0 19 9
q9 11 18 28q1 4 8 10q1 2 11 -1q9 -3 15 -3h6.5h6.5q6 1 13 11l7 16l10 18q6 1 11 0q3 -1 14 -8q2 0 26 14v1q28 24 35 32l49 95q16 24 37 49q8 10 20 22q6 8 20 37q16 32 30 53q4 2 20 -11q15 -13 29 -34q14 -26 23 -46q11 -24 11 -48q0 -29 -20 -60q-21 -35 -44 -40
q-24 -6 -30 -6q-22 1 -43 6q-21 4 -37 -7q-17 -15 -28 -34q-21 -35 -27 -41l-44 -51l-1 -1q-24 -14 -30 -18l-31 -18q-18 -9 -33 -12q-15 -4 -18 -7l-43 -28q-18 -11 -33 -15q-7 -3 -13.5 -4.5t-12.5 -3.5l-45 -37l-56 -36l-85 -41q-4 -1 -14 -5l-15 -9q-21 -14 -47 -19
q-27 -6 -66 -6l-9 2l-8 -174q0 -162 -49 -356q-35 -132 -96 -239q-164 -304 -432 -304q-129 0 -193 80q-65 78 -65 201q0 83 22 171q20 83 83 204q22 47 38 73q21 39 35 35q8 -5 1 -19q-3 -6 -29 -65q-39 -84 -51 -120q-29 -84 -29 -140q0 -113 88 -165q68 -41 166 -41
q50 0 110 14q57 15 106 47q129 87 180 250q35 114 35 270q0 125 3 230q3 107 9 244v55q0 18 2 58q2 27 9 40zM848 1445q0 12 42.5 91t52.5 79q16 0 50.5 -29t46.5 -55l42 70q29 48 36 48q24 0 61 -34q36 -38 36 -70q0 -37 -36 -92q-37 -53 -53 -53q-13 0 -37 25
q-33 35 -55 51q-55 -112 -86 -112q-7 0 -53.5 37t-46.5 44zM939 1693q0 10 37.5 88.5t48.5 78.5q28 0 62 -34q34 -38 34 -73q0 -33 -31.5 -91t-46.5 -58q-9 0 -40 27.5t-47.5 39.5t-16.5 22z" />
    <glyph glyph-name="Bastega" unicode="&#xfe91;&#xfeb4;&#xfe98;&#xfb95;&#xfe8e;" horiz-adv-x="1259" 
d="M946 1488q7 -2 -6 -32q-4 -15 -14 -33q-35 -57 -135 -166l-45 -43l-43 -43q8 23 20 49q9 17 35 48l113 125q47 55 75 95zM452 363q0 36 -46 56q-46 19 -120 19q-39 0 -51 -6q-41 -19 -41 -82q0 -59 33 -95q25 -28 71 -28q70 0 112 46q42 45 42 90zM520 375q-9 -4 -19 -47
q-12 -43 -19 -60q-46 -122 -69 -162q-68 -106 -172 -106q-72 0 -108 69q-37 69 -37 199q0 51 20 183q21 139 36 225q16 95 30 167q12 75 28 113l68 142q7 5 10 3q2 -4 2 -16q0 -13 -3 -26q-2 -10 -4 -28l-12 -80.5l-32 -213.5q-13 -81 -20 -131t-9 -69q14 0 187 198l212 244
l98 112l199 228q138 163 225 302q12 27 19 27q1 -10 4 -17q-18 -63 -19 -67q-23 -65 -73 -143q-31 -52 -93 -133q-57 -77 -165 -201q-1 -1 -111 -123l-139 -161l-123 -144l-112 -126l2 -1q124 -11 198 -30q74 -21 103 -39q13 0 25 10q8 7 37 41q22 28 48 50q22 19 50 24
q0 -1 1 -1v1q7 -3 13.5 -5t12.5 -3q9 -4 17 -4q26 0 35 5q11 4 19.5 17t11.5 18q4 10 9 13q7 1 11 -2l8 -6q21 -8 43 24q1 3 6 13q2 8 10 12q5 1 9 -1q3 -2 5 -3.5t4 -1.5q20 1 37 26q3 6 9 16q2 5 10 9q10 -4 22 -4l24 10q18 12 23 25q5 11 5 27q0 30 -2 52v38q17 45 47 99
q4 6 12.5 21.5l22.5 39.5q0 2 10 10q5 0 5 -38v-24.5v-25.5q0 -26 -6 -81q-5 -56 -43 -123q-35 -67 -54 -85.5l-19 -18.5q-23 -23 -55 -35l-29 -12l-16.5 -11t-14.5 -9l-41 -19q-13 -8 -26 -14.5l-25 -12.5l-22 -8l-41 -30q-31 -23 -47 -17v1l-1 -1l-18 4q-22 0 -31 -4
q-12 -5 -35 -27l-57 -65q-12 -16 -25 -26q-12 -9 -22 -7q-15 9 -29 16q-27 15 -45 15zM275 1244q0 -6 29.5 -30l43.5 -36q15 -13 23 -13q32 0 86 109q22 -16 51 -45t40 -29q17 0 53 51q37 52 37 90q-2 32 -36.5 68.5t-59.5 36.5q-8 0 -32.5 -41l-44.5 -74q-17 24 -49.5 55.5
t-49.5 24.5q-9 0 -50 -77t-41 -90zM934 -86q0 -11 15 -21l52.5 -35.5t41.5 -26.5q16 0 51 60t35 92q-3 24 -45 66.5t-64 33.5q-11 0 -48.5 -73.5t-37.5 -95.5z" />
    <glyph glyph-name="Goftegoo" unicode="&#xfb94;&#xfed4;&#xfe98;&#xfb95;&#xfeee;" horiz-adv-x="1558" 
d="M284 80q-20 -12 -53 -23q-9 -3 -27 -9.5l-45 -15.5l-110 -28q-10 -3 -28 -4q-16 -4 -17 2q-2 3 19 17q30 18 27 16q2 2 77 46q49 29 77 52q70 51 99 81q36 39 36 66q-9 -5 -23 -6q-9 -2 -32 -2q-36 5 -59 20q-33 21 -33 53q0 25 45 121q11 29 35 58q31 38 55 38
q42 0 70 -28q37 -41 37 -80q0 -3 0.5 -7t0.5 -8q60 58 78 146q7 32 11 63q4 30 13 118q3 40 5.5 68.5t5.5 45.5q11 94 22 118l27 54l41 77q6 -8 8 -12q-2 -19 -10 -52q-8 -30 -20 -142q-13 -103 -13 -176v-3q0 -98 49 -143q38 -32 86 -32q68 0 113 59q33 43 56 58
q22 15 41 13t35.5 -7t27.5 -4.5t17 3.5q7 1 7 12q-10 7 -11.5 16.5t1.5 18.5l12 30.5l12 30.5t34 58q24 37 46 63q39 45 70 45q30 0 51 -27q20 -27 20 -69q0 -15 -3 -31q-4 -20 -25 -72q26 0 58 18.5t50 41.5q18 21 34 58q14 34 18 56q2 28 2 77l4 137v53q0 52 10 84l74 182
q6 3 10 4q2 -6 2 -16q0 4 -2 -72q-7 -74 -7 -124q-1 -30 -1 -59v-56q0 -58 -13 -133q-13 -81 -41 -142q-21 -44 -49 -81q-35 -51 -77 -88l-1 -1q-22 -21 -47 -32q-23 -9 -39 -12q-17 -3 -23 -3h-6.5h-3.5q-27 4 -40 4q-39 0 -78 -31q-6 -3 -39 -30t-63 -27q-56 9 -68 5
q-51 -17 -108 -113q-56 -96 -129 -96q-75 0 -113 64q-9 13 -14 26q-10 -18 -12 -22q-20 -30 -49 -64q-36 -39 -53 -54l-2 -2l-1 -1q-17 -88 -56.5 -148.5t-84.5 -88.5zM1486 2000q-9 -25 -70 -86q-80 -80 -207 -174q5 11 13 33q17 25 112 114q57 52 94 79q46 34 58 34z
M1455 1783q-66 -66 -141 -131l-80 -67.5l-49 -41.5l-74 -61l-65 -51l-82.5 -63.5l-81.5 -61.5l-141 -110q-35 -29 -59 -46q-27 -23 -31 -16q18 50 37 82q19 36 47 63q45 49 192 168l130.5 104.5l131.5 106.5q109 89 183 157q75 67 155 148q36 36 102 110q45 50 51 50v-12.5
v-10.5q-12 -39 -75 -133q-76 -112 -150 -184zM1223 803q0 19 -14 40q-16 20 -41 20q-37 0 -62 -33q-7 -10 -18 -35q0 -10 20 -23q21 -14 46 -14q24 0 47 18q22 16 22 27zM2333 2348q-9 -25 -70 -86q-86 -86 -207 -174q5 11 13 33q17 25 112 114q48 44 94 79q46 34 58 34z
M2302 2131q-66 -66 -141 -131l-80 -67.5l-49 -41.5l-74 -61l-65 -51l-83 -63.5l-81 -61.5l-141 -111q-33 -25 -58 -46q-29 -22 -32 -15q16 46 37 82q20 38 47 63q45 49 192 168l130.5 104.5l131.5 106.5q109 89 183 157q75 67 155 148q36 36 102 110q45 50 51 50v-12.5
v-10.5q-13 -40 -76 -133q-74 -110 -149 -184zM445 1449q0 -6 29.5 -30l43.5 -36q15 -13 23 -13q32 0 86 109q22 -16 51 -45t40 -29q17 0 53 51q37 52 37 90q-2 32 -36.5 68.5t-59.5 36.5q-8 0 -32.5 -41l-44.5 -74q-17 24 -49.5 55.5t-49.5 24.5q-9 0 -50 -77t-41 -90z
M1039 1203q0 -11 15 -21l52.5 -35.5t41.5 -26.5q16 0 51 60t35 92q-3 24 -45 66.5t-64 33.5q-11 0 -48.5 -73.5t-37.5 -95.5z" />
    <glyph glyph-name="iissm" unicode="&#xfbfe;&#xfbff;&#xfeb4;&#xfee2;" horiz-adv-x="1531" 
d="M390 338l125 192v0v1q-1 -1 30 39q6 7 14 15.5l17 17.5q61 62 129 99q68 38 119 38q15 0 36 -11q21 -12 31 -12q24 0 58 29q9 8 26 29q10 -9 23 -9q16 4 25 11q10 7 24 20q14 22 22 33q12 -9 23 -6q21 2 34 11t13 21q0 5 -4 14q-10 26 -10 49q0 74 45 170q17 36 33 53
q18 23 24 21q9 -3 3 -24q-5 -23 -5 -38v-2.5v-6.5q0 -3 2 -17v4q13 -68 76 -68q18 0 31 23q11 22 14 22q11 0 11 -24q0 -36 -17 -86q-6 -20 -18 -47q-33 -65 -72 -82l-12 -4q-35 -6 -54 4l-41 -45l-22 -23l-29 -17l-53 -33l-25 -8l-22 -19q-29 -18 -58 -18q-14 0 -47 -29
q-34 -29 -55 -29q-9 0 -23 7q-33 14 -51 14q-37 0 -63 -7q-31 -7 -64 -30q-9 -4 -40 -31q-23 -21 -29 -35q20 -7 38 -16q-1 1 54 -28q43 -24 43 -61q0 -10 -6 -22q-51 -115 -117 -154q-26 -15 -141 -43q-59 -13 -107 -36q-57 -29 -92 -54q-85 -62 -108 -118
q-31 -75 -49 -162q-6 -18 -17 -94q-5 -34 -24 -240q-21 -208 -21 -249l-14 -289q0 -66 -9 -162q-10 -98 -20 -98q-5 45 -6 70q-8 103 -8 135v107.5v99.5t0.5 92t1.5 84q0 177 25 350q23 175 65 298q12 45 33 86q40 86 92 150q22 29 61 65q41 39 66 55zM1152 243
q0 -6 29.5 -30l43.5 -36q15 -13 23 -13q32 0 86 109q22 -16 51 -45t40 -29q17 0 53 51q37 52 37 90q-2 32 -36.5 68.5t-59.5 36.5q-8 0 -32.5 -41l-44.5 -74q-17 24 -49.5 55.5t-49.5 24.5q-9 0 -50 -77t-41 -90zM800 -140q0 -6 29.5 -30l43.5 -36q15 -13 23 -13
q32 0 86 109q22 -16 51 -45t40 -29q17 0 53 51q37 52 37 90q-2 32 -36.5 68.5t-59.5 36.5q-8 0 -32.5 -41l-44.5 -74q-17 24 -49.5 55.5t-49.5 24.5q-9 0 -50 -77t-41 -90z" />
    <glyph glyph-name="Seteshga" unicode="&#xfeb3;&#xfe98;&#xfeb8;&#xfb95;&#xfe8e;" horiz-adv-x="1263" 
d="M938 1490q6 -2 -6 -32q-3 -14 -14 -33q-33 -56 -135 -165q-51 -46 -88 -86q8 24 20 48q9 18 35 48l64.5 70l48.5 54q50 59 75 96zM444 364q0 38 -46 56q-45 20 -120 20q-39 0 -51 -6q-41 -17 -41 -82q0 -60 32 -96q27 -29 72 -29q69 0 112 46q42 47 42 91zM513 377
q-8 0 -20 -47q-14 -48 -19 -62q-51 -130 -69 -161q-67 -107 -172 -107q-72 0 -109 70q-36 69 -36 198q0 52 20 184q20 136 36 226q7 43 14.5 84.5l14.5 81.5q14 79 29 114l68 141q5 7 10 3q2 -4 2 -15q0 -12 -7 -55l-44 -293q-13 -81 -20 -131t-9 -70q15 0 186 199l311 356
l116 131.5l83 94.5q139 166 225 303q12 26 18 26q1 -4 2 -8.5t3 -7.5q-16 -59 -19 -67q-24 -68 -74 -144q-29 -51 -92 -132l-165 -200q-3 -3 -111 -123l-70 -79.5l-69 -82.5l-123 -143l-112 -126q199 -45 214 -49q67 -18 88 -18q24 0 72 57l19 24.5l20 24.5q5 5 17 1
q12 -3 15 -3l17 2q16 5 24 15l19.5 29t25.5 26q11 -3 35 -9q10 3 37 37l22 31q9 0 27 -8q27 14 27 25q0 1 -4 15q-11 27 -11 49q0 70 45 170q15 32 33 53q18 24 25 20q7 -1 3 -23q-5 -18 -5 -38v-2.5v-6.5q0 -3 2 -17v3q10 -29 23 -42q20 -25 61 -25q53 0 98 40q44 39 61 45
q18 6 39 1q25 5 53 41q27 37 40 37q9 0 15 1q9 0 20 17q11 16 21 41q9 25 15 25q3 -18 4 -22q3 -15 0 -30q-18 -73 -53 -110q-13 -14 -24 -22q-8 -4 -16 -8.5t-17 -10.5l-58 -59q-25 -17 -37 -17q-19 0 -29 -1q-16 0 -31 -12t-42 -48q-25 -35 -45 -58q-44 -47 -82.5 -50.5
t-56.5 5.5l-41 -44q-34 -32 -52 -46q-9 -5 -17.5 -10.5t-16.5 -11.5l-35 -26q-16 -12 -28 -18l-35 -14l-21 -16t-20 -17l-62 -35q-11 -6 -41 -39q-47 -51 -81 -51q-3 0 -45 18q-15 6 -30 7zM312 534h-1v1zM945 1804q0 13 41 90t50 77q17 7 49.5 -24.5t49.5 -55.5l44.5 74
t32.5 41q25 0 59.5 -36.5t36.5 -68.5q0 -38 -37 -90q-36 -51 -53 -51q-11 0 -40 29t-51 45q-54 -109 -86 -109q-8 0 -23 13l-43.5 36t-29.5 30zM270 1359q0 12 42.5 91t52.5 79q16 0 50.5 -29t46.5 -55l42 70q29 48 36 48q24 0 61 -34q36 -38 36 -70q0 -37 -36 -92
q-37 -53 -53 -53q-13 0 -37 25q-33 35 -55 51q-55 -112 -86 -112q-7 0 -53.5 37t-46.5 44zM361 1607q0 10 37.5 88.5t48.5 78.5q28 0 62 -34q34 -38 34 -73q0 -33 -31.5 -91t-46.5 -58q-9 0 -40 27.5t-47.5 39.5t-16.5 22z" />
    <glyph glyph-name="Fetand" unicode="&#xfed3;&#xfe98;&#xfee8;&#xfeaa;" horiz-adv-x="1298" 
d="M961 334v0l-19 4q-23 4 -36 -16l-41 -53q-45 -54 -80 -49q-39 9 -65 -4q-14 -8 -23 -20l-41.5 -62l-40.5 -61q-38 -44 -69 -58q-32 -15 -72 -15q-68 0 -99 45q-32 45 -42 82q0 2 -2 14q-10 -18 -12 -25q-12 -19 -35 -51q-30 -42 -80 -61l-82 -25l-63 -12q-39 -5 -45 0
q0 12 31 33l56.5 36.5l57.5 36.5q79 55 114 98q23 26 45 61l17 28.5t14 25.5l41 86q21 38 23 41q16 22 26 20q10 -5 6 -20q-5 -13 -16.5 -46t-11.5 -55q0 -53 31 -83.5t83 -30.5q58 0 82 13t57 54q21 26 56 51q35 23 61 20.5t41 -4.5q23 4 38 24q15 19 15 29q1 -3 -8 27
q-4 13 -4 37q0 42 18.5 86.5t31.5 58.5q13 16 25 16q7 0 7 -36q0 -27 25 -42.5t72 -15.5q29 0 61 10q27 8 48 23q21 16 22 17q12 12 12 24q0 8 -15 20q-18 11 -34 11q-9 -7 -19 -8q-8 -2 -40 -2q-30 0 -50 16t-12 39q8 27 19 52q15 35 28 61.5t32 54.5q21 26 46 26
q48 0 86 -39q45 -47 45 -135q0 -51 -22 -106q-21 -57 -50 -104q-36 -59 -81 -99q-57 -47 -117 -47h-24zM1127 1419q0 22 37.5 95.5t48.5 73.5q22 9 64 -33.5t45 -66.5q0 -32 -35 -92t-51 -60q-6 3 -41.5 26.5l-52.5 35.5q-15 10 -15 21zM596 1249q0 13 41 90t50 77
q17 7 49.5 -24.5t49.5 -55.5l44.5 74t32.5 41q25 0 59.5 -36.5t36.5 -68.5q0 -38 -37 -90q-36 -51 -53 -51q-11 0 -40 29t-51 45q-54 -109 -86 -109q-8 0 -23 13l-43.5 36t-29.5 30zM306 1049q0 22 37.5 95.5t48.5 73.5q22 9 64 -33.5t45 -66.5q0 -32 -35 -92t-51 -60
q-6 3 -41.5 26.5l-52.5 35.5q-15 10 -15 21z" />
    <glyph glyph-name="Stakhiz" unicode="&#xfeb3;&#xfe98;&#xfea8;&#xfbff;&#xfeb0;" horiz-adv-x="1440" 
d="M717 412q-23 -10 -57.5 -8t-42.5 2q-37 0 -71.5 -8t-82.5 -33q-75 -40 -170 -162q-2 -6 -104 -149q-66 -90 -141 -156q-49 -41 -139 -104q-49 -34 -89 -58q-38 -25 -91 -46q-14 -7 -26 -11q-17 -6 -28 0q-3 5 9 19q15 16 57 49q66 42 121 82q85 63 175 165q61 64 115 146
q27 36 51 75q91 132 115 160q74 92 163 151q119 86 236 86v0v0h26l66 -4q55 50 86 86q5 6 30 33q11 11 11 16q-20 4 -44 6q-16 2 -49 1t-50 -1h-24.5h-25.5q-26 0 -22 19q2 6 14 29q4 9 17 31t24.5 36t32.5 37t53 48q46 35 117 65q69 27 121 27q19 0 36 -8v1q36 -12 46 -18
q18 -9 30 -9q16 0 40 17q21 13 48 38q14 -4 22 -6q2 0 12 2q8 4 11 6q20 15 39 43q2 4 12 4t16 3q17 7 32 38t24 31q4 0 4 -13q0 -10 -2 -22q-11 -75 -62 -114q-15 -13 -26 -17q-8 -2 -15 -4q-3 -4 -7.5 -8.5t-10.5 -9.5q-10 -11 -23 -16q-31 -21 -47 -21h-11.5h-8.5
l-63 -41q-28 -14 -59 -14l-1 -1q2 0 -51 19q-27 10 -51 10q-32 0 -87 -14q-51 -15 -85.5 -39.5t-54.5 -52.5q9 -4 38 -5q17 -1 52 -1q55 0 96 4q52 4 70 10q20 3 24 0q5 -2 0 -22q-4 -22 -13 -37q-9 -18 -34 -35l-47 -41q-20 -19 -82 -86l-137 -149zM288 -227q0 13 41 90
t50 77q17 7 49.5 -24.5t49.5 -55.5l44.5 74t32.5 41q25 0 59.5 -36.5t36.5 -68.5q0 -38 -37 -90q-36 -51 -53 -51q-11 0 -40 29t-51 45q-54 -109 -86 -109q-8 0 -23 13l-43.5 36t-29.5 30zM503 1356q0 22 37.5 95.5t48.5 73.5q22 9 64 -33.5t45 -66.5q0 -32 -35 -92t-51 -60
q-6 3 -41.5 26.5l-52.5 35.5q-15 10 -15 21zM174 1034q0 22 37.5 95.5t48.5 73.5q22 9 64 -33.5t45 -66.5q0 -32 -35 -92t-51 -60q-6 3 -41.5 26.5l-52.5 35.5q-15 10 -15 21zM866 1479q0 13 41 90t50 77q17 7 49.5 -24.5t49.5 -55.5l44.5 74t32.5 41q25 0 59.5 -36.5
t36.5 -68.5q0 -38 -37 -90q-36 -51 -53 -51q-11 0 -40 29t-51 45q-54 -109 -86 -109q-8 0 -23 13l-43.5 36t-29.5 30z" />
    </font>
</defs>
</svg>
